<?xml version="1.0" standalone="no"?>
<!DOCTYPE svg PUBLIC "-//W3C//DTD SVG 20010904//EN"
 "http://www.w3.org/TR/2001/REC-SVG-20010904/DTD/svg10.dtd">
<svg version="1.0" xmlns="http://www.w3.org/2000/svg"
 width="2128.000000pt" height="2128.000000pt" viewBox="0 0 2128.000000 2128.000000"
 preserveAspectRatio="xMidYMid meet">
<metadata>
Created by potrace 1.11, written by Peter Selinger 2001-2013
</metadata>
<g transform="translate(0.000000,2128.000000) scale(0.100000,-0.100000)"
fill="#000000" stroke="none">
<path d="M14553 13302 c-30 -3 -32 -6 -53 -85 -93 -350 -213 -573 -363 -676
-108 -74 -203 -97 -482 -116 -38 -2 -110 -7 -160 -10 -49 -3 -101 -8 -115 -10
-14 -2 -45 -7 -70 -10 -130 -18 -341 -80 -500 -147 -108 -46 -331 -159 -350
-178 -3 -3 -45 -32 -95 -65 -176 -117 -340 -276 -422 -407 -20 -32 -42 -58
-49 -58 -7 0 -12 6 -9 13 2 6 6 120 10 252 3 132 7 263 9 290 2 28 7 91 11
140 4 50 8 108 8 130 l2 40 -75 2 -75 1 -75 -71 c-106 -101 -153 -137 -250
-189 -73 -39 -204 -86 -286 -102 -11 -2 -30 -7 -44 -10 -14 -3 -43 -8 -65 -11
-43 -6 -86 -12 -139 -20 l-33 -5 2 -63 c2 -34 3 -65 4 -69 0 -3 29 -9 63 -13
80 -9 174 -37 217 -63 67 -40 130 -146 146 -244 3 -18 8 -40 10 -48 4 -14 8
-47 20 -155 7 -59 16 -341 15 -470 -1 -49 0 -101 0 -115 5 -103 4 -333 -2
-336 -5 -3 -3 -39 2 -39 2 0 2 -417 1 -480 -1 -22 0 -128 1 -236 1 -107 -1
-199 -3 -205 -5 -8 -5 -22 0 -41 3 -8 3 -398 1 -398 0 0 -3 -43 -4 -95 -11
-293 -70 -441 -203 -508 -33 -17 -51 -23 -118 -38 -38 -8 -82 -15 -111 -16
-19 -1 -35 -4 -35 -7 -8 -30 -3 -131 5 -132 16 -1 154 3 216 6 56 3 138 9 290
22 118 10 506 9 680 -1 182 -11 225 -14 225 -16 0 0 50 -3 111 -5 61 -2 115
-5 120 -6 42 -7 50 1 53 51 3 78 -2 86 -57 89 -97 5 -232 20 -244 28 -5 2 -17
6 -28 9 -47 10 -57 13 -100 33 -100 44 -176 154 -196 280 -3 18 -8 43 -10 55
-14 70 -17 308 -18 1111 0 873 3 995 25 1053 6 15 10 28 10 30 -1 1 -1 3 0 5
0 1 2 11 4 22 11 57 118 268 155 305 3 3 16 21 30 40 65 93 289 310 312 302 4
-1 8 2 8 7 0 30 510 322 510 293 0 -4 4 -2 8 3 4 6 23 16 42 22 19 6 69 23
110 38 64 23 116 37 226 60 73 16 166 21 326 19 101 -1 185 -3 188 -4 3 -1 8
-2 12 -1 6 1 61 -10 127 -25 79 -17 139 -78 157 -159 8 -32 4 -598 -12 -1755
-12 -965 -11 -1172 10 -1315 39 -265 150 -469 318 -583 44 -30 123 -69 158
-78 8 -2 40 -10 70 -18 80 -21 142 -28 255 -29 119 -1 196 6 310 29 96 20 324
115 363 151 6 6 21 15 32 18 11 3 20 10 20 15 0 5 9 12 20 15 11 3 26 12 32
19 7 6 23 19 35 27 53 36 147 122 270 245 l132 131 -66 47 c-36 26 -70 49 -77
52 -10 4 -45 -22 -137 -99 -85 -73 -268 -178 -354 -203 -119 -35 -137 -38
-265 -38 -325 1 -481 120 -535 409 -21 115 -24 213 -30 1015 -7 893 -13 1593
-16 1600 -1 3 -1 9 0 14 2 10 1 100 -3 231 -1 55 1 111 6 125 8 24 35 56 73
88 46 38 246 106 375 127 19 3 42 8 50 10 8 2 40 7 70 10 30 3 69 9 85 11 17
3 46 7 65 9 19 2 49 6 65 8 17 3 62 8 100 12 39 3 81 8 95 10 27 4 83 11 173
20 32 4 66 8 76 10 10 2 42 6 71 10 125 16 280 60 280 80 0 3 -14 30 -31 60
-29 52 -31 54 -67 50 -225 -27 -449 -36 -999 -40 -420 -4 -453 -3 -454 13 -10
132 12 849 27 873 3 5 -1 12 -8 14 -17 7 -170 11 -215 7z"/>
<path d="M1807 12424 c-1 -1 -63 -5 -137 -8 -74 -4 -144 -9 -155 -10 -11 -2
-49 -6 -85 -11 -36 -4 -74 -9 -85 -11 -11 -3 -36 -7 -55 -10 -19 -3 -37 -7
-40 -9 -3 -2 -26 -6 -50 -10 -25 -3 -53 -8 -62 -11 -37 -11 -123 -24 -168 -25
-47 -1 -85 12 -115 42 -18 16 -46 31 -65 34 -19 2 -56 7 -81 10 l-46 6 -39
-138 c-57 -204 -176 -548 -259 -748 -25 -60 -44 -113 -42 -118 1 -5 47 -24
102 -42 l99 -33 11 22 c19 35 77 128 108 171 15 22 35 51 44 65 35 52 201 207
271 254 110 73 302 151 422 171 19 3 53 10 75 14 22 5 47 9 55 10 8 0 38 3 65
6 121 16 437 5 463 -15 1 -2 5 -3 10 -4 4 -1 23 -6 42 -10 57 -14 175 -71 233
-114 52 -39 147 -140 147 -157 0 -5 6 -16 14 -24 26 -28 61 -127 83 -231 15
-67 8 -311 -10 -380 -49 -187 -171 -338 -351 -435 -62 -32 -152 -73 -181 -80
-5 -1 -17 -5 -25 -8 -20 -7 -82 -26 -106 -32 -119 -29 -154 -36 -186 -39 -20
-3 -41 -6 -45 -9 -4 -3 -32 -8 -62 -12 -61 -8 -85 -12 -109 -19 -9 -3 -35 -7
-57 -10 -22 -2 -47 -7 -55 -10 -8 -3 -33 -8 -55 -11 -33 -5 -91 -17 -188 -41
-103 -25 -194 -54 -267 -84 -41 -17 -88 -36 -105 -42 -79 -29 -263 -141 -336
-205 -120 -104 -211 -211 -277 -327 -51 -88 -106 -224 -115 -283 -3 -18 -7
-36 -10 -40 -12 -19 -22 -136 -21 -258 0 -134 7 -205 24 -249 5 -14 7 -26 5
-26 -9 0 56 -171 87 -227 33 -61 82 -136 108 -163 8 -9 32 -35 52 -58 137
-153 433 -300 678 -337 83 -12 105 -14 195 -19 202 -12 339 -2 514 35 247 54
490 174 685 339 41 34 194 187 233 233 37 42 37 41 47 -53 17 -180 98 -359
205 -450 25 -23 75 -55 110 -72 53 -25 78 -31 150 -34 47 -1 106 2 131 7 25 6
52 12 60 14 54 11 194 72 397 172 l133 65 -14 31 c-56 133 -51 129 -119 97
-228 -105 -374 -83 -476 70 -37 55 -76 140 -65 140 4 0 2 6 -4 13 -5 6 -12 26
-16 42 -12 62 -18 101 -23 145 -5 53 -6 1780 -1 2172 4 285 -6 486 -29 561 -3
11 -6 29 -8 40 -1 12 -8 42 -15 67 -8 25 -14 48 -14 52 -1 3 -4 10 -8 14 -5 4
-8 13 -8 20 0 22 -51 125 -97 194 -93 143 -228 247 -409 318 -109 43 -205 67
-359 88 -68 9 -341 23 -348 18z m773 -1936 c4 -566 -3 -855 -25 -1008 -2 -14
-6 -43 -9 -65 -5 -36 -18 -104 -31 -162 -3 -12 -10 -34 -15 -48 -5 -14 -7 -25
-4 -25 3 0 2 -6 -3 -12 -4 -7 -8 -19 -9 -25 -1 -7 -15 -46 -31 -85 -73 -189
-167 -324 -297 -430 -76 -61 -76 -61 -106 -75 -14 -7 -32 -17 -40 -23 -43 -28
-197 -83 -270 -96 -8 -2 -28 -5 -45 -8 -146 -26 -356 -27 -484 -1 -87 17 -226
75 -304 127 -60 41 -177 150 -177 167 0 5 -3 11 -7 13 -26 11 -86 125 -118
222 -67 206 -62 423 15 628 20 53 76 149 116 198 51 60 191 180 213 180 5 0
11 3 13 8 14 31 343 172 460 196 13 3 138 35 278 71 140 36 264 67 275 69 11
2 38 8 60 14 22 6 87 23 145 37 178 44 314 104 365 161 30 34 35 29 35 -28z"/>
<path d="M5356 12423 c-1 -1 -38 -5 -81 -8 -87 -6 -141 -12 -189 -21 -17 -4
-40 -8 -51 -9 -11 -2 -21 -4 -22 -5 -3 -3 -6 -4 -53 -14 -275 -60 -555 -245
-707 -466 -61 -89 -162 -328 -148 -350 3 -5 1 -11 -4 -15 -5 -3 -10 -13 -9
-23 0 -9 -4 -37 -8 -62 -11 -57 -11 -300 -1 -360 4 -25 14 -72 23 -105 8 -33
18 -71 21 -85 9 -35 98 -211 120 -235 10 -11 33 -40 52 -65 75 -98 238 -220
387 -290 69 -33 259 -103 312 -115 20 -5 198 -64 227 -76 11 -4 94 -32 185
-63 421 -140 560 -211 690 -353 52 -58 125 -178 134 -224 2 -8 6 -21 9 -29 25
-64 40 -322 22 -379 -3 -11 -7 -28 -9 -38 -15 -76 -58 -178 -109 -257 -15 -25
-76 -94 -102 -117 -11 -10 -31 -28 -45 -40 -40 -35 -125 -87 -193 -118 -62
-29 -175 -67 -189 -63 -4 1 -18 -2 -32 -8 -89 -33 -438 -31 -581 4 -5 2 -23 6
-40 10 -51 13 -149 46 -176 61 -14 8 -28 12 -31 9 -3 -2 -11 2 -18 11 -7 8
-17 15 -22 15 -24 0 -161 101 -229 169 -126 126 -214 274 -283 474 l-33 92
-49 -1 c-47 -2 -146 -14 -151 -18 -2 -2 1 -27 7 -57 5 -30 12 -67 15 -84 2
-16 7 -39 9 -51 2 -12 7 -45 11 -75 4 -30 8 -56 10 -59 1 -3 6 -32 10 -65 3
-33 9 -76 11 -95 3 -19 7 -55 9 -80 2 -25 7 -65 10 -90 6 -50 15 -202 20 -325
2 -44 3 -87 4 -96 1 -11 14 -18 39 -22 31 -5 52 -9 116 -20 5 -1 21 21 36 48
36 64 71 84 127 74 38 -7 125 -32 163 -47 8 -3 18 -6 23 -7 4 -2 8 -3 10 -5 1
-1 9 -3 17 -5 8 -1 42 -11 75 -21 33 -10 65 -19 70 -21 17 -4 144 -33 173 -38
15 -3 37 -7 49 -9 12 -3 55 -7 95 -11 40 -3 93 -8 118 -11 96 -10 372 2 470
21 14 2 41 7 60 10 124 20 341 94 450 153 236 129 418 328 509 557 17 44 33
89 36 100 29 124 36 160 42 220 8 82 8 225 0 310 -32 342 -195 615 -485 808
-116 77 -346 186 -447 211 -5 2 -17 6 -25 9 -15 7 -235 81 -555 188 -367 123
-517 225 -614 417 -44 89 -60 162 -66 297 -11 265 130 485 395 616 25 12 50
23 55 25 6 1 33 11 60 22 49 18 79 26 160 40 50 9 307 8 360 -1 80 -13 101
-17 150 -29 28 -7 53 -12 57 -13 3 0 10 -3 14 -7 4 -5 13 -8 20 -8 7 0 33 -9
58 -20 26 -11 50 -20 54 -21 14 -4 138 -83 178 -115 55 -44 140 -133 171 -180
15 -22 31 -42 37 -46 6 -4 7 -8 2 -8 -5 0 -2 -8 6 -17 21 -24 61 -105 88 -179
l22 -61 46 9 c26 5 61 11 77 14 17 2 42 8 56 12 l25 7 -17 90 c-10 49 -21 112
-24 140 -3 27 -7 59 -9 70 -2 11 -7 43 -10 70 -7 50 -13 91 -21 155 -11 82
-15 107 -20 150 -3 25 -7 59 -9 75 -2 17 -8 59 -12 95 -4 36 -9 68 -10 73 -1
4 -2 16 -3 26 -1 17 -9 19 -68 20 -67 0 -68 -1 -84 -32 -38 -77 -117 -87 -299
-39 -275 74 -330 85 -495 98 -79 6 -225 10 -229 7z"/>
<path d="M8876 12423 c-1 -1 -33 -5 -71 -8 -151 -12 -299 -47 -448 -107 -114
-46 -161 -70 -262 -137 -38 -25 -74 -48 -80 -50 -5 -2 -12 -7 -15 -11 -3 -4
-33 -30 -67 -58 -93 -77 -185 -176 -268 -287 -25 -33 -48 -64 -53 -70 -34 -45
-132 -227 -180 -335 -60 -136 -132 -373 -158 -517 -2 -13 -6 -35 -9 -50 -3
-16 -7 -48 -11 -73 -3 -25 -7 -52 -9 -60 -5 -19 -15 -127 -20 -210 -2 -36 -4
-65 -5 -65 -10 0 3 -454 15 -545 13 -95 17 -127 21 -150 3 -14 7 -36 9 -50 2
-14 6 -36 8 -50 3 -14 12 -56 22 -95 9 -38 18 -77 20 -85 9 -41 71 -215 102
-289 72 -167 201 -376 303 -485 97 -105 205 -206 220 -206 4 0 14 -7 21 -16
18 -22 140 -101 224 -144 65 -34 238 -105 280 -115 6 -2 39 -11 75 -20 36 -10
74 -19 85 -20 11 -2 34 -6 50 -9 158 -33 517 -27 645 9 8 2 30 7 49 10 57 10
212 65 300 108 214 103 405 263 557 465 36 48 72 95 80 105 8 9 14 20 14 23 0
3 14 25 30 49 17 24 30 46 30 48 0 3 15 32 34 65 19 33 32 63 28 66 -3 3 0 6
6 6 7 0 12 4 12 10 0 5 14 39 30 76 17 36 32 70 33 76 2 9 -96 76 -174 118
l-36 19 -83 -122 c-92 -135 -188 -263 -234 -317 -66 -74 -205 -206 -247 -235
-24 -16 -53 -38 -63 -47 -11 -10 -25 -18 -32 -18 -7 0 -14 -4 -16 -9 -4 -12
-152 -85 -224 -109 -176 -60 -422 -71 -634 -27 -153 31 -306 97 -435 186 -86
60 -232 207 -282 286 -9 15 -20 30 -23 33 -15 13 -89 153 -119 225 -18 44 -37
87 -42 96 -23 48 -89 307 -104 413 -3 20 -8 53 -11 74 -17 108 -26 281 -24
476 1 260 0 246 19 247 438 29 1860 32 2622 5 53 -2 100 -1 105 3 5 3 16 20
24 36 8 17 17 32 20 35 3 3 12 20 20 39 15 31 14 36 -7 80 -12 25 -25 64 -28
87 -3 22 -10 56 -15 74 -5 18 -9 35 -8 39 0 3 0 8 -2 11 -1 3 -3 21 -5 40 -2
19 -6 46 -9 60 -3 14 -11 52 -17 85 -8 48 -36 154 -63 240 -37 119 -159 368
-203 413 -7 7 -13 17 -13 22 0 16 -130 172 -201 242 -66 65 -218 185 -249 196
-8 3 -17 8 -20 11 -7 8 -126 67 -175 87 -89 35 -248 78 -330 89 -90 12 -322
24 -329 18z m284 -337 c14 -4 36 -9 50 -11 55 -9 148 -38 196 -61 28 -13 56
-24 62 -24 7 0 12 -4 12 -10 0 -5 5 -10 11 -10 18 0 101 -61 162 -119 60 -57
157 -185 157 -207 0 -7 3 -14 8 -16 6 -3 27 -46 68 -143 11 -27 29 -88 40
-137 2 -10 6 -28 9 -40 24 -100 32 -164 41 -313 l6 -110 -119 -2 c-65 -1 -217
-5 -338 -9 -394 -13 -983 -9 -1650 10 -85 2 -107 9 -100 29 2 7 7 27 10 45 13
81 18 102 41 185 48 173 112 314 207 457 28 41 56 82 63 90 21 26 169 174 190
190 113 88 300 175 419 195 87 14 100 17 103 20 6 5 327 -3 352 -9z"/>
<path d="M17647 12384 c-1 -1 -29 -5 -62 -8 -128 -14 -335 -62 -410 -96 -11
-5 -58 -25 -105 -46 -93 -41 -210 -110 -308 -182 -68 -50 -251 -226 -292 -280
-14 -18 -35 -45 -48 -60 -12 -15 -41 -56 -65 -92 -23 -36 -44 -67 -47 -70 -6
-6 -26 -40 -62 -108 -15 -29 -31 -59 -35 -65 -14 -22 -93 -200 -93 -210 0 -5
-6 -23 -14 -40 -39 -86 -109 -369 -131 -527 -26 -198 -27 -595 0 -740 2 -14 6
-45 9 -70 3 -25 8 -56 11 -70 3 -14 7 -36 10 -50 3 -14 7 -36 10 -50 3 -14 8
-38 11 -55 7 -37 9 -46 17 -65 3 -8 17 -55 32 -105 45 -146 128 -340 185 -430
11 -16 26 -43 35 -60 58 -112 286 -365 410 -456 33 -24 62 -46 65 -49 14 -16
164 -102 230 -133 65 -31 175 -74 205 -82 6 -1 17 -5 25 -8 20 -8 138 -38 170
-43 14 -2 41 -7 60 -11 113 -21 402 -32 480 -19 14 3 50 7 81 11 31 3 67 8 80
11 13 3 35 7 49 10 41 6 190 51 262 78 101 38 296 141 347 182 9 7 45 34 81
61 95 70 255 234 338 345 40 53 72 98 72 101 0 3 16 29 35 58 19 30 35 59 35
66 0 7 5 13 10 13 6 0 10 4 10 10 0 5 16 42 36 82 55 113 139 350 158 448 3
14 12 59 20 100 8 41 17 93 20 115 4 22 9 52 11 66 24 134 23 709 0 749 -2 3
-6 28 -9 55 -7 48 -10 69 -22 138 -8 48 -53 222 -70 274 -9 25 -17 53 -19 62
-9 43 -93 232 -163 366 -60 117 -208 310 -319 416 -86 83 -259 219 -278 219
-2 0 -25 13 -50 29 -25 16 -85 45 -133 65 -48 21 -96 41 -107 46 -65 28 -249
74 -345 85 -14 2 -47 7 -75 10 -44 6 -342 14 -348 9z m313 -328 c67 -12 94
-17 100 -21 4 -2 21 -7 39 -10 38 -7 168 -57 225 -88 129 -70 268 -190 365
-317 34 -44 61 -83 61 -87 0 -3 6 -14 14 -22 21 -26 85 -149 126 -246 75 -176
125 -373 155 -610 15 -117 20 -208 20 -410 0 -223 -5 -302 -26 -450 -14 -93
-15 -102 -29 -160 -6 -27 -14 -61 -16 -75 -3 -14 -12 -47 -20 -75 -9 -27 -18
-61 -20 -75 -3 -13 -10 -30 -16 -37 -6 -7 -8 -13 -4 -13 4 0 0 -13 -9 -30 -8
-16 -16 -33 -16 -37 -1 -5 -5 -18 -10 -31 -5 -13 -9 -25 -9 -27 0 -12 -70
-150 -109 -215 -81 -136 -159 -230 -295 -356 -75 -70 -270 -171 -392 -204
-120 -32 -201 -44 -309 -43 -67 0 -204 11 -214 17 -4 3 -18 7 -32 10 -13 3
-35 7 -49 10 -61 13 -203 71 -265 109 -31 19 -109 70 -120 79 -81 65 -150 133
-218 216 -135 162 -265 441 -323 692 -24 105 -50 264 -60 360 -1 14 -3 25 -4
25 -3 0 -8 143 -9 275 -1 167 9 354 23 426 2 12 7 45 11 75 4 30 14 83 22 119
8 36 17 76 20 90 2 14 11 50 20 80 9 30 18 60 19 65 8 37 60 171 69 177 5 4 7
8 2 8 -10 0 85 187 137 268 96 150 238 296 368 378 54 34 175 94 198 99 10 2
27 8 37 13 31 15 135 40 198 47 33 4 61 8 63 9 4 5 252 -3 282 -8z"/>
<path d="M20805 11221 c-55 -18 -126 -64 -167 -109 -24 -26 -69 -102 -75 -127
-1 -5 -6 -26 -11 -46 -26 -101 22 -235 113 -321 17 -15 59 -43 95 -61 56 -28
75 -32 140 -32 69 0 152 21 185 46 88 69 133 125 158 201 54 157 -19 332 -174
420 -78 45 -181 56 -264 29z"/>
<path d="M20770 8874 c-91 -21 -156 -64 -218 -142 -64 -82 -89 -184 -67 -277
33 -140 144 -252 280 -283 175 -39 376 93 418 275 8 32 13 67 11 78 -2 11 -6
40 -9 64 -18 134 -160 267 -308 287 -18 3 -36 6 -42 8 -5 2 -35 -3 -65 -10z"/>
</g>
</svg>
