<?xml version="1.0" encoding="UTF-8"?>
<svg width="284px" height="57px" viewBox="0 0 284 57" version="1.1" xmlns="http://www.w3.org/2000/svg" xmlns:xlink="http://www.w3.org/1999/xlink">
    <title>HUK-COBURG_Logo</title>
    <g id="Page-1" stroke="none" stroke-width="1" fill="none" fill-rule="evenodd">
        <g id="HUK-COBURG_Logo" transform="translate(0.000000, 0.003000)" fill-rule="nonzero">
            <g id="Group" transform="translate(50.797000, 14.814000)" fill="#000000">
                <g transform="translate(0.000000, 0.516000)" id="Path">
                    <path d="M1.979,3.743 L0.039,3.593 L0.039,-3.55271368e-15 L10.363,-3.55271368e-15 L10.363,3.518 L9.195,3.629 C8.575,3.743 8.315,3.851 8.315,4.698 L8.315,9.786 L16.265,9.786 L16.265,3.707 L14.471,3.558 L14.471,0.001 L24.581,0.001 L24.581,3.486 L23.484,3.594 C22.787,3.708 22.604,3.852 22.604,4.729 L22.604,20.627 L24.508,20.775 L24.508,24.369 L14.216,24.369 L14.216,20.848 L15.389,20.743 C16.076,20.628 16.264,20.447 16.264,19.569 L16.264,14.255 L8.314,14.255 L8.314,20.666 L10.218,20.813 L10.218,24.37 L0,24.37 L0,20.887 L1.096,20.776 C1.796,20.666 1.979,20.486 1.979,19.602 L1.979,3.743 Z"></path>
                    <path d="M49.112,16.855 C49.112,21.8 44.716,24.841 39.003,24.841 C32.586,24.841 28.755,22.239 28.755,16.343 L28.755,3.743 L26.812,3.593 L26.812,-3.55271368e-15 L37.143,-3.55271368e-15 L37.143,3.518 L35.936,3.629 C35.311,3.743 35.056,3.851 35.056,4.695 L35.056,16.562 C35.056,19.494 37.098,20.337 39.407,20.337 C41.606,20.337 43.366,19.202 43.366,16.711 L43.366,3.71 L41.644,3.558 L41.644,0.001 L51.133,0.001 L51.133,3.486 L50.031,3.594 C49.34,3.711 49.112,3.852 49.112,4.696 L49.112,16.855 L49.112,16.855 Z"></path>
                    <path d="M69.154,9.72 L73.976,4.513 C74.308,4.18 74.767,3.768 75.371,3.633 L76.324,3.467 L76.324,0.001 L67.066,0.001 L67.066,3.519 L68.339,3.633 L61.247,11.107 L61.247,4.585 C61.247,3.962 61.546,3.633 62.089,3.594 L63.009,3.519 L63.009,0.001 L53.003,0.001 L53.003,3.594 L54.985,3.744 L54.985,19.753 C54.985,20.372 54.692,20.705 54.137,20.743 L53.002,20.888 L53.002,24.367 L62.604,24.367 L62.604,20.813 L61.247,20.705 L61.247,17.645 L64.813,14.002 L67.792,19.787 C68.052,20.266 68.052,20.627 67.46,20.742 L66.319,20.887 L66.319,24.366 L77.346,24.366 L77.346,20.775 L74.76,20.482 L69.154,9.72 Z"></path>
                </g>
                <rect id="Rectangle" x="77.498" y="11.88" width="9.605" height="4.512"></rect>
                <g transform="translate(91.003000, 0.000000)">
                    <path d="M106.065,11.727 C107.715,11.727 109.569,10.839 109.569,8.106 C109.569,5.714 108.257,4.781 106.092,4.781 L104.043,4.781 L104.043,11.726 L106.065,11.726 L106.065,11.727 Z M95.739,21.391 L96.925,21.281 C97.622,21.173 97.773,20.987 97.773,20.11 L97.773,4.234 L95.779,4.087 L95.779,0.497 L107.855,0.497 C112.544,0.497 115.982,2.554 115.982,7.18 C115.982,11.324 113.728,12.924 111.271,13.516 C111.271,13.516 113.529,13.785 114.304,15.722 L116.115,21.172 L118.136,21.38 L118.136,24.873 L108.241,24.873 L108.241,21.391 L109.05,21.281 C109.636,21.173 109.687,20.805 109.427,20.255 L108.281,17.14 C107.988,16.28 106.676,15.726 105.508,15.726 L104.029,15.726 L104.029,21.21 L105.496,21.417 L105.496,24.874 L95.74,24.874 L95.74,21.391 L95.739,21.391 Z" id="Shape"></path>
                    <path d="M12.167,4.876 C8.503,4.876 6.265,7.329 6.265,12.464 C6.265,16.976 7.976,20.361 12.318,20.42 C13.763,20.436 14.914,20.223 14.914,20.223 L15.107,16.829 L19.537,16.829 L19.537,24.017 C17.582,24.748 14.881,25.332 11.953,25.332 C4.322,25.332 2.84217094e-14,21.08 2.84217094e-14,12.867 C2.84217094e-14,3.225 5.934,0 11.803,0 C14.699,0 17.555,0.62 19.426,1.539 L19.426,7.685 L14.998,8.286 L14.803,6.121 C14.803,5.573 14.77,5.28 14.295,5.133 C13.595,4.948 12.755,4.876 12.167,4.876 L12.167,4.876 Z" id="Path"></path>
                    <path d="M33.188,20.436 C36.854,20.436 37.844,16.536 37.844,12.832 C37.844,9.753 37.002,4.895 33.039,4.895 C29.484,4.895 28.223,8.795 28.223,12.463 C28.223,15.874 29.009,20.436 33.188,20.436 L33.188,20.436 Z M32.895,25.333 C26.002,25.333 21.971,21.081 21.971,12.724 C21.971,3.337 27.912,0.001 33.41,0.001 C39.168,0.001 44.1110002,3.447 44.1110002,12.724 C44.112,21.081 39.749,25.333 32.895,25.333 L32.895,25.333 Z" id="Shape"></path>
                    <path d="M54.942,20.155 L57.217,20.155 C59.891,20.155 60.842,19.072 60.842,17.018 C60.842,14.963 59.598,13.848 57.283,13.848 L54.941,13.848 L54.941,20.155 L54.942,20.155 Z M54.942,9.89 L56.63,9.89 C58.935,9.89 59.931,8.716 59.931,6.814 C59.931,4.865 58.757,4.099 56.742,4.099 L54.943,4.099 L54.943,9.89 L54.942,9.89 Z M58.096,0.497 C62.537,0.497 66.34,1.812 66.34,6.33 C66.34,9.001 64.84,10.87 62.643,11.75 C65.61,12.373 67.547,14.463 67.547,17.397 C67.547,22.275 64.07,24.874 57.621,24.874 L46.658,24.874 L46.658,21.395 L47.844,21.281 C48.541,21.173 48.686,20.987 48.686,20.11 L48.686,4.237 L46.692,4.088 L46.692,0.498 L58.096,0.498 L58.096,0.497 Z" id="Shape"></path>
                    <path d="M91.04,17.358 C91.04,22.311 87.042,25.353 81.329,25.353 C74.905,25.353 71.573,22.753 71.573,16.846 L71.573,4.234 L69.635,4.087 L69.635,0.497 L79.971,0.497 L79.971,4.016 L78.721,4.127 C78.1,4.235 77.846,4.345 77.846,5.189 L77.846,17.068 C77.846,19.999 79.418,20.84 81.727,20.84 C83.93,20.84 85.282,19.708 85.282,17.214 L85.282,4.198 L83.559,4.049 L83.559,0.497 L93.059,0.497 L93.059,3.979 L91.952,4.087 C91.261,4.198 91.04,4.344 91.04,5.189 L91.04,17.358 Z" id="Path"></path>
                    <path d="M134.003,20.151 L134.003,16.169 L131.765,16.023 L131.765,12.465 L141.665,12.465 L141.665,15.95 L140.712,16.06 C140.093,16.168 139.833,16.392 139.833,17.084 L139.833,23.566 C137.817,24.549 134.478,25.313 130.853,25.313 C123.816,25.313 119.374,21.209 119.374,12.74 C119.374,3.284 125.427,0.017 131.728,0.017 C134.812,0.017 137.818,0.712 139.539,1.595 L139.539,7.71 L135.016,8.211 L134.922,6.143 C134.922,5.592 134.846,5.296 134.369,5.152 C133.676,5.005 132.797,4.933 131.955,4.933 C127.631,4.933 125.637,8.011 125.637,12.523 C125.637,17.614 127.371,20.548 131.035,20.548 C132.026,20.55 133.122,20.484 134.003,20.151 L134.003,20.151 Z" id="Path"></path>
                </g>
            </g>
            <g id="Group">
                <path d="M19.992,56.558 L19.482,56.297 C18.3,55.694 14.126,53.454 9.965,49.828 C5.484,45.92 0.141,39.572 0.141,31.516 C0.141,30.459 0.133,9.08 0.127,5.966 L0.127,5.282 L0.733,4.964 C7.95,1.147 18.793,0.125 19.994,0.125 C22.029,0.125 32.376,1.387 39.142,4.964 L39.748,5.282 L39.748,5.966 C39.748,7.932 39.742,17.189 39.737,24.007 L39.734,31.517 C39.734,39.701 34.422,46.042 29.965,49.92 C25.857,53.5 21.685,55.709 20.503,56.301 L19.992,56.558 Z" id="Path" fill-opacity="0" fill="#FFFFFF"></path>
                <g transform="translate(3.067000, 23.211000)" fill="#000000" id="Path">
                    <path d="M0.872,1.642 L0.017,1.579 L0.017,0.001 L4.565,0.001 L4.565,1.546 L4.05,1.593 C3.773,1.643 3.659,1.693 3.659,2.061 L3.659,4.303 L7.158,4.303 L7.158,1.626 L6.369,1.563 L6.369,0.001 L10.82,0.001 L10.82,1.532 L10.336,1.579 C10.031,1.626 9.951,1.692 9.951,2.077 L9.951,9.075 L10.787,9.139 L10.787,10.722 L6.256,10.722 L6.256,9.172 L6.774,9.122 C7.079,9.074 7.159,8.992 7.159,8.609 L7.159,6.27 L3.66,6.27 L3.66,9.091 L4.496,9.154 L4.496,10.72 L0,10.72 L0,9.187 L0.485,9.137 C0.792,9.09 0.872,9.006 0.872,8.621 L0.872,1.642 Z"></path>
                    <path d="M21.614,7.414 C21.614,9.592 19.682,10.93 17.166,10.93 C14.345,10.93 12.657,9.786 12.657,7.19 L12.657,1.643 L11.799,1.58 L11.799,0.002 L16.347,0.002 L16.347,1.547 L15.818,1.594 C15.544,1.644 15.43,1.694 15.43,2.062 L15.43,7.285 C15.43,8.576 16.327,8.949 17.343,8.949 C18.312,8.949 19.084,8.448 19.084,7.351 L19.084,1.627 L18.323,1.564 L18.323,0.002 L22.503,0.002 L22.503,1.533 L22.019,1.58 C21.715,1.627 21.615,1.693 21.615,2.061 L21.615,7.414 L21.614,7.414 Z"></path>
                    <path d="M30.437,4.275 L32.557,1.983 C32.706,1.837 32.906,1.651 33.175,1.593 L33.593,1.521 L33.593,0.001 L29.515,0.001 L29.515,1.546 L30.079,1.593 L26.959,4.887 L26.959,2.013 C26.959,1.739 27.086,1.592 27.33,1.578 L27.728,1.545 L27.728,0 L23.327,0 L23.327,1.578 L24.199,1.639 L24.199,8.684 C24.199,8.963 24.072,9.107 23.828,9.122 L23.327,9.188 L23.327,10.718 L27.551,10.718 L27.551,9.155 L26.959,9.107 L26.959,7.759 L28.523,6.156 L29.835,8.703 C29.949,8.916 29.949,9.073 29.689,9.121 L29.188,9.187 L29.188,10.717 L34.041,10.717 L34.041,9.137 L32.903,9.006 L30.437,4.275 Z"></path>
                </g>
                <g transform="translate(3.388000, 3.937711)" fill="#000000" id="Path">
                    <path d="M30.534,5.58228931 L28.33,10.9382893 L28.33,12.7682893 C27.45,12.4222893 26.298,12.0352893 25.75,11.8572893 L25.061,8.57128931 L16.765,6.74928931 L15.046,10.5592893 C13.939,10.6642893 12.001,10.9992893 11.993,10.9992893 L11.995,8.13428931 L11.298,7.65528931 C11.298,7.65528931 11.663,7.25128931 11.755,7.07928931 C11.987,6.64428931 11.996,6.21228931 11.996,6.00228931 C11.996,4.30828931 9.984,3.46128931 9.984,3.46128931 L9.721,2.57528931 L9.721,2.26828931 C10.081,2.00228931 10.64,1.78628931 11.454,1.77528931 C12.935,1.76128931 12.99,2.07728931 14.079,2.26228931 C16.188,2.62228931 17.381,0.980289306 17.381,0.980289306 C17.381,0.980289306 15.25,1.74128931 14.123,1.12228931 C13.243,0.635289306 12.52,-0.0157106938 11.153,0.000289306202 C9.927,0.0172893062 9.337,0.582289306 9.337,0.582289306 L9.337,2.58128931 L9.068,3.46128931 C9.068,3.46128931 7.053,4.30828931 7.053,6.00228931 C7.053,6.21228931 7.061,6.64528931 7.294,7.07928931 C7.385,7.25028931 7.753,7.65528931 7.753,7.65528931 L7.053,8.13428931 L7.05,12.3612893 C6.211,12.7072893 5.309,13.1502893 4.672,13.4712893 L4.672,12.1062893 L5.204,11.2402893 L5.204,8.58828931 L4.29,8.53828931 L2.569,4.26128931 L0.914,8.54428931 L1.33226763e-15,8.59728931 L1.33226763e-15,11.2462893 L0.542,12.1132893 L0.542,17.7772893 L1.666,17.7772893 L1.666,11.7922893 L1.121,10.9232893 L1.121,9.65528931 L1.7,9.61928931 L2.589,7.31828931 L3.511,9.61628931 L4.081,9.64928931 L4.081,10.9222893 L3.549,11.7942893 L3.549,15.3402893 C3.696,15.2542893 5.91,13.9892893 8.175,13.1312893 L8.177,8.58028931 C8.177,8.58028931 8.642,8.24728931 8.781,8.08428931 C8.878,7.95928931 8.864,7.87428931 8.864,7.63028931 C8.864,7.35128931 8.723,7.19028931 8.485,6.96328931 C8.214,6.68128931 8.126,6.37128931 8.126,5.99728931 C8.126,4.98428931 9.526,4.31128931 9.526,4.31128931 C9.526,4.31128931 10.919,4.98328931 10.919,5.99728931 C10.919,6.37128931 10.833,6.68128931 10.562,6.96328931 C10.324,7.19028931 10.183,7.35128931 10.183,7.63028931 C10.183,7.87428931 10.169,7.96028931 10.266,8.08428931 C10.404,8.24728931 10.87,8.58028931 10.87,8.58028931 L10.867,12.3532893 C10.867,12.3532893 13.065,11.8602893 15.797,11.6202893 L17.414,8.04328931 L24.11,9.51028931 L24.783,12.7292893 C25.976,13.0692893 28.287,13.8702893 29.458,14.3872893 L29.458,11.1622893 L30.546,8.50728931 L31.656,11.1622893 L31.656,17.7702893 L32.777,17.7702893 L32.777,10.9332893 L30.534,5.58228931 Z"></path>
                    <path d="M30.102,31.5592893 C27.616,38.4522893 20.153,43.6092893 16.604,45.7352893 C13.058,43.6092893 5.595,38.4522893 3.109,31.5592893 L1.631,31.5592893 C4.214,40.4092893 16.505,47.3602893 16.605,47.3602893 C16.707,47.3602893 28.998,40.4092893 31.581,31.5592893 L30.102,31.5592893 Z"></path>
                </g>
                <path d="M38.6,31.516 C38.6,39.265 33.506,45.335 29.221,49.067 C25.174,52.591 21.072,54.748 19.997,55.288 C18.92,54.74 14.79,52.53 10.709,48.976 C6.405,45.222 1.275,39.146 1.275,31.516 C1.275,30.456 1.264,9.078 1.261,5.966 C8.276,2.257 18.806,1.26 19.993,1.26 C21.74,1.26 32.032,2.489 38.6121956,5.966 C38.614,9.077 38.6,30.456 38.6,31.516 L38.6,31.516 Z M19.995,-1.13624388e-16 C14.799,0.138 5.146,2.253 0,5.21 C0,6.17 0.014,30.375 0.014,31.516 C0.014,35.113 1.06,38.67 3.131,42.1 C4.764,44.818 7.048,47.459 9.907,49.948 C14.752,54.17 19.521,56.467 19.72,56.561 L19.991,56.691 L20.262,56.564 C20.461,56.472 25.206,54.233 30.026,50.034 C32.872,47.567 35.139,44.927 36.772,42.196 C38.823,38.758 39.864,35.165 39.864,31.516 C39.864,30.375 39.878,5.612 39.878,5.21 C34.583,2.081 24.521,0.138 19.995,-1.13624388e-16 Z" id="Shape" fill="#000000"></path>
            </g>
        </g>
    </g>
</svg>