<?xml version="1.0" encoding="UTF-8"?>
<svg width="473px" height="121px" viewBox="0 0 473 121" version="1.1" xmlns="http://www.w3.org/2000/svg" xmlns:xlink="http://www.w3.org/1999/xlink">
    <title>Logo_Nordkirche_violett</title>
    <g id="Page-1" stroke="none" stroke-width="1" fill="none" fill-rule="evenodd">
        <g id="Logo_Nordkirche_violett" transform="translate(0.806000, 0.634000)" fill="#000000" fill-rule="nonzero">
            <path d="M105.771,50.831 L58.844,48.007 C58.786,48.005 58.718,48 58.658,47.974 C58.344,47.749 58.066,47.473 57.837,47.149 C57.824,47.097 57.816,47.034 57.802,46.976 L54.999,0.059 C54.304,0.029 53.617,7.10542736e-15 52.899,7.10542736e-15 C52.227,7.10542736e-15 51.521,0.029 50.83,0.059 L48.021,46.976 C48.016,47.034 48.009,47.097 47.984,47.149 C47.781,47.473 47.488,47.743 47.171,47.974 C47.121,47.991 47.054,48.005 46.985,48.005 L0.052,50.831 C0.041,51.518 3.55271368e-14,52.21 3.55271368e-14,52.908 C3.55271368e-14,53.607 0.041,54.305 0.052,55.002 L46.985,57.818 C47.042,57.818 47.11,57.838 47.167,57.84 C47.478,58.074 47.774,58.349 47.984,58.674 C47.994,58.735 48.016,58.787 48.016,58.846 L50.823,119.904 C51.513,119.934 52.227,119.956 52.899,119.956 C53.617,119.956 54.304,119.935 54.999,119.904 L57.815,58.846 C57.815,58.778 57.823,58.713 57.84,58.649 C58.065,58.339 58.328,58.074 58.642,57.839 C58.709,57.836 58.774,57.817 58.843,57.817 L105.77,54.994 C105.793,54.305 105.821026,53.606 105.821026,52.907 C105.821026,52.21 105.794,51.518 105.771,50.831" id="Path"></path>
            <g id="Group" transform="translate(158.526000, 28.994000)">
                <polygon id="Path" points="12.454 3.066 3.611 3.066 3.611 6.63 11.732 6.63 11.732 9.491 3.611 9.491 3.611 13.553 12.625 13.553 12.625 16.616 0 16.616 0 0 12.454 0"></polygon>
                <path d="M22.128,16.616 L18.42,16.616 L14.255,4.587 L17.719,4.587 L19.261,9.393 C19.833,11.312 20.137,12.509 20.307,13.602 C20.533,12.41 20.733,11.585 21.38,9.464 L22.896,4.587 L26.21,4.587 L22.128,16.616 Z" id="Path"></path>
                <path d="M35.385,10.74 C34.861,11.059 34.439,11.185 33.068,11.36 C31.227,11.638 30.629,12.085 30.629,13.181 C30.629,14.205 31.327,14.798 32.471,14.798 C33.417,14.798 34.242,14.448 34.839,13.804 C35.263,13.33 35.385,12.928 35.385,12.106 L35.385,10.74 Z M35.635,16.616 C35.46,16.069 35.438,15.87 35.438,15.451 C34.415,16.443 33.094,16.936 31.452,16.936 C28.81,16.936 27.239,15.569 27.239,13.305 C27.239,11.786 27.988,10.688 29.434,10.115 C30.079,9.868 30.778,9.716 32.498,9.491 C35.086,9.167 35.412,9.019 35.412,8.05 C35.412,6.976 34.713,6.477 33.247,6.477 C31.724,6.477 31.104,6.951 30.879,8.273 L27.763,8.273 C27.962,5.632 29.857,4.264 33.321,4.264 C35.21,4.264 36.655,4.66 37.578,5.407 C38.401,6.078 38.625,6.702 38.625,8.448 C38.625,8.747 38.625,8.747 38.598,10.289 C38.598,10.858 38.598,10.858 38.577,12.477 L38.577,13.376 C38.577,15.094 38.673,15.819 39.001,16.614 L35.635,16.614 L35.635,16.616 Z" id="Shape"></path>
                <path d="M44.933,6.255 C45.98,4.859 47.199,4.265 48.942,4.265 C50.49,4.265 51.758,4.883 52.404,5.908 C52.877,6.679 53.049,7.477 53.049,9.046 L53.049,16.617 L49.763,16.617 L49.763,9.717 C49.763,8.847 49.716,8.398 49.566,7.995 C49.314,7.35 48.594,6.951 47.699,6.951 C46.678,6.951 45.802,7.453 45.406,8.274 C45.182,8.771 45.082,9.343 45.082,10.385 L45.082,16.616 L41.794,16.616 L41.794,4.583 L44.932,4.583 L44.932,6.255 L44.933,6.255 Z" id="Path"></path>
                <path d="M59.264,10.265 C59.264,12.454 60.284,13.802 62.004,13.802 C63.699,13.802 64.77,12.433 64.77,10.265 C64.77,8.175 63.699,6.83 62.055,6.83 C60.284,6.83 59.264,8.096 59.264,10.265 M67.933,15.122 C67.933,17.013 67.735,17.988 67.136,18.909 C66.165,20.38 64.469,21.1 61.982,21.1 C58.519,21.1 56.677,19.857 56.352,17.338 L59.664,17.338 C59.914,18.413 60.636,18.883 62.055,18.883 C63.973,18.883 64.747,17.988 64.747,15.77 L64.747,14.402 C63.898,15.646 62.702,16.244 61.086,16.244 C57.943,16.244 55.955,13.954 55.955,10.342 C55.955,6.678 58.043,4.264 61.206,4.264 C62.85,4.264 63.845,4.784 64.794,6.178 L64.794,4.587 L67.933,4.587 L67.933,15.122 L67.933,15.122 Z" id="Shape"></path>
                <path d="M79.571,9.343 C79.373,7.598 78.452,6.631 76.983,6.631 C75.514,6.631 74.466,7.674 74.294,9.343 L79.571,9.343 Z M82.737,12.881 C82.091,15.348 79.901,16.937 77.082,16.937 C73.396,16.937 70.929,14.425 70.929,10.663 C70.929,6.952 73.498,4.266 76.983,4.266 C80.568,4.266 82.938,6.929 82.938,10.962 L82.938,11.464 L74.294,11.464 C74.37,13.481 75.34,14.574 77.108,14.574 C78.328,14.574 79.075,14.078 79.571,12.882 L82.737,12.882 L82.737,12.881 Z" id="Shape"></path>
                <rect id="Rectangle" x="85.837" y="0" width="3.283" height="16.616"></rect>
                <path d="M92.791,16.616 L96.074,16.616 L96.074,4.587 L92.791,4.587 L92.791,16.616 Z M92.791,2.818 L96.074,2.818 L96.074,0.003 L92.791,0.003 L92.791,2.818 Z" id="Shape"></path>
                <path d="M106.368,8.072 C106.195,6.927 105.548,6.477 104.103,6.477 C102.929,6.477 102.256,6.905 102.256,7.65 C102.256,8.445 102.658,8.671 105.216,9.192 C108.709,9.893 109.927,10.863 109.927,12.901 C109.927,15.396 107.812,16.941 104.348,16.941 C100.789,16.941 98.871,15.522 98.694,12.705 L101.863,12.705 C102.009,14.102 102.783,14.723 104.398,14.723 C105.744,14.723 106.617,14.151 106.617,13.226 C106.617,12.41 106.145,12.134 103.9,11.637 C101.71,11.136 101.141,10.961 100.415,10.563 C99.495,10.042 98.951,9.067 98.951,7.92 C98.951,5.604 100.862,4.264 104.18,4.264 C106.196,4.264 107.714,4.784 108.608,5.778 C109.13,6.379 109.355,6.975 109.459,8.071 L106.368,8.071 L106.368,8.072 Z" id="Path"></path>
                <path d="M124.061,12.008 C123.636,15.119 121.49,16.941 118.281,16.941 C114.57,16.941 112.151,14.474 112.151,10.713 C112.151,6.801 114.595,4.264 118.33,4.264 C121.546,4.264 123.708,6.002 123.987,8.793 L120.746,8.793 C120.499,7.497 119.624,6.751 118.352,6.751 C116.535,6.751 115.467,8.169 115.467,10.636 C115.467,13.056 116.486,14.45 118.28,14.45 C119.699,14.45 120.596,13.601 120.846,12.007 L124.061,12.007 L124.061,12.008 Z" id="Path"></path>
                <path d="M130.121,4.76 C130.121,4.859 130.121,4.883 130.094,6.234 C131.146,4.837 132.24,4.265 133.908,4.265 C135.503,4.265 136.77,4.859 137.471,5.957 C137.917,6.678 138.094,7.524 138.094,8.966 L138.094,16.616 L134.809,16.616 L134.809,9.542 C134.809,8.495 134.707,8.05 134.41,7.65 C134.035,7.199 133.437,6.951 132.687,6.951 C131.661,6.951 130.868,7.453 130.445,8.321 C130.196,8.847 130.122,9.343 130.122,10.74 L130.122,16.616 L126.835,16.616 L126.835,0.003 L130.122,0.003 L130.122,4.76 L130.121,4.76 Z" id="Path"></path>
                <rect id="Rectangle" x="140.221" y="8.948" width="6.302" height="2.962"></rect>
                <polygon id="Path" points="160.622 16.616 148.89 16.616 148.89 0 152.504 0 152.504 13.553 160.622 13.553"></polygon>
                <path d="M174.428,16.616 L171.289,16.616 L171.289,14.92 C170.316,16.292 169.046,16.937 167.303,16.937 C165.833,16.937 164.613,16.395 163.895,15.421 C163.369,14.697 163.141,13.779 163.141,12.209 L163.141,4.588 L166.436,4.588 L166.436,11.237 C166.436,12.654 166.507,13.052 166.781,13.48 C167.135,13.976 167.729,14.25 168.523,14.25 C169.573,14.25 170.393,13.752 170.819,12.856 C171.068,12.381 171.142,11.76 171.142,10.564 L171.142,4.588 L174.428,4.588 L174.428,16.616 Z" id="Path"></path>
                <path d="M184.201,6.801 L181.762,6.801 L181.762,12.478 C181.762,13.975 181.963,14.226 183.202,14.226 C183.504,14.226 183.776,14.202 184.201,14.151 L184.201,16.664 C183.377,16.768 182.856,16.792 182.183,16.792 C180.416,16.792 179.495,16.443 178.945,15.57 C178.547,14.971 178.469,14.425 178.469,12.361 L178.469,6.802 L176.456,6.802 L176.456,4.588 L178.469,4.588 L178.469,0.949 L181.761,0.949 L181.761,4.588 L184.2,4.588 L184.2,6.801 L184.201,6.801 Z" id="Path"></path>
                <path d="M190.186,4.76 C190.186,4.859 190.186,4.883 190.164,6.234 C191.207,4.837 192.302,4.265 193.969,4.265 C195.566,4.265 196.834,4.859 197.534,5.957 C197.98,6.678 198.156,7.524 198.156,8.966 L198.156,16.616 L194.871,16.616 L194.871,9.542 C194.871,8.495 194.769,8.05 194.469,7.65 C194.097,7.199 193.499,6.951 192.75,6.951 C191.725,6.951 190.933,7.453 190.506,8.321 C190.26,8.847 190.187,9.343 190.187,10.74 L190.187,16.616 L186.895,16.616 L186.895,0.003 L190.187,0.003 L190.187,4.76 L190.186,4.76 Z" id="Path"></path>
                <path d="M209.669,9.343 C209.473,7.598 208.551,6.631 207.079,6.631 C205.609,6.631 204.571,7.674 204.392,9.343 L209.669,9.343 Z M212.836,12.881 C212.188,15.348 209.997,16.937 207.178,16.937 C203.498,16.937 201.029,14.425 201.029,10.663 C201.029,6.952 203.599,4.266 207.08,4.266 C210.668,4.266 213.035,6.929 213.035,10.962 L213.035,11.464 L204.393,11.464 C204.467,13.481 205.436,14.574 207.204,14.574 C208.429,14.574 209.174,14.078 209.67,12.882 L212.836,12.882 L212.836,12.881 Z" id="Shape"></path>
                <path d="M223.707,7.427 C223.107,7.326 222.782,7.302 222.408,7.302 C221.211,7.302 220.191,7.876 219.669,8.866 C219.348,9.464 219.221,10.24 219.221,11.585 L219.221,16.616 L215.934,16.616 L215.934,4.587 L219.071,4.587 L219.071,6.801 C219.944,5.131 221.212,4.337 222.959,4.337 C223.207,4.337 223.355,4.337 223.708,4.387 L223.708,7.427 L223.707,7.427 Z" id="Path"></path>
                <path d="M225.896,16.616 L229.19,16.616 L229.19,4.587 L225.896,4.587 L225.896,16.616 Z M225.896,2.818 L229.19,2.818 L229.19,0.003 L225.896,0.003 L225.896,2.818 Z" id="Shape"></path>
                <path d="M239.476,8.072 C239.305,6.927 238.661,6.477 237.211,6.477 C236.041,6.477 235.369,6.905 235.369,7.65 C235.369,8.445 235.769,8.671 238.332,9.192 C241.825,9.893 243.038,10.863 243.038,12.901 C243.038,15.396 240.92,16.941 237.464,16.941 C233.901,16.941 231.985,15.522 231.809,12.705 L234.971,12.705 C235.12,14.102 235.896,14.723 237.51,14.723 C238.859,14.723 239.727,14.151 239.727,13.226 C239.727,12.41 239.258,12.134 237.013,11.637 C234.824,11.136 234.248,10.961 233.534,10.563 C232.603,10.042 232.057,9.067 232.057,7.92 C232.057,5.604 233.975,4.264 237.287,4.264 C239.305,4.264 240.824,4.784 241.721,5.778 C242.244,6.379 242.471,6.975 242.568,8.071 L239.476,8.071 L239.476,8.072 Z" id="Path"></path>
                <path d="M257.173,12.008 C256.749,15.119 254.605,16.941 251.395,16.941 C247.685,16.941 245.266,14.474 245.266,10.713 C245.266,6.801 247.707,4.264 251.441,4.264 C254.66,4.264 256.824,6.002 257.099,8.793 L253.859,8.793 C253.616,7.497 252.735,6.751 251.469,6.751 C249.649,6.751 248.581,8.169 248.581,10.636 C248.581,13.056 249.599,14.45 251.394,14.45 C252.812,14.45 253.711,13.601 253.96,12.007 L257.173,12.007 L257.173,12.008 Z" id="Path"></path>
                <path d="M263.233,4.76 C263.233,4.859 263.233,4.883 263.209,6.234 C264.261,4.837 265.354,4.265 267.021,4.265 C268.617,4.265 269.885,4.859 270.582,5.957 C271.031,6.678 271.202,7.524 271.202,8.966 L271.202,16.616 L267.918,16.616 L267.918,9.542 C267.918,8.495 267.821,8.05 267.523,7.65 C267.146,7.199 266.547,6.951 265.8,6.951 C264.779,6.951 263.982,7.453 263.559,8.321 C263.314,8.847 263.234,9.343 263.234,10.74 L263.234,16.616 L259.947,16.616 L259.947,0.003 L263.234,0.003 L263.234,4.76 L263.233,4.76 Z" id="Path"></path>
                <path d="M282.72,9.343 C282.525,7.598 281.606,6.631 280.128,6.631 C278.663,6.631 277.612,7.674 277.441,9.343 L282.72,9.343 Z M285.883,12.881 C285.237,15.348 283.047,16.937 280.234,16.937 C276.545,16.937 274.079,14.425 274.079,10.663 C274.079,6.952 276.646,4.266 280.129,4.266 C283.721,4.266 286.086,6.929 286.086,10.962 L286.086,11.464 L277.442,11.464 C277.517,13.481 278.487,14.574 280.255,14.574 C281.476,14.574 282.224,14.078 282.72,12.882 L285.883,12.882 L285.883,12.881 Z" id="Shape"></path>
                <path d="M8.193,37.729 L15.317,47.771 L10.734,47.771 L5.705,40.316 L3.609,42.412 L3.609,47.771 L0,47.771 L0,31.153 L3.609,31.153 L3.609,36.108 C3.609,36.535 3.609,36.535 3.587,38.206 C4.557,37.03 4.607,36.98 4.979,36.585 L10.111,31.154 L14.721,31.154 L8.193,37.729 Z" id="Path"></path>
                <path d="M17.222,47.771 L20.507,47.771 L20.507,35.737 L17.222,35.737 L17.222,47.771 Z M17.222,33.965 L20.507,33.965 L20.507,31.154 L17.222,31.154 L17.222,33.965 Z" id="Shape"></path>
                <path d="M31.946,38.576 C31.349,38.474 31.022,38.449 30.65,38.449 C29.453,38.449 28.434,39.026 27.911,40.019 C27.585,40.617 27.464,41.389 27.464,42.737 L27.464,47.771 L24.175,47.771 L24.175,35.737 L27.313,35.737 L27.313,37.955 C28.184,36.28 29.454,35.486 31.2,35.486 C31.447,35.486 31.599,35.486 31.947,35.539 L31.947,38.576 L31.946,38.576 Z" id="Path"></path>
                <path d="M45.303,43.16 C44.882,46.271 42.741,48.094 39.527,48.094 C35.813,48.094 33.397,45.625 33.397,41.864 C33.397,37.956 35.839,35.413 39.576,35.413 C42.788,35.413 44.953,37.155 45.229,39.946 L41.992,39.946 C41.743,38.651 40.872,37.903 39.603,37.903 C37.782,37.903 36.709,39.323 36.709,41.789 C36.709,44.207 37.729,45.601 39.527,45.601 C40.946,45.601 41.839,44.752 42.09,43.162 L45.303,43.162 L45.303,43.16 Z" id="Path"></path>
                <path d="M51.365,35.91 C51.365,36.01 51.365,36.034 51.339,37.379 C52.389,35.984 53.484,35.412 55.151,35.412 C56.746,35.412 58.017,36.01 58.716,37.107 C59.161,37.828 59.335,38.673 59.335,40.121 L59.335,47.771 L56.052,47.771 L56.052,40.691 C56.052,39.644 55.949,39.203 55.652,38.8 C55.277,38.35 54.68,38.105 53.932,38.105 C52.912,38.105 52.112,38.603 51.691,39.47 C51.441,39.997 51.366,40.49 51.366,41.888 L51.366,47.771 L48.08,47.771 L48.08,31.156 L51.366,31.156 L51.366,35.91 L51.365,35.91 Z" id="Path"></path>
                <path d="M70.851,40.49 C70.654,38.748 69.731,37.781 68.262,37.781 C66.794,37.781 65.744,38.826 65.573,40.49 L70.851,40.49 Z M74.014,44.03 C73.369,46.498 71.177,48.092 68.362,48.092 C64.676,48.092 62.208,45.575 62.208,41.815 C62.208,38.106 64.775,35.413 68.262,35.413 C71.848,35.413 74.215,38.077 74.215,42.114 L74.215,42.612 L65.573,42.612 C65.646,44.633 66.618,45.724 68.386,45.724 C69.607,45.724 70.355,45.229 70.851,44.031 L74.014,44.031 L74.014,44.03 Z" id="Shape"></path>
                <path d="M84.095,47.771 L87.378,47.771 L87.378,35.737 L84.095,35.737 L84.095,47.771 Z M84.095,33.965 L87.378,33.965 L87.378,31.154 L84.095,31.154 L84.095,33.965 Z" id="Shape"></path>
                <path d="M94.182,37.406 C95.23,36.01 96.45,35.412 98.19,35.412 C99.738,35.412 101.009,36.034 101.657,37.058 C102.133,37.829 102.303,38.622 102.303,40.199 L102.303,47.772 L99.017,47.772 L99.017,40.866 C99.017,39.999 98.965,39.55 98.818,39.146 C98.57,38.502 97.845,38.106 96.95,38.106 C95.93,38.106 95.054,38.604 94.658,39.424 C94.432,39.918 94.332,40.49 94.332,41.541 L94.332,47.771 L91.05,47.771 L91.05,35.734 L94.184,35.734 L94.184,37.406 L94.182,37.406 Z" id="Path"></path>
                <path d="M127.05,47.771 L123.416,47.771 L118.455,39.748 C116.864,37.107 116.864,37.08 116.363,36.037 C116.466,37.156 116.511,38.975 116.511,40.691 L116.511,47.771 L113.024,47.771 L113.024,31.153 L116.717,31.153 L121.546,39.001 C122.618,40.765 123.338,42.011 123.714,42.833 C123.638,41.616 123.561,39.07 123.561,38.075 L123.561,31.153 L127.049,31.153 L127.049,47.771 L127.05,47.771 Z" id="Path"></path>
                <path d="M133.512,41.766 C133.512,44.201 134.61,45.653 136.455,45.653 C138.274,45.653 139.339,44.201 139.339,41.739 C139.339,39.325 138.243,37.8559995 136.455,37.8559995 C134.584,37.855 133.512,39.3 133.512,41.766 M142.653,41.738 C142.653,45.575 140.189,48.092 136.456,48.092 C132.692,48.092 130.203,45.551 130.203,41.766 C130.203,37.93 132.719,35.412 136.551,35.412 C140.189,35.412 142.653,37.955 142.653,41.738" id="Shape"></path>
                <path d="M153.372,38.576 C152.771,38.474 152.453,38.449 152.076,38.449 C150.886,38.449 149.862,39.026 149.337,40.019 C149.015,40.617 148.891,41.389 148.891,42.737 L148.891,47.771 L145.604,47.771 L145.604,35.737 L148.741,35.737 L148.741,37.955 C149.616,36.28 150.887,35.486 152.629,35.486 C152.877,35.486 153.021,35.486 153.373,35.539 L153.373,38.576 L153.372,38.576 Z" id="Path"></path>
                <path d="M158.235,41.662 C158.235,44.006 159.304,45.399 161.101,45.399 C162.92,45.399 163.994,44.03 163.994,41.689 C163.994,39.374 162.895,37.955 161.129,37.955 C159.282,37.955 158.235,39.3 158.235,41.662 M167.153,47.771 L164.013,47.771 L164.013,46.219 C163.221,47.49 162.025,48.091 160.377,48.091 C157.064,48.091 154.926,45.595 154.926,41.689 C154.926,37.88 157.015,35.39 160.202,35.39 C161.798,35.39 163.092,36.036 163.864,37.205 L163.864,31.153 L167.152,31.153 L167.152,47.771 L167.153,47.771 Z" id="Shape"></path>
                <path d="M173.491,41.662 C173.491,44.006 174.56,45.399 176.352,45.399 C178.174,45.399 179.248,44.03 179.248,41.689 C179.248,39.374 178.148,37.955 176.38,37.955 C174.536,37.955 173.491,39.3 173.491,41.662 M182.408,47.771 L179.27,47.771 L179.27,46.219 C178.472,47.49 177.275,48.091 175.634,48.091 C172.32,48.091 170.176,45.595 170.176,41.689 C170.176,37.88 172.265,35.39 175.456,35.39 C177.05,35.39 178.341,36.036 179.115,37.205 L179.115,31.153 L182.407,31.153 L182.407,47.771 L182.408,47.771 Z" id="Shape"></path>
                <path d="M194.022,40.49 C193.821,38.748 192.903,37.781 191.434,37.781 C189.965,37.781 188.913,38.826 188.742,40.49 L194.022,40.49 Z M197.182,44.03 C196.541,46.498 194.344,48.092 191.536,48.092 C187.844,48.092 185.379,45.575 185.379,41.815 C185.379,38.106 187.948,35.413 191.435,35.413 C195.022,35.413 197.386,38.077 197.386,42.114 L197.386,42.612 L188.742,42.612 C188.819,44.633 189.787,45.724 191.558,45.724 C192.774,45.724 193.525,45.229 194.022,44.031 L197.182,44.031 L197.182,44.03 Z" id="Shape"></path>
                <path d="M211.466,47.771 L208.326,47.771 L208.326,46.071 C207.354,47.443 206.086,48.092 204.339,48.092 C202.874,48.092 201.652,47.546 200.931,46.572 C200.41,45.847 200.182,44.929 200.182,43.359 L200.182,35.737 L203.476,35.737 L203.476,42.384 C203.476,43.807 203.545,44.199 203.818,44.631 C204.174,45.127 204.769,45.399 205.566,45.399 C206.613,45.399 207.431,44.902 207.859,44.005 C208.107,43.531 208.181,42.911 208.181,41.716 L208.181,35.737 L211.466,35.737 L211.466,47.771 L211.466,47.771 Z" id="Path"></path>
                <path d="M221.241,37.955 L218.802,37.955 L218.802,43.631 C218.802,45.128 219.004,45.375 220.243,45.375 C220.544,45.375 220.816,45.351 221.241,45.299 L221.241,47.815 C220.417,47.919 219.896,47.942 219.226,47.942 C217.454,47.942 216.536,47.592 215.988,46.721 C215.59,46.123 215.51,45.575 215.51,43.511 L215.51,37.955 L213.496,37.955 L213.496,35.737 L215.51,35.737 L215.51,32.102 L218.801,32.102 L218.801,35.737 L221.24,35.737 L221.24,37.955 L221.241,37.955 Z" id="Path"></path>
                <path d="M230.563,39.223 C230.39,38.077 229.74,37.632 228.291,37.632 C227.125,37.632 226.454,38.057 226.454,38.801 C226.454,39.596 226.855,39.819 229.415,40.344 C232.902,41.045 234.122,42.015 234.122,44.055 C234.122,46.547 232.008,48.094 228.544,48.094 C224.985,48.094 223.066,46.675 222.892,43.856 L226.053,43.856 C226.205,45.251 226.974,45.876 228.599,45.876 C229.939,45.876 230.809,45.3 230.809,44.38 C230.809,43.558 230.336,43.284 228.093,42.788 C225.9,42.287 225.326,42.114 224.609,41.718 C223.688,41.193 223.141,40.222 223.141,39.072 C223.141,36.758 225.06,35.413 228.371,35.413 C230.391,35.413 231.909,35.936 232.802,36.934 C233.328,37.532 233.552,38.132 233.652,39.224 L230.563,39.224 L230.563,39.223 Z" id="Path"></path>
                <path d="M248.257,43.16 C247.831,46.271 245.693,48.094 242.477,48.094 C238.762,48.094 236.348,45.625 236.348,41.864 C236.348,37.956 238.79,35.413 242.526,35.413 C245.737,35.413 247.906,37.155 248.18,39.946 L244.943,39.946 C244.697,38.651 243.822,37.903 242.554,37.903 C240.735,37.903 239.66,39.323 239.66,41.789 C239.66,44.207 240.682,45.601 242.476,45.601 C243.898,45.601 244.788,44.752 245.039,43.162 L248.257,43.162 L248.257,43.16 Z" id="Path"></path>
                <path d="M254.313,35.91 C254.313,36.01 254.313,36.034 254.292,37.379 C255.34,35.984 256.438,35.412 258.101,35.412 C259.7,35.412 260.967,36.01 261.666,37.107 C262.117,37.828 262.284,38.673 262.284,40.121 L262.284,47.771 L259.004,47.771 L259.004,40.691 C259.004,39.644 258.9,39.203 258.604,38.8 C258.228,38.35 257.631,38.105 256.883,38.105 C255.86,38.105 255.064,38.603 254.642,39.47 C254.391,39.997 254.314,40.49 254.314,41.888 L254.314,47.771 L251.031,47.771 L251.031,31.156 L254.314,31.156 L254.314,35.91 L254.313,35.91 Z" id="Path"></path>
                <rect id="Rectangle" x="265.857" y="31.154" width="3.285" height="16.618"></rect>
                <path d="M280.134,41.889 C279.609,42.212 279.189,42.336 277.817,42.511 C275.976,42.787 275.375,43.238 275.375,44.332 C275.375,45.351 276.075,45.949 277.217,45.949 C278.165,45.949 278.992,45.595 279.586,44.955 C280.012,44.48 280.135,44.076 280.135,43.256 L280.135,41.889 L280.134,41.889 Z M280.383,47.771 C280.205,47.222 280.186,47.019 280.186,46.593 C279.16,47.591 277.842,48.091 276.194,48.091 C273.555,48.091 271.987,46.72 271.987,44.454 C271.987,42.934 272.733,41.839 274.183,41.262 C274.824,41.017 275.525,40.866 277.246,40.638 C279.835,40.316 280.161,40.17 280.161,39.202 C280.161,38.13 279.459,37.631 277.99,37.631 C276.469,37.631 275.845,38.105 275.629,39.42 L272.513,39.42 C272.708,36.78 274.603,35.411 278.065,35.411 C279.956,35.411 281.406,35.81 282.326,36.559 C283.148,37.229 283.371,37.854 283.371,39.599 C283.371,39.9 283.371,39.9 283.348,41.44 C283.348,42.01 283.348,42.01 283.324,43.629 L283.324,44.527 C283.324,46.245 283.423,46.967 283.749,47.769 L280.383,47.769 L280.383,47.771 Z" id="Shape"></path>
                <path d="M289.682,37.406 C290.725,36.01 291.952,35.412 293.689,35.412 C295.234,35.412 296.505,36.034 297.153,37.058 C297.631,37.829 297.799,38.622 297.799,40.199 L297.799,47.772 L294.515,47.772 L294.515,40.866 C294.515,39.999 294.46,39.55 294.315,39.146 C294.063,38.502 293.347,38.106 292.446,38.106 C291.428,38.106 290.552,38.604 290.156,39.424 C289.932,39.918 289.834,40.49 289.834,41.541 L289.834,47.771 L286.547,47.771 L286.547,35.734 L289.684,35.734 L289.684,37.406 L289.682,37.406 Z" id="Path"></path>
                <path d="M304.035,41.662 C304.035,44.006 305.109,45.399 306.902,45.399 C308.72,45.399 309.791,44.03 309.791,41.689 C309.791,39.374 308.695,37.955 306.926,37.955 C305.084,37.955 304.035,39.3 304.035,41.662 M312.953,47.771 L309.815,47.771 L309.815,46.219 C309.018,47.49 307.824,48.091 306.18,48.091 C302.867,48.091 300.721,45.595 300.721,41.689 C300.721,37.88 302.818,35.39 306.008,35.39 C307.602,35.39 308.891,36.036 309.664,37.205 L309.664,31.153 L312.952,31.153 L312.952,47.771 L312.953,47.771 Z" id="Shape"></path>
            </g>
        </g>
    </g>
</svg>