<?xml version="1.0" encoding="UTF-8"?>
<svg width="133px" height="59px" viewBox="0 0 133 59" version="1.1" xmlns="http://www.w3.org/2000/svg" xmlns:xlink="http://www.w3.org/1999/xlink">
    <title>MINI_logo</title>
    <g id="Page-1" stroke="none" stroke-width="1" fill="none" fill-rule="evenodd">
        <g id="MINI_logo" transform="translate(0.000000, 0.010000)" fill="#120A08" fill-rule="nonzero">
            <path d="M66.145593,0 C56.2436501,0.00168257496 47.0267462,5.05471718 41.700098,13.40189 L0,13.40189 L4.151328,17.55321 L39.533896,17.55321 C38.8623392,19.115564 38.3294864,20.733952 37.941496,22.38967 L8.987776,22.38967 L13.088464,26.49035 L37.270232,26.49035 C37.1908561,27.3262543 37.1478159,28.1652112 37.141233,29.00485 C37.1488724,29.780234 37.1876028,30.5549998 37.257331,31.32728 L17.925389,31.32728 L22.026077,35.42797 L37.887986,35.42797 C38.2557004,37.0817 38.7675952,38.7000341 39.417799,40.26441 L26.862525,40.26441 L31.013853,44.41574 L41.615055,44.41574 C46.912267,52.8616596 56.1759484,57.9950804 66.145593,58.00921 C76.1154098,57.9952467 85.3793114,52.8618051 90.676615,44.41574 L101.277825,44.41574 L105.429145,40.26441 L92.873865,40.26441 C93.5240712,38.7000343 94.0359683,37.0817002 94.403685,35.42797 L110.265595,35.42797 L114.366275,31.32728 L95.034345,31.32728 C95.1040705,30.5549997 95.1427983,29.7802339 95.150435,29.00485 C95.1440114,28.1652182 95.101131,27.3262613 95.021915,26.49035 L119.203205,26.49035 L123.303885,22.38967 L94.350175,22.38967 C93.9621846,20.733952 93.4293318,19.115564 92.757775,17.55321 L128.140345,17.55321 L132.291665,13.40189 L90.591575,13.40189 C85.2648337,5.05457139 76.0477089,0.00151632652 66.145593,0 L66.145593,0 Z M66.145593,3.93157 C72.7954421,3.93157 79.1729316,6.57320802 83.8750862,11.2753603 C88.5772407,15.9775126 91.218885,22.3550009 91.218885,29.00485 C91.218885,35.6546991 88.5772407,42.0321874 83.8750862,46.7343397 C79.1729316,51.436492 72.7954421,54.07813 66.145593,54.07813 C52.2980023,54.07813 41.07231,42.8524407 41.07231,29.00485 C41.07231,15.1572593 52.2980023,3.93157 66.145593,3.93157 L66.145593,3.93157 Z M46.19972,22.50624 L46.19972,35.50297 L48.910101,35.50297 L48.910101,25.27252 L51.769066,35.50297 L54.578343,35.50297 L57.446866,25.27252 L57.446866,35.50297 L60.157724,35.50297 L60.157724,22.50624 L55.780887,22.50624 L53.188515,31.37171 L50.566522,22.50624 L46.19972,22.50624 Z M62.986589,22.50624 L62.986589,35.50297 L65.904321,35.50297 L65.904321,22.50624 L62.986589,22.50624 Z M68.703567,22.50624 L68.703567,35.50297 L71.414424,35.50297 L71.414424,27.02784 L77.240336,35.50297 L80.168095,35.50297 L80.168095,22.50624 L77.457245,22.50624 L77.457245,31.18538 L71.542944,22.50624 L68.703567,22.50624 Z M83.174215,22.50624 L83.174215,35.50297 L86.091945,35.50297 L86.091945,22.50624 L83.174215,22.50624 Z" id="circle828"></path>
        </g>
    </g>
</svg>