<?xml version="1.0" encoding="UTF-8"?>
<svg width="380px" height="76px" viewBox="0 0 380 76" version="1.1" xmlns="http://www.w3.org/2000/svg" xmlns:xlink="http://www.w3.org/1999/xlink">
    <title>Die_Sparkasse_Bremen_Logo</title>
    <g id="Page-1" stroke="none" stroke-width="1" fill="none" fill-rule="evenodd">
        <g id="Die_Sparkasse_Bremen_Logo" transform="translate(-0.000027, 0.462271)" fill="#000000" fill-rule="nonzero">
            <g id="g3569" transform="translate(189.999998, 37.537714) scale(-1, 1) rotate(-180.000000) translate(-189.999998, -37.537714) translate(0.000000, 0.000000)">
                <polygon id="path3107" points="148.710797 18.3354267 148.710797 20.1839681 139.897914 20.1839681 139.897914 4.71633547 142.125181 4.71633547 142.125181 12.1044896 147.619707 12.1044896 147.619707 13.9289849 142.125181 13.9289849 142.125181 18.3354267 148.710797 18.3354267"></polygon>
                <path d="M153.541652,19.5365277 C153.541652,20.2939788 152.89842,20.8951305 152.140969,20.8951305 C151.362477,20.8951305 150.716239,20.2939788 150.716239,19.5365277 C150.716239,18.8031227 151.362477,18.201971 152.140969,18.201971 C152.89842,18.201971 153.541652,18.8031227 153.541652,19.5365277 M153.475526,4.71513316 L153.475526,15.974704 L149.847575,15.974704 L149.847575,14.5529803 C150.271387,14.5289343 150.914619,14.4417673 151.317391,14.3726348 L151.317391,4.71513316 L153.475526,4.71513316 L153.475526,4.71513316 Z" id="path3119"></path>
                <path d="M166.57973,4.71633547 L166.57973,12.5283015 C166.57973,14.8186894 165.266214,16.1983325 162.93074,16.1983325 C161.283584,16.1983325 160.06024,15.4649274 159.392962,14.3978832 L159.347876,15.9759063 L157.279914,15.9759063 L157.279914,4.71633547 L159.435043,4.71633547 L159.435043,11.2598714 C159.435043,12.9731537 160.682432,14.3527968 162.263461,14.3527968 C163.709231,14.3527968 164.421596,13.5953457 164.421596,11.9031037 L164.421596,4.71633547 L166.57973,4.71633547 Z" id="path3123"></path>
                <path d="M178.195183,4.71633547 L178.195183,12.4621748 C178.195183,15.0862019 176.860626,16.1983325 173.854868,16.1983325 C172.388058,16.1983325 171.363094,15.9999524 170.272004,15.6873535 L170.272004,13.9289849 C171.206795,14.2626241 172.231758,14.5511769 173.434062,14.5511769 C175.411851,14.5511769 176.058089,13.8838985 176.058089,12.4381287 L176.058089,11.8369771 C175.925835,11.8369771 175.057171,11.8159367 174.924918,11.8159367 C173.611401,11.7918907 172.544357,11.6355912 171.696733,11.3019521 C170.184837,10.7038061 169.382299,9.58866979 169.382299,7.89943359 C169.382299,5.4287002 170.963328,4.49390935 172.85395,4.49390935 C174.389893,4.49390935 175.592196,5.16118771 176.103175,5.67517239 L176.148262,4.71633547 L178.195183,4.71633547 L178.195183,4.71633547 Z M176.058089,7.20810916 C175.52607,6.65204386 174.567233,6.16210524 173.455102,6.16210524 C172.009332,6.16210524 171.54344,7.05180972 171.54344,7.98660058 C171.54344,9.67884254 172.742737,10.2589539 175.258557,10.2589539 L176.058089,10.2589539 L176.058089,7.20810916 Z" id="path3127"></path>
                <path d="M191.082973,4.71633547 L191.082973,12.5283015 C191.082973,14.8186894 189.769457,16.1983325 187.433982,16.1983325 C185.786827,16.1983325 184.563483,15.4649274 183.896205,14.3978832 L183.851118,15.9759063 L181.783157,15.9759063 L181.783157,4.71633547 L183.941291,4.71633547 L183.941291,11.2598714 C183.941291,12.9731537 185.185675,14.3527968 186.766704,14.3527968 C188.212474,14.3527968 188.924839,13.5953457 188.924839,11.9031037 L188.924839,4.71633547 L191.082973,4.71633547 L191.082973,4.71633547 Z" id="path3131"></path>
                <path d="M202.543028,4.71633547 L202.543028,6.40857743 L196.068625,6.40857743 C196.711857,7.3854489 197.869074,8.92139143 199.071377,10.4122476 C200.405934,12.0594032 201.809623,13.7065588 202.320602,14.3077104 L202.320602,15.9759063 L193.865404,15.9759063 L193.865404,14.2866701 L199.717615,14.2866701 C199.227677,13.7065588 198.136586,12.4621748 196.937289,10.9021862 C195.488513,9.03561025 194.178003,7.20810916 193.642978,6.38453136 L193.642978,4.71633547 L202.543028,4.71633547 L202.543028,4.71633547 Z" id="path3135"></path>
                <path d="M214.114296,4.71633547 L214.114296,21.0736725 L211.956162,21.0736725 L211.956162,15.1312882 C211.487263,15.6422672 210.510392,16.1983325 209.019536,16.1983325 C206.371463,16.1983325 204.300495,14.0612383 204.300495,10.2589539 C204.300495,6.22823193 206.170077,4.49390935 208.752023,4.49390935 C210.242879,4.49390935 211.243797,5.00488827 212.001248,6.16210524 L212.046334,4.71633547 L214.114296,4.71633547 Z M211.956162,9.83514198 C211.956162,7.63192109 210.955244,6.2733183 209.241962,6.2733183 C207.19504,6.2733183 206.638975,8.07677333 206.638975,10.2589539 C206.638975,12.882981 207.817232,14.3738371 209.509474,14.3738371 C210.753858,14.3738371 211.445183,13.8177718 211.956162,13.3067929 L211.956162,9.83514198 L211.956162,9.83514198 Z" id="path3139"></path>
                <path d="M220.232217,19.5365277 C220.232217,20.2939788 219.588984,20.8951305 218.831533,20.8951305 C218.053042,20.8951305 217.406804,20.2939788 217.406804,19.5365277 C217.406804,18.8031227 218.053042,18.201971 218.831533,18.201971 C219.588984,18.201971 220.232217,18.8031227 220.232217,19.5365277 M220.16609,4.71513316 L220.16609,15.974704 L216.53814,15.974704 L216.53814,14.5529803 C216.961952,14.5289343 217.605184,14.4417673 218.007956,14.3726348 L218.007956,4.71513316 L220.16609,4.71513316 L220.16609,4.71513316 Z" id="path3143"></path>
                <path d="M232.981141,10.9914572 C232.981141,14.3729354 231.445198,16.2425171 228.442446,16.2425171 C225.214261,16.2425171 223.455893,13.8409162 223.455893,10.3241789 C223.455893,6.74131488 225.415647,4.450927 228.842212,4.450927 C230.266941,4.450927 231.333985,4.58318037 232.268776,4.87173317 L231.844964,6.51888876 C231.201732,6.34154902 230.131682,6.16420928 229.15481,6.16420928 C226.996676,6.16420928 225.926626,7.40859324 225.749286,9.67794082 L232.936054,9.67794082 C232.960101,10.0566664 232.981141,10.5255647 232.981141,10.9914572 M230.711793,11.2379294 L225.7042,11.2379294 C225.839459,13.3960639 226.705117,14.664494 228.397359,14.664494 C229.978388,14.664494 230.711793,13.594444 230.711793,11.7489083 L230.711793,11.2379294 Z" id="path3147"></path>
                <path d="M245.285213,4.71633547 L245.285213,12.5283015 C245.285213,14.8186894 243.971696,16.1983325 241.636222,16.1983325 C239.989067,16.1983325 238.765723,15.4649274 238.098444,14.3978832 L238.053358,15.9759063 L235.982391,15.9759063 L235.982391,4.71633547 L238.140525,4.71633547 L238.140525,11.2598714 C238.140525,12.9731537 239.387915,14.3527968 240.968944,14.3527968 C242.414714,14.3527968 243.127078,13.5953457 243.127078,11.9031037 L243.127078,4.71633547 L245.285213,4.71633547 Z" id="path3151"></path>
                <path d="M256.567327,7.89883243 C256.567327,9.99084026 255.187684,10.6791589 253.161803,11.3043567 C251.469561,11.8363759 250.447603,12.1249287 250.447603,13.0837656 C250.447603,14.0185565 251.135921,14.484449 252.629783,14.484449 C253.874167,14.484449 254.920171,14.286069 255.854962,13.9734701 L255.854962,15.7528791 C255.031384,15.9993513 253.96434,16.1977313 252.494524,16.1977313 C250.002751,16.1977313 248.331549,15.0435201 248.331549,12.9034201 C248.331549,10.9466714 249.690152,10.3004334 251.514647,9.70228746 C253.05059,9.18830278 254.364106,8.92379604 254.364106,7.76357331 C254.364106,6.80774214 253.696828,6.23063654 251.872332,6.23063654 C250.246217,6.23063654 249.089,6.69652908 248.578021,6.89791489 L248.000915,5.27179961 C248.623107,4.98324681 249.978704,4.49330819 252.004586,4.49330819 C254.763872,4.49330819 256.567327,5.60543879 256.567327,7.89883243" id="path3155"></path>
                <path d="M265.466175,4.8278491 L265.08745,6.42991832 C264.819937,6.33974556 264.173699,6.2285325 263.617634,6.2285325 C262.460417,6.2285325 262.015564,6.78760356 262.015564,8.07707391 L262.015564,14.2839649 L264.93115,14.2839649 L264.93115,15.9762069 L262.015564,15.9762069 L262.015564,19.4478578 C261.261119,19.0691323 260.458582,18.7144528 259.85743,18.4920267 L259.85743,15.9762069 L258.099061,15.9762069 L258.099061,14.2839649 L259.85743,14.2839649 L259.85743,7.83360748 C259.85743,5.73859389 260.77118,4.49420992 263.019488,4.49420992 C263.909192,4.49420992 264.774851,4.62646329 265.466175,4.8278491" id="path3159"></path>
                <path d="M269.782444,4.71633547 L269.782444,21.0736725 L266.154494,21.0736725 L266.154494,19.6699834 C266.578306,19.624897 267.200498,19.5587703 267.62431,19.4926436 L267.62431,4.71633547 L269.782444,4.71633547 Z" id="path3163"></path>
                <path d="M282.440594,10.9914572 C282.440594,14.3729354 280.904652,16.2425171 277.901899,16.2425171 C274.673715,16.2425171 272.915346,13.8409162 272.915346,10.3241789 C272.915346,6.74131488 274.875101,4.450927 278.301665,4.450927 C279.726395,4.450927 280.793439,4.58318037 281.72823,4.87173317 L281.304418,6.51888876 C280.661185,6.34154902 279.591135,6.16420928 278.614264,6.16420928 C276.453124,6.16420928 275.386079,7.40859324 275.20874,9.67794082 L282.395508,9.67794082 C282.419554,10.0566664 282.440594,10.5255647 282.440594,10.9914572 M280.171247,11.2379294 L275.163653,11.2379294 C275.298912,13.3960639 276.164571,14.664494 277.856813,14.664494 C279.434836,14.664494 280.171247,13.594444 280.171247,11.7489083 L280.171247,11.2379294 L280.171247,11.2379294 Z" id="path3167"></path>
                <path d="M287.912277,19.5365277 C287.912277,20.2939788 287.269045,20.8951305 286.511593,20.8951305 C285.733102,20.8951305 285.086864,20.2939788 285.086864,19.5365277 C285.086864,18.8031227 285.733102,18.201971 286.511593,18.201971 C287.269045,18.201971 287.912277,18.8031227 287.912277,19.5365277 M287.84615,4.71513316 L287.84615,15.974704 L284.2182,15.974704 L284.2182,14.5529803 C284.642012,14.5289343 285.285244,14.4417673 285.688016,14.3726348 L285.688016,4.71513316 L287.84615,4.71513316 L287.84615,4.71513316 Z" id="path3171"></path>
                <path d="M299.348887,7.89883243 C299.348887,9.99084026 297.969244,10.6791589 295.943363,11.3043567 C294.254126,11.8363759 293.229163,12.1249287 293.229163,13.0837656 C293.229163,14.0185565 293.917482,14.484449 295.411343,14.484449 C296.655727,14.484449 297.701731,14.286069 298.636522,13.9734701 L298.636522,15.7528791 C297.812944,15.9993513 296.7459,16.1977313 295.276084,16.1977313 C292.784311,16.1977313 291.116115,15.0435201 291.116115,12.9034201 C291.116115,10.9466714 292.471712,10.3004334 294.296207,9.70228746 C295.83215,9.18830278 297.145666,8.92379604 297.145666,7.76357331 C297.145666,6.80774214 296.478388,6.23063654 294.653892,6.23063654 C293.027777,6.23063654 291.87056,6.69652908 291.359581,6.89791489 L290.77947,5.27179961 C291.404668,4.98324681 292.76327,4.49330819 294.786146,4.49330819 C297.545432,4.49330819 299.348887,5.60543879 299.348887,7.89883243" id="path3175"></path>
                <path d="M308.247435,4.8278491 L307.868709,6.42991832 C307.601197,6.33974556 306.957964,6.2285325 306.398893,6.2285325 C305.241676,6.2285325 304.796824,6.78760356 304.796824,8.07707391 L304.796824,14.2839649 L307.71241,14.2839649 L307.71241,15.9762069 L304.796824,15.9762069 L304.796824,19.4478578 C304.042379,19.0691323 303.239841,18.7144528 302.638689,18.4920267 L302.638689,15.9762069 L300.880321,15.9762069 L300.880321,14.2839649 L302.638689,14.2839649 L302.638689,7.83360748 C302.638689,5.73859389 303.55244,4.49420992 305.800747,4.49420992 C306.690452,4.49420992 307.559116,4.62646329 308.247435,4.8278491" id="path3179"></path>
                <path d="M319.374452,4.71633547 L319.374452,15.9759063 L317.216317,15.9759063 L317.216317,9.41133005 C317.216317,7.72209384 315.968927,6.31840468 314.366858,6.31840468 C312.921088,6.31840468 312.229764,7.00972911 312.229764,8.677925 L312.229764,15.9759063 L310.071629,15.9759063 L310.071629,8.2090267 C310.071629,5.74129907 311.385146,4.49390935 313.69958,4.49390935 C315.346735,4.49390935 316.591119,5.20627408 317.258398,6.29736437 L317.282444,4.71633547 L319.374452,4.71633547 L319.374452,4.71633547 Z" id="path3183"></path>
                <path d="M332.325062,4.71633547 L332.325062,12.5283015 C332.325062,14.8186894 331.011546,16.1983325 328.676071,16.1983325 C327.028916,16.1983325 325.805572,15.4649274 325.135288,14.3978832 L325.093207,15.9759063 L323.02224,15.9759063 L323.02224,4.71633547 L325.180374,4.71633547 L325.180374,11.2598714 C325.180374,12.9731537 326.427764,14.3527968 328.008793,14.3527968 C329.454563,14.3527968 330.166928,13.5953457 330.166928,11.9031037 L330.166928,4.71633547 L332.325062,4.71633547 L332.325062,4.71633547 Z" id="path3187"></path>
                <path d="M345.209546,4.69499458 L345.209546,15.9756058 L343.138578,15.9756058 L343.093492,15.0197746 C342.4713,15.687053 341.536509,16.1980319 340.000567,16.1980319 C337.442666,16.1980319 335.395745,14.0849837 335.395745,10.3458203 C335.395745,6.3181041 337.265327,4.64990821 339.844267,4.64990821 C341.314083,4.64990821 342.339047,5.16088713 343.072452,6.2970638 L343.072452,4.55973545 C343.072452,2.62402706 342.050494,1.68923621 339.799181,1.68923621 C338.623929,1.68923621 337.710179,1.89062202 337.084981,2.04692145 L336.754348,0.399765864 C337.421626,0.243466428 338.554797,0 340.247039,0 C341.870148,0 343.162624,0.399765864 344.007243,1.22334366 C344.785734,2.00183508 345.209546,3.09292537 345.209546,4.69499458 M343.051411,9.92501415 C343.051411,7.80896026 342.026448,6.38723655 340.379292,6.38723655 C338.266244,6.38723655 337.731219,8.2538125 337.731219,10.3458203 C337.731219,12.9037207 338.912482,14.3735365 340.601718,14.3735365 C341.849108,14.3735365 342.537427,13.8174712 343.051411,13.3064923 L343.051411,9.92501415 L343.051411,9.92501415 Z" id="path3191"></path>
                <path d="M18.0465733,38.994004 C18.0465733,46.9953328 13.9587419,51.0470951 7.10260704,51.0470951 L0,51.0470951 L0,26.9739762 L7.10260704,26.9739762 C13.9256786,26.9739762 18.0465733,30.9926752 18.0465733,38.994004 M14.3074099,38.994004 C14.3074099,32.898326 11.6382964,29.850487 7.13567038,29.850487 L3.46563941,29.850487 L3.46563941,48.1735901 L7.13567038,48.1735901 C11.6382964,48.1735901 14.3074099,45.089682 14.3074099,38.994004" id="path3195"></path>
                <path d="M26.9159651,50.0425706 C26.9159651,51.2208279 25.9120418,52.1556187 24.7337845,52.1556187 C23.5224639,52.1556187 22.5185406,51.2208279 22.5185406,50.0425706 C22.5185406,48.9003824 23.5224639,47.9655916 24.7337845,47.9655916 C25.9120418,47.9655916 26.9159651,48.9003824 26.9159651,50.0425706 M26.8137693,26.9763808 L26.8137693,44.4999522 L21.1659493,44.4999522 L21.1659493,42.2847082 C21.8242104,42.2486391 22.8281337,42.1103743 23.4533314,42.0081785 L23.4533314,26.9763808 L26.8137693,26.9763808 L26.8137693,26.9763808 Z" id="path3199"></path>
                <path d="M46.7602825,36.7420898 C46.7602825,42.0081785 44.3707046,44.9177526 39.6937445,44.9177526 C34.6711223,44.9177526 31.9358822,41.1755834 31.9358822,35.7051032 C31.9358822,30.1264156 34.9837212,26.5585804 40.3189423,26.5585804 C42.5341862,26.5585804 44.1963706,26.7659778 45.6511576,27.2168415 L44.9928965,29.7807534 C43.9889732,29.5042236 42.3267889,29.2246881 40.8028694,29.2246881 C37.4424315,29.2246881 35.7802471,31.166408 35.5037173,34.6981741 L46.69115,34.6981741 C46.7242134,35.2873027 46.7602825,36.0146963 46.7602825,36.7420898 M43.2285164,37.1238211 L35.4345849,37.1238211 C35.6419822,40.484259 36.9915677,42.4590422 39.6246121,42.4590422 C42.0833224,42.4590422 43.2285164,40.7968578 43.2285164,37.9203471 L43.2285164,37.1238211 Z" id="path3203"></path>
                <path d="M73.8115067,33.5211191 C73.8115067,38.1289467 70.6254028,39.4785322 67.090631,40.7589853 C63.9075328,41.9041792 61.6532141,42.628567 61.6532141,44.9850816 C61.6532141,47.305527 63.4206,48.5889859 66.4353756,48.5889859 C69.1375524,48.5889859 71.4910612,47.8615923 72.4258521,47.5159301 L72.4258521,50.5607634 C71.4549921,50.8402989 69.5523471,51.4624909 66.468439,51.4624909 C61.3766843,51.4624909 58.2236438,48.898579 58.2236438,44.8137533 C58.2236438,40.3111273 61.9658129,39.0637376 64.5627882,38.0928776 C67.4392989,37.0198219 70.1054066,36.2232959 70.1054066,33.48505 C70.1054066,31.2367428 68.894086,29.5024202 64.8062546,29.5024202 C61.9297438,29.5024202 59.1584346,30.5784817 58.5362426,30.8880748 L57.5653827,28.0837022 C58.5031793,27.6328385 61.2384194,26.5597827 65.2210493,26.5597827 C70.6254028,26.5597827 73.8115067,29.0515564 73.8115067,33.5211191" id="path3207"></path>
                <path d="M93.5614432,35.9804306 C93.5614432,41.7304464 91.0666638,44.8474178 86.7383717,44.8474178 C83.861861,44.8474178 82.2357457,43.3565617 81.5083522,41.9378437 L81.4392197,44.5017556 L78.2170467,44.5017556 L78.2170467,19.977773 L81.5774846,19.977773 L81.5774846,28.0482343 C82.617477,27.1825759 84.036195,26.6295163 86.0109782,26.6295163 C90.8953356,26.6295163 93.5614432,30.0560809 93.5614432,35.9804306 M89.9605447,35.9112982 C89.9605447,34.6278394 89.7862107,33.4165187 89.4736119,32.4125954 C88.8844832,30.5760771 87.6370935,29.3647564 85.316648,29.3647564 C83.7927285,29.3647564 82.5814079,29.9899542 81.5774846,30.9938775 L81.5774846,35.4965035 C81.5774846,39.3047994 83.1014041,42.0069762 85.8366442,42.0069762 C88.8844832,42.0069762 89.9605447,39.4430643 89.9605447,35.9112982" id="path3211"></path>
                <path d="M110.956969,26.9751785 L110.956969,39.0282696 C110.956969,43.116101 108.876984,44.8474178 104.20303,44.8474178 C101.915648,44.8474178 100.322596,44.534819 98.6273484,44.0508919 L98.6273484,41.312646 C100.082135,41.8326422 101.672182,42.2835059 103.544769,42.2835059 C106.625671,42.2835059 107.6326,41.2465193 107.6326,38.9952063 L107.6326,38.0604154 C107.422197,38.0604154 106.072612,38.0243463 105.865215,38.0243463 C103.821299,37.9882772 102.159114,37.7478166 100.842592,37.2278204 C98.4890835,36.2930295 97.238688,34.5617127 97.238688,31.9286683 C97.238688,28.0843034 99.7004041,26.6295163 102.643042,26.6295163 C105.03262,26.6295163 106.902201,27.6695087 107.701733,28.4630289 L107.770865,26.9751785 L110.956969,26.9751785 Z M107.6326,30.8526068 C106.800005,29.9899542 105.309149,29.2264916 103.577832,29.2264916 C101.329525,29.2264916 100.599126,30.6121462 100.599126,32.0669332 C100.599126,34.6999776 102.471713,35.6017051 106.385211,35.6017051 L107.6326,35.6017051 L107.6326,30.8526068 L107.6326,30.8526068 Z" id="path3215"></path>
                <path d="M126.09998,41.3135477 L126.09998,44.4996516 C125.892583,44.5357207 125.441719,44.6048531 124.783458,44.6048531 C122.532145,44.6048531 120.800828,43.1831294 119.829968,41.1752828 L119.760836,44.4996516 L116.538663,44.4996516 L116.538663,26.9760803 L119.8991,26.9760803 L119.8991,36.4652595 C119.8991,38.64744 121.528221,41.4187493 124.888659,41.4187493 C125.40565,41.4187493 125.925646,41.3496168 126.09998,41.3135477" id="path3219"></path>
                <path d="M144.142345,26.9751785 C141.854963,30.4738813 138.876257,34.3873787 135.966682,36.9152215 L143.345819,44.5017556 L139.294057,44.5017556 L132.747515,37.7117475 L132.747515,52.433952 L129.387077,52.433952 L129.387077,26.9751785 L132.747515,26.9751785 L132.747515,35.6017051 C135.518824,32.9325916 138.1158,29.5721538 139.916249,26.9751785 L144.142345,26.9751785 L144.142345,26.9751785 Z" id="path3223"></path>
                <path d="M159.487944,26.9751785 L159.487944,39.0282696 C159.487944,43.116101 157.407959,44.8474178 152.734005,44.8474178 C150.446623,44.8474178 148.853571,44.534819 147.158323,44.0508919 L147.158323,41.312646 C148.61311,41.8326422 150.203156,42.2835059 152.075744,42.2835059 C155.156646,42.2835059 156.163575,41.2465193 156.163575,38.9952063 L156.163575,38.0604154 C155.953172,38.0604154 154.603587,38.0243463 154.396189,38.0243463 C152.352274,37.9882772 150.690089,37.7478166 149.373567,37.2278204 C147.020058,36.2930295 145.772669,34.5617127 145.772669,31.9286683 C145.772669,28.0843034 148.231379,26.6295163 151.174016,26.6295163 C153.563594,26.6295163 155.433176,27.6695087 156.229702,28.4630289 L156.30184,26.9751785 L159.487944,26.9751785 L159.487944,26.9751785 Z M156.163575,30.8526068 C155.33098,29.9899542 153.84313,29.2264916 152.108807,29.2264916 C149.857494,29.2264916 149.130101,30.6121462 149.130101,32.0669332 C149.130101,34.6999776 150.999682,35.6017051 154.916185,35.6017051 L156.163575,35.6017051 L156.163575,30.8526068 L156.163575,30.8526068 Z" id="path3227"></path>
                <path d="M177.054498,31.9280672 C177.054498,35.1833035 174.908386,36.2563592 171.755346,37.2272192 C169.122301,38.0598143 167.529249,38.5076723 167.529249,39.9985284 C167.529249,41.4533155 168.605311,42.180709 170.925756,42.180709 C172.86447,42.180709 174.490586,41.8681101 175.945373,41.384183 L175.945373,44.1554923 C174.66492,44.5342178 173.002735,44.8468167 170.715353,44.8468167 C166.837925,44.8468167 164.24095,43.0463674 164.24095,39.7219987 C164.24095,36.6741597 166.353998,35.6672306 169.191434,34.7324398 C171.584017,33.9359138 173.627933,33.5211191 173.627933,31.7206699 C173.627933,30.2298137 172.587941,29.331092 169.747499,29.331092 C167.219656,29.331092 165.419207,30.0584855 164.622681,30.3680786 L163.720954,27.8402358 C164.688808,27.389372 166.801856,26.6289152 169.954896,26.6289152 C174.250125,26.6289152 177.054498,28.360232 177.054498,31.9280672" id="path3231"></path>
                <path d="M193.296714,31.9280672 C193.296714,35.1833035 191.150603,36.2563592 187.997562,37.2272192 C185.364518,38.0598143 183.771466,38.5076723 183.771466,39.9985284 C183.771466,41.4533155 184.847527,42.180709 187.167973,42.180709 C189.106687,42.180709 190.732802,41.8681101 192.187589,41.384183 L192.187589,44.1554923 C190.907136,44.5342178 189.244952,44.8468167 186.95757,44.8468167 C183.080141,44.8468167 180.48016,43.0463674 180.48016,39.7219987 C180.48016,36.6741597 182.596214,35.6672306 185.43365,34.7324398 C187.826234,33.9359138 189.867144,33.5211191 189.867144,31.7206699 C189.867144,30.2298137 188.830157,29.331092 185.989716,29.331092 C183.458867,29.331092 181.658418,30.0584855 180.861892,30.3680786 L179.96317,27.8402358 C180.931024,27.389372 183.044072,26.6289152 186.197113,26.6289152 C190.492342,26.6289152 193.296714,28.360232 193.296714,31.9280672" id="path3235"></path>
                <path d="M211.859977,36.7420898 C211.859977,42.0081785 209.470399,44.9177526 204.793439,44.9177526 C199.770817,44.9177526 197.035577,41.1755834 197.035577,35.7051032 C197.035577,30.1264156 200.083416,26.5585804 205.418637,26.5585804 C207.633881,26.5585804 209.296065,26.7659778 210.750852,27.2168415 L210.092591,29.7807534 C209.088668,29.5042236 207.426484,29.2246881 205.902564,29.2246881 C202.542126,29.2246881 200.879942,31.166408 200.603412,34.6981741 L211.790845,34.6981741 C211.823908,35.2873027 211.859977,36.0146963 211.859977,36.7420898 M208.325205,37.1238211 L200.53428,37.1238211 C200.741677,40.484259 202.094268,42.4590422 204.724307,42.4590422 C207.183017,42.4590422 208.325205,40.7968578 208.325205,37.9203471 L208.325205,37.1238211 Z" id="path3239"></path>
                <path d="M242.06304,34.3873787 C242.06304,37.3991486 240.608253,39.2356669 237.80388,40.2395902 C239.153466,41.0361162 240.433919,42.4909033 240.433919,45.2622125 C240.433919,48.0665851 238.390003,51.0482974 232.988655,51.0482974 L224.674728,51.0482974 L224.674728,26.9751785 L233.159983,26.9751785 C239.015201,26.9751785 242.06304,30.09215 242.06304,34.3873787 M235.411297,44.4656865 C235.411297,42.9778361 234.581707,41.6252449 231.810398,41.6252449 L229.489953,41.6252449 L229.489953,47.1317942 L231.810398,47.1317942 C234.581707,47.1317942 235.411297,46.0587385 235.411297,44.4656865 M236.902153,34.3513096 C236.902153,32.2051981 235.654763,30.8886759 232.468659,30.8886759 L229.489953,30.8886759 L229.489953,37.7117475 L232.297331,37.7117475 C235.6217,37.7117475 236.902153,36.5334902 236.902153,34.3513096" id="path3243"></path>
                <path d="M257.590186,40.2753588 L257.590186,44.6397199 C257.382789,44.7088524 256.724528,44.8471173 256.030198,44.8471173 C254.127553,44.8471173 252.462363,43.7049291 251.356244,41.4536161 L251.217979,44.6397199 L246.715353,44.6397199 L246.715353,26.974878 L251.494508,26.974878 L251.494508,35.8057961 C251.494508,37.8857809 252.880163,40.4496928 255.753668,40.4496928 C256.550194,40.4496928 257.244524,40.3444912 257.590186,40.2753588" id="path3247"></path>
                <path d="M275.014568,36.4998257 C275.014568,42.0424441 272.417592,45.054214 267.533235,45.054214 C262.131887,45.054214 259.324509,41.1076533 259.324509,35.8085012 C259.324509,30.2658828 262.546682,26.5597827 268.086295,26.5597827 C270.373677,26.5597827 272.174126,26.8002434 274.079777,27.3202396 L273.178049,30.8880748 C272.138057,30.5784817 270.337608,30.2658828 268.780625,30.2658828 C266.078448,30.2658828 264.587592,31.5463359 264.311062,34.3176451 L274.945435,34.3176451 C274.978499,34.8376413 275.014568,35.7032997 275.014568,36.4998257 M270.199343,37.5398181 L264.172797,37.5398181 C264.311062,40.2419949 265.489319,41.6937761 267.39497,41.6937761 C269.195419,41.6937761 270.199343,40.5185246 270.199343,38.0598143 L270.199343,37.5398181 Z" id="path3251"></path>
                <path d="M304.388943,26.9751785 L304.388943,39.1665345 C304.388943,42.8035021 302.588493,44.9856827 298.846324,44.9856827 C296.387614,44.9856827 294.725429,43.8434945 293.616305,42.3526384 C292.819779,44.0508919 291.226727,44.9856827 288.80108,44.9856827 C286.585836,44.9856827 284.95972,43.9817594 284.021924,42.5961048 L283.883659,44.6400205 L279.381033,44.6400205 L279.381033,26.9751785 L284.160189,26.9751785 L284.160189,37.1226188 C284.160189,39.1665345 285.407578,40.9699895 287.208028,40.9699895 C288.80108,40.9699895 289.49541,40.1013254 289.49541,38.1265421 L289.49541,26.9751785 L294.274566,26.9751785 L294.274566,37.1226188 C294.274566,39.1665345 295.521955,40.9699895 297.322405,40.9699895 C298.915457,40.9699895 299.609787,40.1013254 299.609787,38.1265421 L299.609787,26.9751785 L304.388943,26.9751785 L304.388943,26.9751785 Z" id="path3255"></path>
                <path d="M324.515501,36.4998257 C324.515501,42.0424441 321.918525,45.054214 317.034168,45.054214 C311.63282,45.054214 308.825442,41.1076533 308.825442,35.8085012 C308.825442,30.2658828 312.047615,26.5597827 317.587228,26.5597827 C319.87461,26.5597827 321.675059,26.8002434 323.58071,27.3202396 L322.678982,30.8880748 C321.641996,30.5784817 319.841546,30.2658828 318.281558,30.2658828 C315.579381,30.2658828 314.091531,31.5463359 313.811995,34.3176451 L324.446368,34.3176451 C324.479432,34.8376413 324.515501,35.7032997 324.515501,36.4998257 M319.700276,37.5398181 L313.676736,37.5398181 C313.811995,40.2419949 314.990252,41.6937761 316.895903,41.6937761 C318.696352,41.6937761 319.700276,40.5185246 319.700276,38.0598143 L319.700276,37.5398181 Z" id="path3259"></path>
                <path d="M344.468025,26.9751785 L344.468025,39.0974021 C344.468025,42.7343697 342.42411,44.9856827 338.648877,44.9856827 C336.397564,44.9856827 334.45885,43.9817594 333.524059,42.5961048 L333.385794,44.6400205 L328.883168,44.6400205 L328.883168,26.9751785 L333.662324,26.9751785 L333.662324,37.1226188 C333.662324,39.1665345 335.255376,40.9699895 337.055825,40.9699895 C338.648877,40.9699895 339.68887,40.1013254 339.68887,37.9552139 L339.68887,26.9751785 L344.468025,26.9751785 L344.468025,26.9751785 Z" id="path3263"></path>
                <path d="M363.591562,67.6154364 L377.018284,67.6154364 C378.593302,67.6154364 379.999997,66.3800697 379.999997,64.6307183 L379.999997,63.1398622 L364.33699,63.1398622 L364.33699,60.9035779 L379.248557,60.9035779 C379.576185,60.9035779 379.999997,60.6510942 379.999997,60.1611556 L379.999997,53.4432856 C379.999997,51.6338191 378.578273,50.4615733 377.018284,50.4615733 L363.675723,50.4615733 C362.115734,50.4615733 360.606844,51.5556694 360.606844,53.4432856 L360.606844,54.9341418 L376.269851,54.9371475 L376.269851,57.1734318 L361.352272,57.1734318 C360.919443,57.1734318 360.606844,57.5341228 360.606844,57.9128483 L360.606844,64.6307183 C360.606844,66.3530179 362.031573,67.6154364 363.591562,67.6154364" id="path3267"></path>
                <path d="M367.319604,72.09071 C367.319604,73.7378656 368.654161,75.0754281 370.304322,75.0754281 C371.948472,75.0754281 373.286034,73.7378656 373.286034,72.09071 C373.286034,70.4435544 371.948472,69.105992 370.304322,69.105992 C368.654161,69.105992 367.319604,70.4435544 367.319604,72.09071" id="path3271"></path>
                <path d="M352.549608,4.7382775 L352.549608,72.1363975 L352.549608,4.7382775 Z" id="path3275"></path>
                <polygon id="path3277" points="351.36053 4.73677462 353.74109 4.73677462 353.74109 72.1348947 351.36053 72.1348947"></polygon>
            </g>
        </g>
    </g>
</svg>