<?xml version="1.0" encoding="UTF-8"?>
<svg width="1006px" height="308px" viewBox="0 0 1006 308" version="1.1" xmlns="http://www.w3.org/2000/svg" xmlns:xlink="http://www.w3.org/1999/xlink">
    <title>Üstra_Hannoversche_Verkehrsbetriebe_2017_logo</title>
    <g id="Page-1" stroke="none" stroke-width="1" fill="none" fill-rule="evenodd">
        <g id="Üstra_Hannoversche_Verkehrsbetriebe_2017_logo" fill="#000000" fill-rule="nonzero">
            <path d="M181.999348,93.2622841 L181.999348,212.970344 C181.999348,275.991507 146.148622,307.654145 90.5391582,307.654145 C35.2424977,307.654145 0,275.991507 0,214.78634 L0,93.2622841 L37.3712975,93.2622841 L37.3712975,213.274458 C37.3712975,252.47913 57.7295746,273.584659 91.1473867,273.584659 C124.269774,273.584659 144.628051,253.686898 144.628051,214.78634 L144.628051,93.2622841 L181.999348,93.2622841 L181.999348,93.2622841 Z M215.139113,284.515395 C235.662481,297.114414 265.995705,307.002472 297.545387,307.002472 C351.469189,307.002472 378.126976,280.614043 378.126976,246.118798 C378.126976,164.564043 257.419683,196.652442 257.419683,149.566866 C257.419683,133.978838 272.121435,121.675245 296.937159,121.675245 C318.077444,121.675245 338.296697,127.0711 356.369773,135.768768 L370.159182,106.982182 C348.706094,96.7813205 323.89906,89.8996494 295.712013,89.8996494 C247.601137,89.8996494 219.118665,116.574814 219.118665,150.166406 C219.118665,230.235345 339.825958,199.0506 339.825958,246.431601 C339.825958,263.227397 325.732434,275.209498 297.545387,275.209498 C273.95481,275.209498 251.902182,267.424174 232.908074,256.032922 L215.139113,284.515395 Z M395.652646,93.2622841 L395.652646,127.635884 L462.279735,127.635884 L462.279735,304.343644 L499.49463,304.343644 L499.49463,127.635884 L566.121719,127.635884 L566.121719,93.2622841 L395.652646,93.2622841 L395.652646,93.2622841 Z M773.258283,304.343992 L729.735188,304.343992 L678.122655,230.774061 L631.897288,230.774061 L631.897288,304.343992 L594.977818,304.343992 L594.977818,93.2622841 L688.62763,93.2622841 C715.033436,93.2622841 735.739273,101.108432 749.250635,114.367813 C760.355149,125.837265 766.654659,141.503494 766.654659,159.906751 L766.654659,160.506638 C766.654659,195.175663 745.940134,215.994456 716.545319,224.440143 L773.258283,304.343992 L773.258283,304.343992 Z M685.916669,197.894966 C712.339853,197.894966 729.135649,184.027356 729.135649,162.617712 L729.135649,162.009484 C729.135649,139.400761 712.930704,127.036344 685.629933,127.036344 L631.897288,127.036344 L631.897288,197.894966 L685.916669,197.894966 L685.916669,197.894966 Z M859.374751,221.103228 L931.719188,221.103228 L895.399257,137.271961 L859.374751,221.103228 Z M913.116084,93.2622841 L1005.54075,304.343644 L966.535925,304.343644 L945.221861,253.747721 L845.880767,253.747721 L824.262588,304.343644 L786.448153,304.343644 L878.898886,93.2622841 L913.116084,93.2622841 L913.116084,93.2622841 Z" id="path5761"></path>
            <path d="M135.241312,0 C121.677816,0 110.356077,9.5926325 107.688561,22.3741202 L74.3055045,22.3741202 C71.6379881,9.5926325 60.3249378,0 46.752753,0 C31.2081701,0 18.600462,12.6077081 18.600462,28.152291 C18.600462,43.7055629 31.2081701,56.3132711 46.752753,56.3132711 C60.3249378,56.3132711 71.646677,46.7119496 74.3055045,33.9304619 L107.688561,33.9304619 C110.356077,46.7119496 121.677816,56.3132711 135.241312,56.3132711 C150.794584,56.3132711 163.393603,43.7055629 163.393603,28.152291 C163.393603,12.6077081 150.794584,0 135.241312,0" id="path5765"></path>
        </g>
    </g>
</svg>