<svg viewBox="0 0 781 112" xmlns="http://www.w3.org/2000/svg">
  <g fill-rule="nonzero" fill="none">
    <path d="M310.396 5.991c-.646 0-1.455 2.246 0 2.246.324-1.132.97-1.114 0-2.246Zm2.751 0c-.161 1.132-2.275 2.246-1.628 2.246 1.455 1.132 3.735-1.123 3.088-1.123 0 0-.168.009-.168-1.123h-1.292Zm42.499 1.123c-.809 1.132-1.453 2.237-1.291 3.368 0 0 .006-.009.168 1.123h-.168s-.082.45-.169.506c-.038-.053-.128-.223-.168-.506-.162 0-.638-1.123-1.123-1.123 0 1.132-.007 1.123-.168 1.123 0 0 .175.047.336 1.18.809 1.131 2.295 2.23 2.134 3.2 0 1.131-.014 1.122-.337 1.122h-.955c-.97 0-1.641-1.107-1.964-2.077-.162 0-.344-1.123-.506-1.123h-.28c-.324 1.132-.816 2.068-.169 3.2.162 0 .618-.009.618 1.123-1.294 0-1.292 1.17-1.292 2.302h1.797c1.132 0 2.11 1.122 2.92 1.122.161 1.132.118 1.123.28 1.123.485 0 .806-1.123 1.291-1.123.809-1.131 2.461-1.122 3.593-1.122h.337c.323 0 .618.009.618-1.123.161-1.132-1.292-1.17-1.292-2.302.809-1.132 1.123-1.107 1.123-2.077 0-1.132-.168-1.123-.168-1.123-.647 0-2.749 4.332-4.042 3.2-.162 0-.169.009-.169-1.123.162 0 .519-.954.842-.954.647-1.132 2.275-2.293 1.628-3.425h-2.133c.162-1.131.81-3.36-1.291-4.491Zm43.004 0c-1.132 1.132 1.774 3.377 2.582 2.246.647-1.132-1.936-2.246-2.582-2.246Zm2.919 0s.651 2.255 1.46 1.123c.808-1.132-1.137-1.123-1.46-1.123Zm-85.783 1.123c-.637.053-1.347.274-1.347 1.123h3.087c.162 0 .941-1.123.618-1.123h-1.797c-.161 0-.349-.018-.561 0Zm79.327 0c-.809 1.132 1.269 2.245 2.077 2.245.647 0 1.34.01 1.179-1.122-.647-1.132-1.801-1.123-3.256-1.123ZM305.23 9.36c-.161 1.131-.202 2.245-1.01 2.245h-1.909c-.647 1.132-1.318 1.18-1.965 1.18-.485 0-.498 1.122-.337 1.122.162 1.132.176 1.123.337 1.123.162.97.476 2.077 1.123 2.077.808-1.132 1.612-1.123 2.582-1.123 1.617 0 3.576 4.539 1.797 5.67-.606 1.062-1.772 1.12-2.582 1.123 2.425 1.132 4.547 1.15 4.547-2.245 0-1.132-.007-1.17-.169-2.302-.485-1.132-.799-2.246-1.122-2.246-.485-.97-.961-.945-1.123-2.077-.162 0-.05-1.123.112-1.123.162-1.131.175-1.179.337-1.179 0 0 .168.01.168-1.123 1.132 1.132 2.596 1.17 2.92 2.302-.647 0-1.137-.009-1.46 1.123h-.674c.324 1.132.688 1.107 1.01 2.077.81 1.132 1.777 3.407 1.292 5.67-.162 0-.343 1.123-.505 1.123-.323 0-.786 1.123-.786 1.123v1.123c.808 0 1.424-1.123 1.909-1.123.485-1.132.343-1.114.505-2.246.162-2.263.94-4.522.618-6.624 0 0 .323-1.123 0-1.123-.162 0-.463-1.123-.786-1.123-.162-1.131-.014-1.17-.337-2.302-.485-1.131-3.36-1.122-4.492-1.122Zm14.54 0c-.646 1.131-2.582 1.113-2.582 2.245h4.492c-.324-1.131-1.262-1.114-1.91-2.245Zm17.292 0c-.485 1.131-1.145 2.292-.337 3.424.324 1.132.674 1.123.674 1.123h-1.628c.162 2.102 1.282 2.077 2.414 2.077.809 1.132 1.48 2.246 1.965 2.246.162 1.132.45 1.179.45 1.179-1.294 1.132-2.904-.047-3.875-1.18-.161 0-.63-1.122-.954-1.122-.323 0-.175 1.123-.337 1.123 0 1.132.328 2.302 1.46 2.302h.842c.323 1.131-1.175 3.36.28 4.49h.674c.647-1.13 1.303-2.254 2.92-1.122.485 0 1.136 1.123 1.46 1.123 0 0 .112.009.112-1.123.323 0 .644-1.123 1.29-1.123.81-1.131 1.973-1.114 2.134-2.245.162-1.132-.974-1.17-1.46-2.302-.485-1.132.782-2.23-.673-3.2 0 0-.624-1.132-.786 0-.162.97.016 2.115-.955 4.379h-.842c-.323-1.132-.617-1.17-.617-2.302-.162-1.132 1.273-5.502-.505-5.502h-.169c0 1.132.036 2.302-.449 2.302h-.337c0-2.264-.649-3.416-2.75-4.547Zm36.885 0c-1.455 1.131-2.47 2.283-2.47 4.547h-.45c-.161-1.132-.168-1.17-.168-2.302-3.719 1.132.454 6.672-2.133 7.804h-.281c-1.779-1.132-1.291-3.41-1.291-4.38-2.264 0-.526 3.248-1.01 4.38-.324 0-1.46-.01-1.46 1.123.161 1.131.181 1.122.505 1.122.485 0 .8-.009 1.123 1.123.646 0 1.15 1.123 1.796 1.123.809 0 1.444-1.123 2.414-1.123.97 0 1.956 1.123 3.088 1.123.162 0 .337-1.123.337-1.123-.162 0-.175-1.123-.337-1.123 0-1.131 1.424-1.113 1.909-2.245h.337s.175-1.18.336-1.18c.324 0-.673-1.122-.673-1.122-.485 1.132-.631 1.17-.955 2.302-.97 1.132-2.425 1.123-4.042 1.123.162-3.396 4.997-3.391 4.997-6.625h-.45c-.323 0-.799 1.123-1.122 1.123 0-1.132 2.748-4.539 0-5.67Zm32.618 0c-1.132 1.131-2.729 1.122-3.537 1.122-.485 1.132-.337 1.17-.337 2.302-.324 1.132-.624 1.114-.786 2.246-.647 2.102.02 4.36.505 6.624 0 1.132-.204 2.246.28 2.246.486 1.132 1.326 1.123 2.134 1.123h.169c-.486-1.132-.968-1.114-1.292-2.246-.97-2.263-.015-4.53.955-6.793.323 0 1.46-.945 1.46-2.077h-.169s-2.78-1.123-2.133-1.123c.646 0 1.156-1.179 1.965-1.179h.954c.323 1.132.835 2.293.674 3.425-.324 0-.807.954-1.292.954-.97 2.264-2.742 6.784.169 7.916h3.368v-1.123h-2.751c-1.94-1.131-.177-4.538.955-5.67 1.293-1.132 3.233 1.132 4.042 0 .485 0 .168-1.107.168-2.077-.161 0 .162-1.123 0-1.123-.323-1.132-2.391-1.123-3.2-1.123h-.842c-.485-1.131-.168-2.302-.168-2.302-.647-1.131-.806-1.122-1.291-1.122Zm-94.878 1.122c-.485 1.132-.506 1.17-.506 2.302h1.797c0-1.131-.321-2.302-1.291-2.302Zm2.414 0c-.324 2.264.173 3.425 1.628 3.425.161 0 .624.009.786-1.123.808-1.131-1.768-2.302-2.414-2.302Zm78.204 0c-.644.051-1.404.274-1.404 1.123 1.294 1.132 2.756 0 4.21 0 0 1.132.457 0 .618 0-.646-1.131-1.731-1.123-2.863-1.123-.162 0-.347-.016-.561 0Zm7.803 0c-.485 1.132-.983 3.425-.337 3.425 1.94 0 2.6-2.293.337-3.425Zm-2.077 1.123c-.808 0-1.648 1.17-2.133 2.302h2.302c.808-1.132.64-2.302-.169-2.302Zm-79.214 1.18c-.162 0-.212 1.122.112 1.122.323 0 3.768 1.123 3.93 1.123 0-1.132-.176-1.123-.337-1.123-.647-1.132-2.3-1.123-3.593-1.123h-.112Zm73.207 0c-.808 1.131-2.582 1.113-2.582 2.245h3.424c.323-1.132.8-1.123 1.123-1.123-.647-1.132-1.157-1.123-1.965-1.123Zm-79.383 1.122c-.485 1.132.496 3.2 1.628 3.2.647 0-.512-2.077-.674-2.077-.323 0-.63.009-.954-1.123Zm40.253 0c0 1.132.195 2.077.842 2.077.485-.97-.519-.945-.842-2.077Zm5.839 0c-.324 1.132-.674 1.107-.674 2.077h.168c.485-.97.829-.945.506-2.077ZM315.56 15.03s.007.954.169.954c.161 0 1.767 2.255 2.414 1.123h.168c-.323-2.102-1.295-2.077-2.75-2.077Zm4.38 0c-1.94 2.102 3.705 3.247 3.705 4.379.323 0 .161-1.18 0-1.18-.647-2.263-1.927-2.23-3.706-3.2Zm22.624 0c-.323.97-.168.945-.168 2.077h.505c.162-1.132-.175-1.107-.337-2.077Zm53.502 0c-.97.97-1.424.945-1.909 2.077 0 0 .162 1.123 0 1.123 1.617 0 4.334-2.23 1.91-3.2Zm3.425 0c-.809.97-1.123.936-1.123 3.2 1.455-1.132 1.74-2.23 1.74-3.2h-.617Zm-6.625.561c-.295.048-.539.393-.842.393h-1.291c-1.132 1.132-2.246 2.293-2.246 3.425h.45s1.31-1.18 1.796-1.18c.97-1.13 2.75-1.113 2.75-2.245-.242-.363-.44-.421-.617-.393Zm-66.807.393c.161 2.264 1.15 2.293 1.796 3.425.324 1.132.8 2.236 1.123 3.368.485 1.132 1.136 2.293 1.46 3.425.323 1.132.637 1.114 1.122 2.246h.786c.162-1.132 1.009-2.246 2.302-2.246.162-1.132-.496-2.302-1.628-2.302 0-1.132.162-2.237 0-3.368 0 0-.505.009-.505-1.123h-.28c0 2.263.318 5.614-1.46 5.614-1.132-2.264-.344-4.53-.506-6.793-.161 0-.617-1.123-.617-1.123h-.337l-.169 1.123c0 1.132-.006 1.179-.168 1.179h-.337v-1.18c-.808-1.13-.642-1.113-2.582-2.245Zm42.05 0s-.324 1.123 0 1.123c0 0 .808.009 0-1.123Zm17.571 0c-.364.053-.703.274-1.067 1.123-.485 0-1.81 1.123-2.133 1.123-.162 0 .162.009 0-1.123h-.168c-2.102 0-1.116 2.293-.955 3.425 0 1.131.169 1.113.169 2.245-.162 0-.625 1.123-.786 1.123h-.169c-1.293 0-1.29-2.237-1.29-3.368-.001-1.132.322-1.123 0-1.123h-.338c-1.617 2.263-.505 3.36-.505 4.491h-1.628c.485 2.264 2.302 3.416 2.302 4.547 0 .97.125.97.449 0 .97-1.131 1.78-2.283 2.75-4.547 1.294-2.263 2.271-4.53 4.211-6.793.162 0 .829-1.123.506-1.123H386.074c-.121 0-.272-.017-.393 0Zm-48.786 1.123c.323 1.132 1.156 1.123 1.965 1.123-.324 0-1.157-1.123-1.965-1.123Zm-24.59 1.123c-.485 1.132-.128 1.17.842 2.302h.955c.485 0-.294-2.302-.618-2.302h-1.179Zm3.256 0c0 2.264.622 3.424 2.078 3.424 0 1.132.343 1.123.505 1.123.323 0 .337-1.123.337-1.123-.162-2.263-1.141-3.424-2.92-3.424Zm4.66 0c0 1.132-.61 2.302-.45 2.302.648 1.132 1.95 2.245 2.92 2.245.162 0 .288 1.123.45 1.123h.336c.324-1.132 0-1.114 0-2.246-.485-1.131-1.477-2.292-3.256-3.424Zm51.93 0v1.179c.485 0 1.15-.047 1.797-1.18h-1.797Zm24.59 0c-1.294 1.132-2.09 2.293-2.414 3.424-.162 1.132-.33 1.123-.169 1.123h.169c1.455 0 3.707-2.284 2.414-4.547Zm3.031 0s-2.05 1.16-1.403 3.424h.45c1.293-1.131 2.732-2.292.953-3.424Zm-7.747 1.179c-2.102 1.132-3.2 2.227-3.2 4.491.323 1.132.45 1.132.45 0h.336c.647 0 .813-1.123 1.46-1.123 1.778-1.131 2.41-1.105.954-3.368Zm-60.969 1.123c-.485 1.131 0 2.245 0 2.245h.337c0-1.131-.175-1.114-.337-2.245Zm49.011 0s-.317 1.122.169 1.122h.505c-.162 0-.35-1.122-.674-1.122Zm27.677 0v1.122h.281s-.119.01-.28-1.122Zm-96.225 1.122c-.485 1.132-.002 2.237 1.291 3.369h1.123c.162-2.264-.635-3.369-2.414-3.369Zm4.042 0c-.646 2.264.652 3.407 1.46 5.67h.954c-.161-2.263-.473-4.538-2.414-5.67Zm35.706 0c-.162 1.132-.128 2.246.842 2.246.162 0 .126.01.45-1.123.646 0 1.297 1.114 1.459 2.246.647 3.395-1.608 6.633-5.165 5.502-2.425 0-3.867-2.06-3.705-4.323 0-1.132.006-1.18.168-1.18h1.291c.485-1.13-.995-2.254-1.965-1.122-.323 0-.449 1.123-.449 1.123v2.302c.323 2.102 1.898 4.379 4.323 4.379 1.617 0 2.91-.048 4.042-1.18 2.91-2.101 3.755-7.738-.449-8.87h-.842Zm6.905 0c-.546.054-1.04.274-1.403 1.123-.647 1.132-.618 2.293-.618 3.425 0 2.264 1.118 4.37 3.705 5.502h2.92c.808 0 1.43-1.18 2.077-1.18 1.132-1.131 2.45-4.37 1.965-5.501-.324-1.132-2.778-3.387-3.425-1.123 0 0 .014 1.123.337 1.123.809 0 .813-1.123 1.46-1.123.485 0 .485 2.293 0 3.425 0 1.132-.294 1.107-.618 2.077-.647 0-1.493 1.123-2.302 1.123-3.233 0-5.01-1.09-5.333-4.323.162-2.264.166-2.293 1.46-3.425h.673V23.9h1.123c.162-1.132-.166-2.246-1.46-2.246-.202 0-.379-.017-.56 0Zm42.274 0c-.647 1.132-2.281 2.237-1.796 3.369h.505c.808 0 3.555-2.237 1.291-3.369Zm-80.337 1.123c-.162 1.132-.674 2.246-.674 2.246s2.94 3.424 3.425 3.424c0-2.263-.65-4.538-2.751-5.67Zm76.463 0c-1.131 1.132-1.964 3.416-1.964 4.548.161 1.132.343 1.131.505 0 .646 0 3.885-3.416 1.46-4.548ZM369.906 23.9c-.485 1.132-.968 1.123-1.292 1.123-2.263 3.395-1.774 6.672 1.46 7.803.97 1.132 1.731 1.123 2.863 1.123.97 0 1.655.01 2.302-1.123 1.94 0 3.222-3.408 2.414-4.379-.162-1.131-.175-1.122-.337-1.122 0 0-.813-1.132-1.46 0-.485 0-.449-.01-.449 1.122h.45c.323 0 .505.01.505-1.122h.337c1.778 4.365-3.279 6.633-6.513 5.501-.808-1.131-1.592-1.17-2.077-2.301-.323-2.102.81-5.502 2.751-5.502h.168c-.323 1.132-.498 1.17-.336 2.302h.673c.809 0 1.581-2.302.45-2.302-.647-1.132-.94-1.123-1.91-1.123Zm22.12 0c-1.294 1.132-2.092 2.293-2.415 3.425 0 0-.162 1.123 0 1.123h.674c.485 0 .63-1.123.954-1.123 1.132-1.132 2.437-1.17 1.628-2.302-.162-1.132-.357-1.123-.842-1.123Zm-51.145.842c-.104.042-.18.14-.28.28-.81.001-1.434 1.17-.787 2.303h.617c.162-1.132.007-1.123.17-1.123h1.01c1.455 2.264 1.603 4.36-.337 6.624-2.264 1.132-5.648-.029-6.456-3.424-.162 0-.337.016-.337-.955H336.277c-.808-2.263-2.582-1.131-2.582 0-.162 3.234 3.37 5.502 6.12 5.502.808 0 1.598.01 2.245-1.123 2.91-2.263 1.792-4.36.337-6.624 0 0-.565-1.3-1.18-1.46a.57.57 0 0 0-.336 0Zm-34.695 1.46s-.793 2.254-.955 1.123h-3.424c-.162 1.132-.169 1.122-.169 1.122h1.292c-.97.97-2.92 2.125-2.92 3.257h1.348c.646 0 .925-1.18 1.572-1.18-.324 3.396-4.042 2.276-4.042 5.67h.673c.97-1.13 1.943-2.245 2.751-2.245-.485 3.396-4.21 3.398-4.21 6.793 1.131 0 1.774-1.17 2.582-2.301h.337v1.178c0 1.132-2.26 2.237-2.583 3.369-.323 3.234-.637 6.654-1.122 10.05-.162 3.395-.37 5.483-1.18 7.747-1.778 3.395-5.33 6.806-6.624 11.172-1.132 3.395-3.204 11.293-8.702 10.161-2.748-1.132-4.05-5.652-2.92-7.916.648-2.263 1.445-3.238 2.415-5.502 3.072-3.395 7.283-7.929 8.253-12.294.161-1.132.323-3.36 0-4.492l-.337-1.179c-.162-1.131.168-2.236.168-3.368 0 0-.02-1.123-.505-1.123h-.954c-.324-1.132-.167-2.302-1.46-2.302-.08 0-.147.015-.169.169v-.169c-1.293 0-1.084-.945-2.863-2.077-.323 0-.673-.009-.673 1.123h-.169c.162 2.102 1.628 2.124 1.628 3.256-.808-1.132-.96 0-1.123 0 .324 1.132.982 1.123 1.629 1.123.485 1.132-.36 2.246.449 2.246 1.293 1.131 3.263.038 3.424 2.301v3.369c-.485 2.102-1.976 5.484-3.593 7.747-3.719 4.528-10.152 10.052-7.242 16.842.323 1.132.806 1.114 1.291 2.246 1.94 1.132 3.371 1.123 6.12 1.123h1.01c.97-1.132 1.767-1.114 2.414-2.246.97-1.131 1.282-4.547 2.414-4.547h.337c.647 0 .456-.01.618 1.123.161 1.132-.456 2.292-.618 3.424-.162 0-.337 1.123-.337 1.123 0 1.132.344 1.114.506 2.246.485 2.102.64 3.238-.169 5.501-.323 0-1.318-.009-1.965 1.123-.647 0-.792 2.293-.954 3.425-.162 1.132.981 4.532 1.628 5.502.323 0 .462 1.122.786 1.122h1.123c.646 0 1.605 1.123 2.414 1.123 0-1.131.168 0 .168 0 .162-1.131-.323-2.245 0-2.245h.337c.162 0 .344 1.122.505 1.122.809-2.101 1.464-2.077 2.92-2.077h.786c0-1.131-4.68 0-5.165 0h-1.01c-.163-1.131.167-1.17.167-2.301-.323-1.132-.94-2.237-.617-3.369 0-1.132 1.15-1.17 1.796-2.302 1.617-1.131 3.858-3.36 4.829-4.491.808-2.102.812-3.247 1.46-4.379.646-2.263 1.43-3.407 2.076-5.67.324-1.132.8-2.237 1.123-3.369.324-1.131.364-2.124 1.01-3.256.486-1.131 1.27-2.236 2.078-3.368.97-1.132 1.956-3.416 3.088-4.548.323 0 .8.01 1.123-1.122.323 0 .63-1.123.954-1.123 0-1.132.505-1.123.505-1.123 1.455 1.132 2.077-2.124 2.077-3.256h1.292c.161 0 .343-1.123.505-1.123-.323 0-.618-1.123-.618-1.123h-1.628c-.161 0-2.414-2.302-2.414-2.302h-.673c-1.132-1.131-1.15-2.236-1.797-3.368-.485 0-1.136.009-1.46-1.123-.323 0-1.432-7.803-.786-7.803h.674c.162 0 1.123 4.547 1.123 4.547 2.587 0 1.275 4.379 2.246 4.379h.336s.301-1.123.786-1.123c.162 1.132.988 3.369 1.797 3.369h.617c1.132 0 1.95 2.301 2.92 2.301 1.617 2.264 3.26 3.36 4.716 4.492.808.97 1.935 1.001 2.582 2.133.647 1.132.631 2.237.954 3.368.162 0 .344-.009.506 1.123 1.455 0 1.599-1.114 2.245-2.245.162 0 .506-1.123.506-1.123 0-1.132-.176-1.123-.337-1.123-.162-1.132.175-2.133.337-2.133.161 0 .125-1.123.449-1.123h-.169c-.323 0-.624.009-.786-1.123l.337-1.123c-.162 0-.175-1.123-.337-1.123.162-1.131.337-2.301.337-2.301-2.263 0-1.154 5.679-3.256 4.547-.97 0-1.767-1.114-2.414-2.246-1.94-2.263-4.377-4.576-5.67-7.972 0 0-.288-.945-.45-2.077-.484-1.132-.987-2.293-1.796-3.424-.162 0-1.433-2.246-.786-2.246h.112c3.072 2.264.169-3.369.169-3.369h1.01c0-2.263-1.163-3.424-2.133-3.424-.242-.728-.298-.91-.45-.955h.955c.162 0 .162-1.122 0-1.122-.97 0-2.454-1.123-3.424-1.123-.485 1.132-.8 1.123-1.123 1.123-.323-1.132-.827-1.123-1.797-1.123h-.617Zm8.59 0c0 1.132-.05 1.114.112 2.245.161 0 .35.955.673.955 0 1.132-.022 2.302.786 2.302.647-2.264.045-4.37-1.572-5.502Zm90.33 0c-.324 1.132-.8 1.123-1.123 1.123h-2.75c-.648 0-1.094 1.122-1.741 1.122.323 0 .61-.015.449.955-.485 1.132-2.414 2.293-2.414 3.424H398.649c-.323 2.264-1.459 3.36-1.459 4.492h.674c.161 0 1.123-1.132 1.123 0s-1.593 3.415-2.078 4.547c-.323 1.132-.855 2.124-1.179 3.256-1.293 2.264-3.231 4.53-5.333 6.793-.809 1.132-1.45 2.246-2.582 2.246-2.264 1.132-1.092-3.416-3.032-4.547h-.337c.162 1.131.168 1.17.168 2.301 0 1.132-.042 2.246.281 2.246 0 1.132-.112 1.123-.112 1.123-.97 0-.169 2.077-.169 2.077 0 1.132-.498 1.17-.336 2.302.161 1.132 1.619 3.368 2.75 3.368.162 0 .295.01.618-1.123.323-1.131.202-2.236 1.01-3.368.647-1.132 2.112-2.133 2.92-2.133 1.455-1.132 3.036-2.237 4.491-3.369.809-1.132 1.606-2.293 2.414-3.424.485 0 .968 1.122 1.291 1.122.485-1.131.975-2.236 1.46-3.368h1.179c.323 0 .314-3.425 1.123-3.425H404.488c.324-.97.456-.945.618-2.077.161-1.132.175-1.114.337-2.246.161 0 .182-1.178.505-1.178.485 0 .786.047.786 1.178.323 1.132.043 1.114-.28 2.246-.324 2.102-.513 3.247-.674 4.38 0 1.131-.014 1.122-.337 1.122h-.955c-.485 1.132-1.796 3.368-1.796 3.368H401.4c-.97 1.132-1.27 2.302-2.078 2.302-.323 1.132-1.29 0-1.29 0-.163 0-.513 1.123-.675 1.123-.161 0-.134 2.246.674 2.246v-1.123h.337c.485 1.132.456 2.077.618 2.077.323 1.132.624 1.17.785 2.302h1.46c.162 0 .35 1.114.674 2.245 1.455 0 1.78 1.114 2.75 2.246 1.294 2.264 2.581 3.407 3.874 5.67.485 0 .625 1.163.786 2.134.485 1.131.807 3.359 1.292 4.49.323 2.264 1.48 3.407 1.965 5.671.646 1.132.65 3.247 1.46 4.379 1.13 2.264 6.792 5.652 6.792 7.916 0 1.132-.343 1.114-.505 2.246-.162 1.131.168 1.17.168 2.301H415.83c-.324 0-1.965-1.132-1.965 0h-.169c.647.97 1.62-.015 2.751.955.647 0 .806-.01 1.292 1.122h.954s.007 1.123.168 1.123h1.01c.648-1.131 1.761.01 2.247-1.123.808 0 1.13-1.107 1.29-2.077.81-2.263 1.433-3.406.787-5.67-.162-1.132-.126-1.17-.45-2.302h-1.122c-.809-1.131-1.137-2.236-1.46-3.368-.323-1.132.631-3.247.955-4.38.323-1.13-1.624-5.67-.169-5.67.647-1.131.961 1.18 1.123 1.18 1.778 4.527 3.234 5.614 8.084 5.614 1.294-1.132 1.312-1.123 1.797-1.123 7.599-5.659-1.004-14.552-4.885-20.21-1.293-1.132-2.883-4.524-3.368-6.625-.162-1.132-.64-3.36.168-4.492.485-1.131 3.537-.038 3.537-2.301h.169c-.162 0-.463-1.123-.786-1.123.646 0 2.077.018 2.077-2.246-.323 0-.786 1.132-.786 0h-.168c.97-1.132 1.634-1.154 1.796-3.256h-.168c-.809-1.132-3.088 1.001-3.088 2.133h-1.46c-.323 0-.786 2.246-.786 2.246-.323 0-.673.009-.673-1.123h-.169s-.337-.009-.337 1.123c-.647 1.132 0 2.237 0 3.368-.161 1.132-.617 2.293-.617 3.425 0 3.234 1.127 5.484 2.582 7.747.647 1.132 1.107 2.293 2.077 3.425 1.94 2.264 4.09 4.523 5.222 6.625.646 1.131.967 2.236 1.29 3.368.162 1.132-.006 2.246-.168 2.246-.485 2.263-1.462 4.547-4.21 4.547h-1.628c-4.85-1.132-5.022-9.061-6.962-12.295-.808-1.132-1.437-2.236-2.245-3.368-1.456-2.264-2.729-3.398-3.537-6.793-.809-2.264-.694-5.531-1.18-8.927-.161-1.131-.28-1.113-.28-2.245-.162-2.264-.034-4.532-.842-5.502-.323-1.132-1.143-1.114-1.628-2.246-.97-1.131-.112-1.123-.112-1.123.646 0 1.774 2.246 2.582 2.246v-1.123c-.162 0-.519-1.17-.842-2.301-.97-1.132-2.758-1.114-2.92-2.246v-1.123c.647 0 2.28 2.246 3.088 2.246-.161-1.132-.82-2.237-1.628-3.369-.808 0-2.414-1.114-2.414-2.245h.169c.485 0 1.922 1.122 2.245 1.122.647-1.131-2.414-3.424-2.414-3.424.162-.97.512-.955.674-.955.323 0-1.136-1.122-1.46-1.122-.808 0-1.156 1.122-1.965 1.122-.161-1.131-.664-2.245-1.796-2.245Zm-85.84 1.123c-.161 1.132-.154 2.077.17 2.077.322 1.132 2.245 2.293 2.245 3.424h.337c-.162-2.263-.488-4.37-2.751-5.501Zm77.924 0c-1.132 0-2.093 4.379-1.123 4.379s.8-1.17 1.123-2.302c.162-.97 1.294-2.077 0-2.077Zm-4.323 1.122c-1.778.97-2.259.993-2.582 3.257 0 1.132-.05 1.122.112 1.122h.337c1.293-1.131 2.414-2.292 2.414-3.424 0-.97.043-.955-.28-.955Zm-37.558.955c-1.455 2.264-4.844 4.556-7.916 3.424-.808-1.131-1.787-2.301-2.92-2.301-.484 3.395-2.865 4.547-5.613 4.547-.647 0-1.318.01-1.965-1.123h-1.46c0 1.132-.148 1.123.337 1.123h1.291c3.072 1.132 5.197 1.15 7.299-2.246.161 0 .786.01.786-1.122.646 0 .98 1.122 1.628 1.122 1.131 1.132 2.587 1.123 4.042 1.123.646 0 .981.01 1.628-1.123.485 0 2.863-1.17 2.863-2.301h.674c.97 2.263 3.42 3.424 6.007 3.424h1.123c.323-1.131.763-1.123 1.572-1.123.485 0 1.136-1.122 1.46-1.122.323 0 .525 1.122 1.01 1.122 1.293 2.264 4.044 3.369 6.793 3.369.808-1.132 2.245-1.114 2.245-2.246h-.336c-2.587 1.132-5.14 1.132-7.243 0-.808-1.131-1.473-2.293-1.796-3.424h-.674c-2.102 2.263-5.63 3.442-8.702 1.179-.808-1.132-1.325-2.302-2.133-2.302Zm-37.334 1.123c-.161 1.132-.33 1.17-.168 2.301.162 1.132.968 1.123 1.291 1.123.647 1.132.975 2.246 1.46 2.246 0 0 .013 1.123.337 1.123h.337c.485-3.396-1.316-5.662-3.257-6.793Zm76.015 1.179c-1.455 1.132-2.596 2.227-2.92 4.49 0 .001-.154 1.124.17 1.124h.336c.808-1.132.925-2.246 1.572-2.246.485-1.132.806-1.123 1.291-1.123.162-1.131.499-1.114.337-2.245h-.786Zm-76.8 2.245c-1.294 2.264.776 4.539 1.908 5.67.162 0 .674 1.123.674 1.123h.337c0-3.395-.98-4.53-2.92-6.793Zm77.754 1.123c-.646 0-.63 1.123-.954 1.123-1.132 1.132-1.797 2.284-1.797 4.547h.674c.809-1.131 4.348-4.538 2.246-5.67h-.169Zm-45.754 1.123c-.647 1.132-.465 2.246.505 2.246-1.455 0-2.286 1.178-3.256 1.178-1.294 0-8.253 1.114-8.253 2.246h.168c1.94 0 3.064.01 5.165-1.123 2.102 0 5.81-1.123 6.457-1.123h5.052c5.821 0 10.988 1.114 16 2.246.485 0 2.414 1.132 2.414 0h-1.29c-1.78-1.132-4.348-2.246-6.289-2.246-2.748-1.131-6.184-1.178-9.094-1.178h-6.793c.808-1.132.352-2.246-.618-2.246h-.168Zm3.087 0c-.323 0-.689 1.123.281 1.123h1.18c-.324-1.132-.652-1.123-1.46-1.123Zm3.032 0c-.647 0-.29 1.123.842 1.123.809 0-.195-1.123-.842-1.123Zm2.975 0c-.12.053-.215.274-.336 1.123-.162 0 .918 1.132 1.403 0 .809 0-.63-1.123-.954-1.123-.04 0-.072-.018-.113 0Zm3.032 0c-.121.849-.54 1.07-.73 1.123.047.007.245.085.393 1.123h1.01c.324 0 .463.009.787-1.123-.485 0-.813-1.123-1.46-1.123Zm-18.246 1.123c-.97 1.132-.534 1.17.113 2.301 1.455-1.131 1.342-2.301-.113-2.301Zm3.2 0c-.161 0-.822 1.123-.337 1.123.647 0 1.298.009 1.46-1.123h-1.123Zm17.516 0c-.136.05-.251.274.113 1.123h1.46c.16-1.132-.153-1.123-1.124-1.123h-.336c-.04 0-.067-.017-.113 0Zm3.537 0c-.162 0-.162 1.123 0 1.123.485 1.131 1.404 0 1.404 0-.162-1.132-.757-1.123-1.404-1.123Zm-50.47 1.123c.161 2.263.799 2.292 1.122 3.424.162 1.132.357 2.124.843 3.256h.617c.485-2.102-.642-5.549-2.582-6.68Zm6.007 0c0 1.131-.007 1.17-.169 2.301h-.673c-.324 1.132-.128 2.246.842 2.246s1.57-1.123 2.863-1.123c0 1.132-.97 2.124 0 3.256h.674c.323 0 1.122-2.133 1.122-2.133h.955s-.485-2.246 0-2.246h8.421c.97-1.131-1.43-2.301-2.077-2.301h-6.175c-1.133 1.131-1.937 2.301-2.583 2.301h-.337c-1.132 0-1.57-2.301-2.863-2.301Zm17.291 0c-.97 0-.03 2.31.618 1.178.808 0 .514-1.178-.618-1.178Zm29.418 0c.485 1.131.813 1.178 1.46 1.178.161-1.131-.034-1.178-.843-1.178h-.617Zm6.793 0c-.809 1.131-1.13 1.17-1.291 2.301.485.85.674 1.07.954 1.123h-.618c0 1.132-.33 1.107-.168 2.077 0 0 .168.047.168 1.18h.45c.161-1.132.983-2.125.336-3.257.052.002.108 0 .169 0 .323-1.132.449-1.123.449-1.123h5.221c.162 0 .456 1.123.618 1.123l1.122-1.123c.162 0 .176 1.123.337 1.123 0 0-.323 1.123 0 1.123.485 0 .625-.016.786.954.323 0 .49 1.18 1.46 1.18 1.455 0 .337-2.125.337-3.257h.673c.324 0 1.572 1.123 1.572 1.123.97.97 1.628 0 1.628 0-.161-1.132-.954-2.237-.954-3.369l-.168-1.178h-.506c-.485 1.131-1.437 2.301-2.245 2.301-1.132 0-1.788-1.123-2.92-1.123h-1.46c-.484-1.131-1.086-1.178-1.571-1.178h-4.379Zm-38.176 1.178c-.485 0-.168 1.123-.168 1.123h.673l.169-1.123h-.674Zm34.583 0c-.485 0-.485 1.123 0 1.123h.673c.162 0 .155-1.123-.168-1.123h-.505Zm22.344 0c-1.132 1.132-1.48 1.114-1.965 2.246-.324 1.132-.28 2.124-.28 3.256.16 1.132.293 1.132.617 0 .646-1.131.806-2.124 1.291-3.256.323 0 .519-1.123.842-1.123 0-1.131-.182-1.123-.505-1.123Zm-64.506 2.246c-.162 0-.317 2.077.168 2.077v1.18h.45c.646-2.103.999-2.125-.618-3.257Zm2.92 0a2.019 2.019 0 0 0 0 2.077c.161 1.132.449 1.132.449 0 .485-.97.85-.945-.281-2.077h-.169Zm2.413 0c-.323 1.132.337 2.077.337 2.077.324 1.132.294 1.132.618 0 .162-.97.339-.945-.955-2.077Zm42.05 0c-.323 1.132-.346 3.256.786 3.256.161-1.131.669-2.124-.786-3.256Zm3.368 0c-.323 1.132-.624 1.123-.786 1.123-.161.97.146 2.133.955 2.133.323-1.131.478-2.124-.169-3.256Zm-53.502 3.256c-.97 1.132 1.46 1.123 1.46 1.123h.168c-.485-1.132-.981-1.123-1.628-1.123Zm4.21 0c-.484 1.132-.525 1.114-1.01 2.246h-.617c-.809 2.264.637 3.416 1.122 4.547 0 1.132.149 2.246-.336 2.246h-.955c.162 1.132.505 1.123.505 1.123.809 1.132 3.043 3.247.618 4.379h-.954c.323 1.131 1.621 2.236 1.46 3.368-.324 1.132-2.246-.009-2.246 1.123.323 0 .617 1.179.617 1.179 0 1.132-.505 1.114-.505 2.246.162 2.263-.148 12.276.337 14.54.162 1.132.35 2.286.673 3.256 4.528 12.45 16.288 13.586 28.576 13.586h1.628c.97-1.132 1.781-1.179 2.751-1.179h1.628c1.617 0 2.425.01 4.042-1.122 1.455 0 2.412-1.123 3.706-1.123 1.455-1.132 2.735-2.237 3.705-3.369 3.072-2.263 4.855-5.683 5.502-10.049v-14.54c0-1.132-.281-1.114-.281-2.246l.45-1.179c-.971 0-2.556-1.114-1.91-2.246.162 0 .638-1.122 1.123-1.122.162-1.132.169-1.123.169-1.123h-1.965c-1.294-1.132 1.311-3.247 1.796-4.38h.337c.162 0 .162-1.122 0-1.122-.97 1.132-1.291 0-1.291 0-.324-1.132-.211-1.114.112-2.246s2.297-2.292.842-3.424c-.162-1.132-.519-1.123-.842-1.123 0 0-.119-1.123-.28-1.123 0 0-.337.01-.337-1.123h-.506c-.161 1.132-.954 2.255-.954 1.123-.647 0-1.157-1.123-1.965-1.123-.162 1.132-.308 1.123-.954 1.123-.809 0-1.114-1.123-2.246-1.123h-35.593c-.324 0-2.246 2.255-2.246 1.123 0 0-.337.01-.337-1.123-.808 0-1.269 1.123-2.077 1.123-.485 0-.806-1.123-1.291-1.123Zm52.043 0c-.323 0-.974 1.123-1.46 1.123.162 1.132.19 1.123.674 1.123.647-1.132 1.572-1.114 1.572-2.246h-.786Zm-55.298 5.614c-.162 1.132 1.122 1.17 1.122 2.302h.337c.162 0 .169.01.169-1.123-.324 0-.82-1.179-1.628-1.179Zm53.839 0s-.948 1.17-.786 2.302h.618c.16 0 1.122-1.123 1.122-1.123-.162-1.132-.308-1.179-.954-1.179Zm-53.334 5.67c-.324.97 1.136 2.087 1.46.955-.067-.186-1.177-.954-1.46-.954Zm53.39.225c-.182 0-.344.245-.506.73h-1.01c0 1.132.961 1.179 1.123 1.179.323 0 1.165-1.179.842-1.179-.081-.485-.267-.73-.45-.73Zm-53.895 4.155c-.809 1.131 1.46 2.254 1.46 1.122-.162-1.131-.652-1.122-1.46-1.122Zm53.839 0c-.647 0-.948 1.113-.786 2.245h.168c1.293 0 2.881-2.245.618-2.245Zm-62.26 2.245c-.486 1.132-.492 3.416-.169 4.548.323 1.131 1.186 2.245 1.347 2.245.162-2.263.115-6.793-1.179-6.793Zm6.512 0c-.324 1.132-.162 1.123 0 1.123.485 1.132.757 1.179 1.403 1.179h.169c.161 0 .161-1.179 0-1.179-.647 0-.925.009-1.572-1.123Zm64.674 0c-.485 1.132-1.954 6.793-.337 6.793.162 0 .456-1.123.618-1.123.323-1.131.85-4.538-.281-5.67Zm-6.288.674c-.09.053-.231.166-.393.449h-.28c-.324 0-.843.047-.843 1.179.809 0 1.797-.047 1.797-1.179 0 0-.008-.608-.28-.45Zm-79.102 6.12c-.324 0-.463 1.122-.786 1.122-.324 2.102-.813 3.238-1.46 5.502-.323 1.132-1.179 2.293-1.179 3.424 0 1.132 1.15 2.237 1.797 3.369h1.46c.646 1.132.799 1.163 1.122 2.133.324 1.132 1.116 3.36.955 4.491-.324 1.132-.786 2.302-.786 2.302.161 2.264 1.94 8.87 4.042 8.87.808 0 .82-1.122 1.628-1.122h.954c.485-.97.827-1.002 1.797-2.134H317.526c-.161 0-.168-1.122-.168-1.122-1.617 0-4.202 1.131-5.334 0-.485 0-.512-1.114-.673-2.246-.324-2.264-.64-3.407.168-5.67.324 0 1.123-1.114 1.123-2.246.162-2.102-.463-4.37-.786-5.502-.485-2.263-.483-4.53-1.291-6.793-.647-1.131-1.774-2.286-2.583-3.256-.485 0-.664-1.123-1.796-1.123Zm99.088 0c-.808 2.101-2.573 3.237-3.705 5.501-.647 1.132-.631 3.416-.954 4.547-.162 2.264-.843 3.4-.843 5.502-.161 2.264.694 3.35 1.18 5.614.646 1.132.148 3.407-.337 5.67-.647 2.264-3.106 1.123-4.885 1.123-.161 0-.617-1.131-.617 0h-.169c.485 1.132 1.613.047 2.583 1.18.485 0 .68.954.842.954h1.123c.161 1.132.294 1.122.617 1.122v1.123c2.91-1.131 3.894-5.484 4.38-7.747.16-1.132.343-1.123.505-1.123 0-1.132-.512-1.17-.674-2.302-.162 0-.169-1.114-.169-2.245.324-1.132.827-3.41 1.797-4.38.485-1.131 1.311-1.122 1.796-1.122.809 0 1.424-1.114 1.91-2.246v-1.123c-.324-1.131-.457-1.122-.618-1.122-.324-1.132-.519-2.293-.842-3.425-.647-1.132-.82-3.409-1.628-4.379-.324-1.132-.645-1.123-1.292-1.123Zm-87.635 1.122c-.324.97 1.457 6.634 2.75 5.502h.169c-.323-2.264-1.464-4.532-2.92-5.502Zm76.688 1.01c-1.455 0-2.751 3.351-2.751 5.615h.617c.809-1.132 3.378-4.483 2.246-5.614h-.112Zm-70.681 1.123c-.809 2.264-1.79 4.53-1.628 6.793h.336c.97 0 2.747-5.66 1.292-6.793Zm64.505 0c-.646 2.264.189 4.539.674 5.67.485 1.132.624 1.114.786 2.246 1.132-1.131-.013-5.67-.337-5.67-.323-1.132-.8-1.114-1.123-2.246Zm4.885 9.657c-.104-.033-.263.08-.506.505-.97 1.132-2.266 3.247-2.75 4.379-.162 1.132-.162 1.123 0 1.123h.168c1.617 0 3.368-3.4 3.368-5.502-.1 0-.108-.45-.28-.505Zm-73.938.505c-.323 0 .007 1.123.169 1.123.161.97 1.942 4.379 2.75 4.379.324 0 .337-1.123.337-1.123-.323-1.132-1.962-4.38-3.256-4.38Zm6.007 2.133c-.646 0-1.617 5.614 0 5.614.324 0 2.102-4.482 0-5.614Zm61.587 0c-.485 2.264-.324 3.35 0 5.614 0 0 .337.047.337 1.18h.336c0-1.132.169-1.18.169-1.18.646 0 .316-3.36-.169-4.491 0 0-.188.009-.673-1.123Zm-65.797 7.916c.161 1.132.47 1.114.954 2.246.97 1.132 1.97 2.292 3.425 3.424h.786c-.324-2.263-3.225-4.538-5.165-5.67Zm69.951.28c-.162 0-.319.277-.561.843 0 0-4.38 3.415-4.38 4.547h.17c1.778 0 5.164-3.415 5.164-4.547-.08-.566-.231-.842-.393-.842Zm-6.793 1.46c-.066-.033-.207.081-.449.506-1.132 1.132-2.414 2.277-2.414 4.379h.337v-.955c1.455 0 2.582-3.424 2.582-3.424s.055-.45-.056-.506Zm-104.253.506c.161 1.132.84 2.245 2.133 2.245h.505c-.323-1.131-1.183-2.245-2.638-2.245Zm48.393 0c0 1.132 1.127 3.424 2.582 3.424.162-1.132-1.289-3.424-2.582-3.424Zm103.636 0c-.647 0-2.45 1.114-1.965 2.245.162 0 .182 1.18.505 1.18v-1.18c.809 0 2.437-1.114 1.628-2.245h-.168Zm-53.895 1.796c-.101.053-.247.166-.45.45-.808 1.131-2.258 2.124-2.582 3.255 0 0 .007-.008.169 1.123 0 0 .168.01.168-1.123 1.293 0 3.032-2.124 3.032-3.256-.122 0-.034-.608-.337-.449Zm-76.127.45c.323 1.131 2.412 3.255 3.705 3.255 0-1.131-2.25-3.256-3.705-3.256Zm25.712 0 .169 1.178h.505c-.162 0-.35-1.179-.674-1.179Zm6.176 0c.323 1.131 2.075 3.255 3.368 3.255.162-1.131-1.913-3.256-3.368-3.256Zm76.632 0c-1.132 1.131-3.593 2.115-3.593 4.378h.842c.97-1.131 3.398-2.277 2.751-4.379Zm-91.846 1.178c-.324 0 .981 2.086 1.628.955.323 0-.35-.955-.674-.955h-.954Zm13.754 0s.133.955.618.955c0-.97.168-.955.168-.955h-.786Zm47.327 0c-.162 0-.155.955.168.955.485-.97.485-.955 0-.955h-.168Zm13.923 0c-.809 0-1.628.946-1.628 2.077h.505c.323-1.131 1.803-2.077 1.965-2.077h-.842Zm-111.159.506c-.026.006-.026.025-.056.056-.121.121-.256.393-.337.393 0 0 .182 1.122.505 1.122.485-1.131.76-1.122.113-1.122-.061-.364-.148-.47-.225-.45Zm-3.368.449c-.592.053-1.236.274-1.236 1.122h1.292c.646 1.132 1.318 1.123 1.965 1.123.323-2.263-.328-2.245-1.46-2.245-.162 0-.364-.018-.561 0Zm16.898 0c0 1.132.476 2.245 1.123 2.245.485-1.131-.638-2.245-1.123-2.245Zm3.032 0c-.162 1.132.65 2.245 1.46 2.245h.336c-.485-1.131-.826-1.114-1.796-2.245Zm16.842 0s.476 1.122 1.123 1.122c.646-1.131-.962-1.122-1.123-1.122Zm8.252 0c-.485 1.132-2.301 1.114-2.301 2.245h2.301c.647-1.131 1.6-1.123 2.246-1.123 4.527 0 9.2 2.293 13.08 3.425.81 1.132 1.775 1.123 2.583 1.123 1.132 0 2.587 1.123 4.042 1.123.486 0 1.13.009 1.292-1.123h-.113c-2.101 0-4.242-1.123-6.343-1.123-.97-1.132-2.069-1.179-3.2-1.179-4.366-2.263-8.413-3.368-13.587-3.368Zm72.085 0s-.8 1.122-1.123 1.122h.786c.647 0 1.146-1.122.337-1.122Zm33.348 0c-.114.053-.169.274-.169 1.122h.618c.162 0 .182.01.505-1.122H429.527c-.04 0-.074-.018-.112 0Zm2.245 0c-.485 1.132-.963 2.245.169 2.245.647 0 1.592.01 2.077-1.123h.337c-.647-1.131-1.45-1.122-2.583-1.122Zm-43.902.842c-1.293 0-2.76.28-3.649.28h-2.414c-.808 0-1.774-.008-2.582 1.123-3.72 0-7.285 1.17-11.004 2.302-1.132 1.132-2.418 1.123-3.874 1.123v1.123h1.91c1.293 0 2.474-1.123 3.929-1.123 1.455-1.132 3.548-1.123 5.165-1.123 2.425-1.132 5.16-2.302 7.747-2.302h1.46c1.455-1.131 3.878 0 5.333 0h.618c-.243-1.131-1.345-1.403-2.639-1.403Zm-69.109.28c-.323 2.264.939 1.123 1.909 1.123h-.169c-.485-1.131-1.093-1.123-1.74-1.123Zm21.783 0c.161 0 2.44 3.378 3.087 2.246.647-1.132-2.602-2.246-3.087-2.246Zm14.54 0c-.31.054-.543.274-.786 1.123h-.168c-.324 1.132 1.45 3.434 2.582 2.302.97-1.132 1.294-2.293 0-3.425h-1.291c-.121 0-.233-.017-.337 0Zm15.72 0c-.647 0-2.92 1.114-2.92 2.246h.842c.647 0 3.21-1.114 2.078-2.246Zm22.007 0c-.122.85-.327 1.07-.562 1.123h1.685v-1.123h-1.123Zm19.761 0c-.41.054-.673.274-.673 1.123.161 0 .294 1.132.617 0 .323 0 1.278-1.123.955-1.123h-.45c-.161 0-.312-.017-.449 0Zm3.369 0c-.324 0-1.49 1.123-.842 1.123h.336c.485 0 1.123-1.123 1.123-1.123h-.617Zm-131.594 1.123c-.07.05-.056.274-.056 1.123h3.424c4.297 1.003 8.616 1.166 13.25 1.18-.324-1.133-.982-1.18-1.629-1.18h-1.908c-.647 0-.988-1.123-1.797-1.123-.647 0-1.15 1.123-1.796 1.123h-3.2c-.809 0-1.781-1.123-2.751-1.123h-3.425c-.04 0-.089-.017-.112 0Zm26.161 0c-1.131 0-2.573 1.123-3.705 1.123h-3.761c-.787 0-1.533 1.121-2.021 1.18h9.151c0-1.133 3.085-1.18 4.379-1.18h.954c.647 0 1.318.01 1.965-1.123h-3.593c-.809 1.132-2.075 0-3.369 0Zm18.583 0c-1.132 1.132-4.518 1.17-5.165 2.302 0 0-.33 1.123-.168 1.123h.168c1.94 0 3.373.009 4.828-1.123.324 0 2.14-1.179 2.302-1.179h-.169c-.646 0-1.15-1.123-1.796-1.123Zm65.965 0v1.123c3.72 1.132 8.098 1.18 12.464 1.18 2.263 0 4.704 1.122 7.13 1.122.808-1.132 3.359-1.123 4.49-1.123h4.043c.647 0 2.623-1.179 3.593-1.179h1.123s.155-1.123-.169-1.123c-1.778 0-3.555 1.123-5.333 1.123h-5.502c-.808 0-1.325.047-2.133 1.18-.647 0-.813-1.18-1.46-1.18-.808 0-1.262 1.18-1.909 1.18-.808 0-1.325-1.18-2.133-1.18h-5.614c-.485 0-1.15.01-1.797-1.123-.646 0-1.43 1.132-2.077 0h-4.716Zm-13.754 1.123c.647 1.132 1.143 1.18 1.628 1.18.647 0 5.01 1.13 5.333 0 .162-1.133-5.156-1.18-6.287-1.18h-.674Zm-31.495 1.18c.323 1.131 1.43 1.122 2.077 1.122.485 1.132.631 1.123.955 1.123.161 1.132.336 1.123.336 1.123h.337c2.102-1.132.824-2.237-.954-3.369H349.694Zm9.993 0c-.97 0-3.7 1.104-2.246 3.368h1.123c.324 0 .631-1.123.955-1.123.485-1.132 2.133-1.114 2.133-2.246h-1.965Zm-53.67 1.122c-2.91 0-4.38 2.246-4.38 2.246h.337c1.617 1.131 6.962.017 6.962-2.246h-2.92Zm30.26 0c-.81 0-2.92 1.114-2.92 2.246h3.537c.647 0 3.25-1.123 3.088-1.123-.162-1.132-2.897-1.123-3.706-1.123Zm36.435 0c-.592.053-1.235.274-1.235 1.123 1.94 1.132 3.413 1.123 5.838 1.123h.955c.161 0 .21-1.123-.113-1.123-1.293-1.132-3.267-1.123-4.884-1.123-.162 0-.364-.018-.561 0Zm30.316 0s.006 1.123.168 1.123h.954c.647 1.132 5.853 2.254 6.176 1.123.647-1.132-5.83-2.246-6.961-2.246h-.337Zm-52.548 1.123c-1.617 0-3.211 1.123-4.828 1.123h-1.18c-.16 0-.111 1.122-.111 1.122s.139-.009.786 1.123c1.131-1.132 2.117-1.123 3.087-1.123.97 0 1.781-1.122 2.751-1.122H351.436s-.007.008-.17-1.123h-.785Zm10.05 0s-.176 1.123-.338 1.123c.324 0 4.7 1.113 5.67 2.245h.45c2.91-2.263-4.651-3.368-5.783-3.368Z" fill="#FFFFFF"/>
    <path d="M310.34 4.812c-1.285.067-1.882.33-2.245 1.18-.324 0-.47 1.122-.955 1.122h-.786c-2.102 0-3.543 1.114-3.705 2.246-.323 1.132-.856 1.122-1.179 1.122-1.455 0-3.038.039-3.2 2.302-.162 1.132.337 1.114.337 2.246.162.97.146 2.068.954 3.2.324 0 2.098 1.179 2.583 1.179.323 0 .456-.047.617-1.18.162.001.483-1.13 1.291 0 .486.001.05 1.18-.112 1.18-.161 0-.343 1.123-.505 1.123h-1.796c-.809 2.264-.01 3.368 1.122 3.368.485 0 .975 1.123 1.46 1.123h.337c.323 0-.007.047-.169 1.179h-1.291c-1.778 0-2.58 1.114-3.874 2.245v.955c-.161 1.132-1.605 2.284-2.414 4.547h-.168c.647 1.132.808 2.237 0 3.369-.162 0-.337 1.123-.337 1.123l.168 1.178c-.161 1.133-.785 2.237-.785 3.369l.168.954c0 2.264-.168 3.407-.168 5.67-.162 2.264-.182 4.53-.506 6.794-.161.97-.3 2.124-.786 3.256-.97 2.264-2.124 3.406-3.256 5.67-.647 1.132-1.43 1.105-2.077 3.368-.323 0-.849 1.123-1.01 1.123-.97 3.234-2.078 11.181-6.12 10.05-3.88 0-2.922-5.653-1.628-7.916 1.293-2.102 3.26-4.361 4.716-6.625 2.102-2.263 3.864-5.708 4.996-7.972.485-2.102.647-4.361 0-6.625-.485-1.131-.006-2.236-.168-3.368-.162-1.132-.49-3.409-1.46-4.38h-1.291c-.323.001-.456-1.122-.618-1.122-.808 0-1.83-1.123-2.638-1.123-.647 0-2.877-1.131-3.2 0-1.132 0-.485 5.493 0 6.625 0 0 .462-.01.786 1.123.485 1.132.644 1.114 1.291 2.245.808 1.132 2.596 1.17 2.92 2.302.646 0 .323 2.237 0 3.369-.81 3.234-3.695 5.53-6.12 8.926-3.719 4.528-7.43 10.004-3.874 15.663 1.455 2.264 3.883 4.38 6.793 4.38 1.455 0 2.574-.041 3.706-1.011h1.74c.162 0 .344.04.505 1.01.324 0 .492 1.114.169 2.246-.324 1.132-1.43 1.123-2.078 1.123-.323 1.132-1.179 5.66-1.179 6.793 0 1.132 1.48 3.4 1.965 5.501H286.144c-2.91-1.131-1.95-3.238-2.92-5.501-.647-1.132-3.092-2.246-4.547-2.246-2.425 0 .674 4.491.674 4.491-.162 1.132-.512 1.18-.674 1.18-1.617 0-2.412-.016-3.705.954 0 1.132.63 1.122.954 1.122 1.779 2.264 4.397 3.387 6.175 1.123h.618c0 1.132-.94 1.17-.618 2.302.324 1.132 10.517 2.246 12.295 2.246h4.828c.162 0 0-.01 0 1.123 0-1.132-.96-.01-1.122 1.122-.324 0-.317 1.123.168 1.123H305.849c1.617 0 3.416-1.114 4.547-2.245.485-1.132.813-1.114 1.46-2.246 1.455 0 2.868.009 4.323-1.123h2.47c.809 0 1.774-.047 2.583-1.179.161 0 .336 1.18.336 1.18-.646 0-.848 1.122-1.01 1.122.808 0 1.767 1.123 2.414 1.123h3.256c1.617 0 3.086.009 4.38-1.123.484 0 .931.009 1.74-1.123h.168v1.123h-.169c-.161 0-.637-.01-1.122 1.123-.647 0-1.137 1.114-1.46 2.245h1.628c1.94 0 3.905 1.123 6.007 1.123 1.779-1.131 2.875-2.245 4.491-2.245 0 1.132.189 2.245.674 2.245.16.402.334.761.561 1.01h4.66c.696-.315 1.36-.715 1.909-1.01.494 0 .79.698 1.123 1.01h1.74c.98-1.075 2.5-2.133 3.425-2.133.77 0 1.967 1.058 2.919 2.134h1.46c.345-.147.645-.47.954-1.01.936 0 2.178.59 3.425 1.01h3.705c.292-.225.57-.58.786-1.01.323 0 .35-1.115.674-2.246h.28s.52-.01.842 1.122c.809 0 1.95-.009 2.92 1.123 2.263 0 5.8.01 7.579-1.123.323 0 .512.01.673-1.122 0 0-2.104-2.246-2.75-2.246 0-1.132 1.122 0 1.122 0 1.617 1.132 3.218 1.123 4.997 1.123.97 0 5.178.009 5.502-1.123.323 0-.02-1.123-.506-1.123h.337c2.264 0 4.186-.009 6.288 1.123H400.109c.323 1.132.52 1.123.842 1.123 1.779 2.264 4.683 3.368 7.916 3.368h3.537c.485 0 1.803 1.132 1.965 0 .161-1.131-1.136-2.245-1.46-2.245h.281c0-1.132 1.81-1.132 2.133 0 2.102 0 13.557-2.237 14.204-3.369.485 0-.119-1.17-.28-2.302.807 0 1.261 1.123 1.908 1.123 1.778 1.132 5.024-1.114 5.67-2.246 0 0-1.136-1.122-1.46-1.122-.808-.97-1.948-.955-2.919-.955 0 0 .52-1.179.843-1.179.646-1.131 1.277-2.227.954-4.49-2.426 0-5.03 1.104-5.839 3.368-.323 1.132-.132 2.286-.617 3.256-.486 1.132-2.61 1.122-3.256 1.122.323 0 2.133-4.37 2.133-5.501.161-1.132-.532-4.539-1.179-5.67-.324 0-.631.008-.954-1.123h-1.123c-.324-2.264-.03-3.41.617-4.38.808.001 1.662.041 2.47 1.011h4.492c2.425 0 4.208-.992 5.502-3.256.97-1.131 1.46-3.407 1.46-5.67-.163-3.395-2.559-6.598-4.66-9.993-.81-1.132-1.5-1.17-2.47-2.302-.971-1.131-1.943-2.237-2.752-3.368-.323-1.132-.624-1.114-.786-2.246-.323-1.132-.63-1.163-.954-2.133-.324-1.132-.162-2.237 0-3.369 1.131 0 2.111.01 2.92-1.123.646-1.131.806-1.17 1.29-2.301.324-1.132.638-1.114 1.123-2.246s.773-4.37.45-5.502c-.162 0-.638-1.123-1.123-1.123-1.132 0-4.02 1.114-4.828 2.246-.486 0-.807-.016-1.292.954h-1.122c-.648 1.132-1.13 1.17-1.292 2.302-.323 1.132.162 3.36 0 4.491-.162 1.132-.175 1.17-.336 2.302-.163 3.396.334 5.475 1.628 8.87 1.131 1.133 2.593 3.407 4.21 5.67 1.94 2.265 4.02 4.353 4.828 7.748 0 0 .007 1.123.169 1.123 0 3.396-.158 3.415-2.583 4.547h-2.302c-.162-1.131-.294-1.123-.617-1.123-2.264-3.395-2.91-6.815-4.042-10.049-.324-1.131-1.437-2.236-2.246-3.368-1.455-2.263-3.27-5.652-3.593-7.916-.324-1.132-.287-2.124-.449-3.256-.324-3.395-.674-6.766-.674-10.162 0-1.131.175-1.163.337-2.133-.324 0-.512-1.114-.674-2.246v-2.301c-.162 0-.786-1.114-.786-2.246-.323-1.132.499-1.114.337-2.246-.485 0-.974-1.123-1.46-1.123-.323-1.131-.686-2.301-1.01-2.301 0-1.132-.119-1.107-.28-2.078 0 0-.807-1.122-1.292-1.122-1.132-1.132-3.108-1.17-3.593-2.302h.169c2.101 0 4.72-2.228 2.133-4.491h-.337c-1.455 0-2.27-2.302-.168-2.302 0 1.132.182 1.17.505 2.302h.786c2.425-2.264 2.764-2.268 3.088-5.502 0-.849.145-1.07.168-1.123-.162-2.263-2.3-2.293-3.593-3.425-.809 0-.483-1.113-1.291-2.245-.647 0-1.78-1.132-2.751 0h-1.123c-.647-1.132-.974-1.114-1.46-2.246-1.455-1.131-3.68-1.179-5.782-1.179-.324 0-.856 1.18-1.179 1.18-1.779 0-1.275-.01-2.246 1.122-.97 0-2.236-.009-3.368 1.123-.324 0-.519 1.123-.842 1.123-.324 0-.638 1.122-1.123 1.122-.324 1.133-.813 1.17-1.46 2.302-.162 0-.02 1.114-.505 2.246H383.772c-.808 0-1.605-.016-2.414.954-.808 0-1.15 1.123-1.796 1.123-.486 1.132-1.262 1.17-1.909 2.302h-.168c-.162 0-.169-1.18-.169-1.18 0-1.13-.337-2.245-.337-2.245 0-.97.169-.945.169-2.077 0-1.131-.166-5.67-1.46-5.67-1.455-1.132-3.366 1.123-4.66 1.123-.646 1.132-1.486 1.122-2.133 1.122-.485 1.133-1.136 1.17-1.46 2.302-.97 0-1.929 1.114-2.414 2.246-.808.97-.125 2.068-.449 3.2-.323 0-.855 1.179-1.179 1.179-.323 1.132-.119 2.245-.28 2.245-.162 1.133-.836 2.246-.674 2.246 0 2.264 1.311 2.293 1.796 3.425 0 0-.806 1.122-1.29 1.122-.486.97-.807.955-1.292.955-1.617 0-3.101-.946-3.425-2.077-.161-1.132-.161-1.17 0-2.302h.842c1.617 0 2.583.018 2.583-2.246v-1.123c.323-1.131.954-1.113.954-2.245-.161-1.132-.337-1.17-.337-2.302 0-1.131.486-2.068 0-3.2-.161-1.131-.637-1.17-1.122-2.302-.324 0-.456-1.123-.618-1.123-.647-1.131-1.143-1.113-1.628-2.245-.485 0-1.78-3.425-2.75-3.425-1.456 0-3.06 3.416-3.706 4.548-.324 0-.687-.01-1.01 1.122-.162 0-.288 1.123-.45 1.123-.647 1.132-1.641 1.17-1.965 2.302-.323 1.132.337 2.068.337 3.2 0 1.132-.505 1.17-.505 2.302-.162 1.132.519 2.236.842 3.368.323 1.132.314 2.246 1.123 2.246h1.74c.323 0 .337 1.179.337 1.179 0 2.264-1.127 2.23-2.583 3.2h-.449c-1.293 0-2.94-.946-3.424-2.077-.162 0 1.796-1.17 1.796-2.302 0-1.132-.343-1.114-.505-2.246-.162-1.131.499-2.236.337-3.368-.162 0-.512-1.18-.674-1.18-.162.001-.456-1.122-.617-1.122-.324-1.131-.146-2.068-.955-3.2-.647-1.131-1.83-1.123-2.638-1.123-.324-1.131-.463-1.17-.786-2.302-.809 0-1.438-1.122-2.246-1.122-.97 0-2.131-2.246-3.425-2.246-1.293 0-1.753 4.538-2.077 5.67-.162 0-.343 1.123-.505 1.123-.162 1.132.337 1.107.337 2.077.161 1.132-.182 2.293-.505 3.425h-.281c0-1.132-1.817-1.17-2.302-2.302-.647 0-.932-1.123-1.74-1.123-.485-.97-.975-.954-1.46-.954h-1.628c-.323 0-.806.009-1.291-1.123-.97 0-.357-1.123-.842-1.123-.647-1.131-.926-2.302-1.572-2.302-.324-1.131-.688-1.122-1.01-1.122-.163-1.132-.45-1.123-.45-1.123-.808-1.132-2.286-1.114-3.256-2.246-.485 0-.8-.047-1.123-1.179h-5.164c-.607 0-1.088-.022-1.517 0Zm.056 1.18c.97 1.131.324 1.113 0 2.245-1.455 0-.646-2.246 0-2.246Zm2.751 0h1.292c0 1.131.168 1.122.168 1.122.647 0-1.633 2.255-3.088 1.123-.647 0 1.467-1.114 1.628-2.246Zm42.499 1.122c2.102 1.132 1.453 3.36 1.291 4.491h2.133c.647 1.132-.98 2.293-1.628 3.425-.323 0-.68.954-.842.954 0 1.132.007 1.123.169 1.123 1.293 1.132 3.395-3.2 4.042-3.2 0 0 .168-.009.168 1.123 0 .97-.314.945-1.123 2.077 0 1.132 1.453 1.17 1.292 2.302 0 1.132-.295 1.123-.618 1.123h-.337c-1.132 0-2.784-.01-3.593 1.122-.485 0-.806 1.123-1.291 1.123-.162 0-.119.01-.28-1.123-.81 0-1.788-1.122-2.92-1.122h-1.797c0-1.132-.002-2.302 1.292-2.302 0-1.132-.456-1.123-.618-1.123-.647-1.132-.155-2.068.169-3.2h.28c.162 0 .344 1.123.506 1.123.323.97.994 2.077 1.964 2.077h.955c.323 0 .337.01.337-1.123.161-.97-1.325-2.068-2.134-3.2-.161-1.132-.336-1.179-.336-1.179.161 0 .168.01.168-1.123.485 0 .961 1.123 1.123 1.123.04.283.13.453.168.506.087-.056.169-.506.169-.506h.168c-.162-1.132-.168-1.123-.168-1.123-.162-1.131.482-2.236 1.29-3.368Zm43.004 0c.646 0 3.229 1.114 2.582 2.246-.808 1.131-3.714-1.114-2.582-2.246Zm2.919 0c.323 0 2.268-.009 1.46 1.123-.809 1.132-1.46-1.123-1.46-1.123Zm-85.783 1.123c.212-.018.4 0 .561 0h1.797c.323 0-.456 1.123-.618 1.123h-3.087c0-.85.71-1.07 1.347-1.123Zm79.327 0c1.455 0 2.61-.01 3.256 1.123.162 1.131-.532 1.123-1.179 1.122-.808 0-2.886-1.113-2.077-2.245ZM305.23 9.36c1.132 0 4.007-.01 4.492 1.122.323 1.132.175 1.17.337 2.302.323 0 .624 1.123.786 1.123.323 0 0 1.123 0 1.123.323 2.102-.456 4.361-.618 6.624-.162 1.132-.02 1.114-.505 2.246-.485 0-1.1 1.123-1.91 1.123V23.9s.464-1.123.787-1.123c.162 0 .343-1.122.505-1.123.485-2.263-.483-4.538-1.291-5.67-.323-.97-.687-.945-1.01-2.077h.673c.323-1.132.813-1.123 1.46-1.123-.324-1.132-1.788-1.17-2.92-2.302 0 1.132-.168 1.123-.168 1.123-.162 0-.175.048-.337 1.18-.162 0-.274 1.122-.112 1.122.162 1.132.638 1.107 1.123 2.077.323 0 .637 1.114 1.122 2.246.162 1.132.169 1.17.169 2.302 0 3.395-2.122 3.377-4.547 2.245.81-.004 1.976-.061 2.582-1.123 1.779-1.131-.18-5.67-1.797-5.67-.97 0-1.774-.009-2.582 1.123-.647 0-.961-1.107-1.123-2.077-.161 0-.175.009-.337-1.123-.161 0-.148-1.123.337-1.123.647 0 1.318-.047 1.965-1.179h1.909c.808 0 .849-1.113 1.01-2.245Zm14.54 0c.648 1.131 1.586 1.114 1.91 2.245h-4.492c0-1.132 1.936-1.113 2.583-2.245Zm17.292 0c2.102 1.131 2.751 2.284 2.751 4.547h.337c.485 0 .45-1.17.45-2.302h.168c1.778 0 .343 4.37.505 5.502 0 1.132.294 1.17.617 2.302h.842c.97-2.264.793-3.409.955-4.38.162-1.131.786 0 .786 0 1.455.971.188 2.07.674 3.2.485 1.133 1.62 1.17 1.46 2.303-.162 1.131-1.326 1.114-2.134 2.245-.647 0-.968 1.123-1.291 1.123 0 1.132-.113 1.123-.113 1.123-.323 0-.974-1.123-1.46-1.123-1.616-1.132-2.272-.009-2.919 1.123h-.673c-1.456-1.132.042-3.36-.281-4.491h-.842c-1.132 0-1.46-1.17-1.46-2.302.162 0 .014-1.123.337-1.123s.793 1.123.954 1.123c.97 1.132 2.58 2.31 3.874 1.179 0 0-.287-.047-.449-1.18-.485 0-1.156-1.113-1.965-2.245-1.132 0-2.252.025-2.414-2.077h1.628s-.35.01-.674-1.123c-.808-1.132-.148-2.293.337-3.424Zm36.885 0c2.748 1.131 0 4.538 0 5.67.323 0 .8-1.123 1.123-1.123h.449c0 3.234-4.835 3.23-4.997 6.625 1.617 0 3.072.009 4.042-1.123.324-1.132.47-1.17.955-2.302 0 0 .997 1.123.673 1.123-.161 0-.336 1.179-.336 1.179h-.337c-.485 1.132-1.91 1.114-1.91 2.245.163 0 .176 1.123.338 1.123 0 0-.175 1.123-.337 1.123-1.132 0-2.118-1.123-3.088-1.123-.97 0-1.605 1.123-2.414 1.123-.647 0-1.15-1.123-1.796-1.123-.324-1.132-.638-1.122-1.123-1.123-.324 0-.344.01-.505-1.122 0-1.132 1.136-1.123 1.46-1.123.484-1.132-1.254-4.38 1.01-4.38 0 .971-.488 3.248 1.29 4.38h.282c2.587-1.132-1.586-6.672 2.133-7.804 0 1.132.007 1.17.168 2.302h.45c0-2.264 1.015-3.416 2.47-4.547Zm32.618 0c.485 0 .644-.01 1.29 1.122 0 0-.316 1.17.17 2.302h.841c.809 0 2.877-.009 3.2 1.123.162 0-.161 1.123 0 1.123 0 .97.317 2.077-.168 2.077-.809 1.132-2.749-1.132-4.042 0-1.132 1.132-2.895 4.539-.955 5.67h2.751V23.9h-3.368c-2.91-1.132-1.139-5.652-.169-7.916.485 0 .968-.954 1.292-.954.161-1.132-.35-2.293-.674-3.425h-.954c-.809 0-1.319 1.18-1.965 1.18-.647 0 2.133 1.122 2.133 1.122h.168c0 1.132-1.136 2.077-1.46 2.077-.97 2.264-1.924 4.53-.954 6.793.324 1.132.806 1.114 1.292 2.246h-.169c-.808 0-1.648.009-2.133-1.123-.485 0-.281-1.114-.28-2.246-.486-2.263-1.153-4.522-.506-6.624.162-1.132.462-1.114.786-2.246 0-1.132-.148-1.17.337-2.302.808 0 2.405.01 3.537-1.122Zm-94.878 1.122c.97 0 1.29 1.17 1.29 2.302h-1.796c0-1.132.02-1.17.506-2.302Zm2.414 0c.646 0 3.222 1.17 2.414 2.302-.162 1.132-.625 1.123-.786 1.123-1.455 0-1.952-1.16-1.628-3.425Zm78.204 0c.214-.016.4 0 .561 0 1.132 0 2.217-.008 2.863 1.123-.161 0-.617 1.132-.617 0-1.455 0-2.917 1.132-4.21 0 0-.849.76-1.072 1.403-1.123Zm7.803 0c2.264 1.132 1.604 3.425-.337 3.425-.646 0-.148-2.293.337-3.425Zm-2.077 1.123c.809 0 .977 1.17.169 2.302h-2.302c.485-1.132 1.325-2.302 2.133-2.302Zm-79.214 1.18h.112c1.293 0 2.946-.01 3.593 1.122.161 0 .337-.009.337 1.123-.162 0-3.607-1.123-3.93-1.123-.324 0-.274-1.123-.112-1.123Zm73.207 0c.808 0 1.318-.01 1.965 1.122-.323 0-.8-.009-1.123 1.123H389.443c0-1.132 1.774-1.114 2.582-2.246Zm-79.383 1.122c.323 1.132.631 1.123.954 1.123.162 0 1.32 2.077.674 2.077-1.132 0-2.113-2.068-1.628-3.2Zm40.253 0c.323 1.132 1.327 1.107.842 2.077-.647 0-.842-.945-.842-2.077Zm5.839 0c.323 1.132-.02 1.107-.506 2.077h-.168c0-.97.35-.945.674-2.077ZM315.56 15.03c1.456 0 2.428-.025 2.751 2.077h-.168c-.647 1.132-2.253-1.123-2.414-1.123-.162 0-.169-.954-.169-.954Zm4.38 0c1.778.97 3.058.936 3.705 3.2.161 0 .323 1.179 0 1.179 0-1.132-5.646-2.277-3.706-4.38Zm22.624 0c.162.97.499.945.337 2.077h-.505c0-1.132-.155-1.107.168-2.077Zm53.502 0c2.425.97-.292 3.2-1.909 3.2.162 0 0-1.123 0-1.123.485-1.132.939-1.107 1.91-2.077Zm3.425 0h.617c0 .97-.285 2.068-1.74 3.2 0-2.264.314-2.23 1.123-3.2Zm-6.625.561c.177-.028.375.03.618.393 0 1.132-1.781 1.114-2.751 2.246-.485 0-1.797 1.179-1.797 1.179h-.449c0-1.132 1.114-2.293 2.246-3.425h1.291c.303 0 .547-.345.842-.393Zm-66.807.393c1.94 1.132 1.774 1.114 2.582 2.246v1.179h.337c.162 0 .168-.047.168-1.18l.169-1.122h.337s.456 1.123.617 1.123c.162 2.263-.626 4.53.505 6.793 1.779 0 1.46-3.35 1.46-5.614h.28c0 1.132.506 1.123.506 1.123.162 1.131 0 2.236 0 3.368 1.132 0 1.79 1.17 1.628 2.302-1.293 0-2.14 1.114-2.302 2.246h-.786c-.485-1.132-.799-1.114-1.122-2.246-.324-1.132-.975-2.293-1.46-3.425-.323-1.132-.8-2.236-1.123-3.368-.647-1.132-1.635-1.161-1.796-3.425Zm42.05 0c.808 1.132 0 1.123 0 1.123-.324 0 0-1.123 0-1.123Zm17.571 0c.121-.017.272 0 .393 0H387.03c.323 0-.344 1.123-.506 1.123-1.94 2.264-2.917 4.53-4.21 6.793-.97 2.264-1.781 3.416-2.751 4.547-.324.97-.45.97-.45 0 0-1.131-1.816-2.283-2.301-4.547h1.628c0-1.132-1.112-2.227.505-4.491h.337c.323 0 0-.01 0 1.123 0 1.131-.002 3.368 1.291 3.368h.169c.161 0 .624-1.123.786-1.123 0-1.132-.169-1.113-.169-2.245-.161-1.132-1.147-3.425.955-3.425h.168c.162 1.132-.162 1.123 0 1.123.323 0 1.648-1.123 2.133-1.123.364-.849.703-1.07 1.067-1.123Zm-48.786 1.123c.808 0 1.641 1.123 1.965 1.123-.809 0-1.642.009-1.965-1.123Zm-24.59 1.123h1.18c.323 0 1.102 2.302.617 2.302h-.955c-.97-1.132-1.327-1.17-.842-2.302Zm3.256 0c1.779 0 2.758 1.161 2.92 3.424 0 0-.014 1.123-.337 1.123-.162 0-.505.01-.505-1.123-1.456 0-2.078-1.16-2.078-3.424Zm4.66 0c1.779 1.132 2.771 2.293 3.256 3.424 0 1.132.324 1.114 0 2.246h-.337c-.161 0-.287-1.123-.449-1.123-.97 0-2.272-1.113-2.92-2.245-.16 0 .45-1.17.45-2.302Zm51.93 0h1.797c-.647 1.132-1.312 1.179-1.797 1.179v-1.18Zm24.59 0c1.293 2.263-.96 4.547-2.414 4.547h-.169c-.161 0 .007.01.169-1.123.323-1.131 1.12-2.292 2.414-3.424Zm3.031 0c1.779 1.132.34 2.293-.954 3.424h-.449c-.647-2.263 1.403-3.424 1.403-3.424Zm-7.747 1.179c1.455 2.263.824 2.237-.954 3.368-.647 0-.813 1.123-1.46 1.123h-.337c0 1.132-.126 1.132-.449 0 0-2.264 1.098-3.36 3.2-4.491Zm-60.969 1.123c.162 1.131.337 1.114.337 2.245h-.337s-.485-1.113 0-2.245Zm3.593 0c.809 1.132 1.13 2.236 1.291 3.368h-.168c-.323 0-.344.009-.505-1.123-.485 0-.941-1.114-.618-2.245Zm41.713 0c.647 1.132-.182 2.236-.505 3.368-.324 1.132-.45 1.123-.45 1.123-.323 1.132-.693 1.17-1.179 2.302-.97 1.132.21 2.077 1.18 2.077.646 2.264-.652 2.302-1.46 2.302-1.779 0-3.74-.039-4.548-2.302-.161 0-.33-.955-.168-.955.485-1.131 1.444 0 2.414 0 .808 0 1.642-1.122 1.965-1.122.162-1.132.343-1.17.505-2.302.324 0 .968-1.123 1.291-1.123.324-2.263-.339-2.237.955-3.368Zm3.705 0c.323 0 .512 1.123.674 1.122a42.313 42.313 0 0 1-.337 0h-.168c-.486 0-.169-1.122-.169-1.122Zm6.288 0c.646 1.132.519 5.66.842 6.793.161 0 .456 1.122.618 1.122v3.257c0 1.132.505 1.113.505 2.245.161 1.132.155 2.237-.169 3.369 0 0-.806 1.123-1.29 1.123-.81 0-1.438-1.123-2.247-1.123H377.316c-.161 0 .674-2.246.674-2.246.646-1.131.308-2.237.954-3.368.647-1.132 1.76-1.17 2.246-2.302 1.778-3.234 3.386-5.475 5.165-8.87Zm21.39 0c.161 1.131.28 1.123.28 1.122h-.28v-1.122Zm-96.226 1.122c1.779 0 2.576 1.105 2.414 3.369h-1.123c-1.293-1.132-1.776-2.237-1.29-3.369Zm4.042 0c1.94 1.132 2.253 3.407 2.414 5.67h-.954c-.808-2.263-2.106-3.406-1.46-5.67Zm10.499 0c.808 1.133 1.437 2.237 2.245 3.369.647 1.132.82 2.293 1.628 3.424.809.97 1.613 2.125 2.583 3.257.323 0 .694 1.122 1.179 1.122.161 1.133-.05 1.114.112 2.246.162 0 .344 1.114.505 2.246H327.856c-.485 0-1.15-.01-1.796 1.123h-.618c-.485-1.132-.849-1.123-1.01-1.123-.324-1.132-.611-3.36-.45-4.492.324 0 .456-1.122.618-1.122 0-1.132.168-2.286.168-3.257 0-1.131.506-1.122.506-1.122.161-1.132.175-2.293.337-3.425 0-1.131.449-2.246.449-2.246Zm25.207 0h.842c4.204 1.132 3.36 6.769.45 8.87-1.133 1.132-2.426 1.18-4.043 1.18-2.425 0-4-2.277-4.323-4.38v-2.301s.126-1.123.45-1.123c.97-1.132 2.45-.009 1.964 1.123h-1.291c-.162 0-.168.047-.168 1.179-.162 2.263 1.28 4.323 3.705 4.323 3.557 1.131 5.812-2.107 5.165-5.502-.162-1.132-.813-2.246-1.46-2.246-.323 1.132-.287 1.123-.449 1.123-.97 0-1.004-1.114-.842-2.246Zm6.905 0c.182-.017.36 0 .562 0 1.293 0 1.62 1.114 1.46 2.246h-1.124v-1.123h-.673c-1.294 1.132-1.298 1.161-1.46 3.425.323 3.234 2.1 4.323 5.333 4.323.809 0 1.655-1.123 2.302-1.123.324-.97.618-.945.618-2.077.485-1.132.485-3.425 0-3.425-.647 0-.651 1.123-1.46 1.123-.323 0-.337-1.123-.337-1.123.647-2.264 3.101-.009 3.425 1.123.485 1.132-.833 4.37-1.965 5.502-.647 0-1.269 1.179-2.077 1.179h-2.92c-2.587-1.132-3.705-3.238-3.705-5.502 0-1.132-.03-2.293.618-3.425.363-.849.857-1.07 1.403-1.123Zm42.274 0c2.264 1.132-.483 3.369-1.291 3.369h-.505c-.485-1.132 1.15-2.237 1.796-3.369Zm-80.337 1.123c2.102 1.132 2.75 3.407 2.75 5.67-.484 0-3.424-3.424-3.424-3.424s.512-1.114.674-2.246Zm76.463 0c2.426 1.132-.813 4.548-1.46 4.548-.16 1.131-.343 1.132-.504 0 0-1.132.833-3.416 1.964-4.548ZM369.906 23.9c.97 0 1.262-.009 1.908 1.123 1.132 0 .36 2.302-.449 2.302h-.673c-.162-1.132.013-1.17.336-2.302h-.168c-1.94 0-3.074 3.4-2.75 5.502.484 1.131 1.268 1.17 2.076 2.301 3.234 1.132 8.291-1.136 6.513-5.501h-.337c0 1.131-.182 1.123-.505 1.122h-.45c0-1.131-.036-1.122.45-1.122.646-1.132 1.46 0 1.46 0 .16 0 .174-.01.336 1.122.808.97-.474 4.38-2.414 4.38-.647 1.131-1.332 1.122-2.302 1.122-1.132 0-1.893.01-2.863-1.123-3.234-1.131-3.723-4.408-1.46-7.803.324 0 .807.009 1.292-1.123Zm22.12 0c.484 0 .68-.009.841 1.123.809 1.132-.496 1.17-1.628 2.302-.323 0-.47 1.123-.954 1.122h-.674c-.162 0 0-1.122 0-1.122.323-1.132 1.12-2.293 2.414-3.425Zm-51.145.842a.57.57 0 0 1 .337 0c.614.16 1.179 1.46 1.179 1.46 1.455 2.263 2.573 4.36-.337 6.624-.647 1.132-1.437 1.123-2.246 1.123-2.748 0-6.28-2.268-6.12-5.502 0-1.131 1.775-2.263 2.583 0H334.481c0 .97.175.955.337.955.808 3.395 4.192 4.556 6.456 3.424 1.94-2.263 1.792-4.36.337-6.624h-1.01c-.163 0-.008-.01-.17 1.123h-.617c-.647-1.132-.022-2.302.786-2.302.101-.142.177-.24.28-.28Zm-4.604.28c.485.001.77.048 1.74 1.18 0 3.234 3.432 1.114 3.594 2.245.161 2.103-2.096 3.257-3.874 3.257-.485 0-.975-.048-1.46-1.18-.161-1.131 1.123-1.106 1.123-2.077 0-1.131-1.608-2.292-1.123-3.424Zm-30.091 1.18h.617c.97 0 1.474-.009 1.797 1.123.323 0 .638.009 1.123-1.123.97 0 2.454 1.123 3.424 1.123.162 0 .162 1.123 0 1.122h-.954c.151.046.207.227.449.955.97 0 2.133 1.161 2.133 3.424h-1.01s2.903 5.633-.169 3.369h-.112c-.647 0 .624 2.246.786 2.246.809 1.131 1.312 2.292 1.797 3.424.161 1.132.449 2.077.449 2.077 1.293 3.396 3.73 5.709 5.67 7.972.647 1.132 1.444 2.246 2.414 2.246 2.102 1.132.993-4.547 3.256-4.547 0 0-.175 1.17-.337 2.301.162 0 .175 1.123.337 1.123l-.337 1.123c.162 1.132.463 1.123.786 1.123h.169c-.324 0-.288 1.123-.45 1.123-.161 0-.498 1.001-.336 2.133.161 0 .337-.009.337 1.123 0 0-.344 1.123-.506 1.123-.646 1.131-.79 2.245-2.245 2.245-.162-1.132-.344-1.122-.506-1.123-.323-1.131-.307-2.236-.954-3.368-.647-1.132-1.774-1.163-2.582-2.133-1.456-1.132-3.1-2.228-4.716-4.492-.97 0-1.788-2.301-2.92-2.301h-.617c-.809 0-1.635-2.237-1.797-3.369-.485 0-.786 1.123-.786 1.123h-.336c-.97 0 .34-4.379-2.246-4.38 0 0-.961-4.546-1.123-4.546h-.674c-.646 0 .463 7.803.786 7.803.324 1.132.975 1.123 1.46 1.123.647 1.132.665 2.237 1.797 3.368h.673s2.253 2.302 2.414 2.302h1.628s.295 1.123.618 1.123c-.162 0-.344 1.123-.505 1.123h-1.292c0 1.132-.622 4.388-2.077 3.256 0 0-.505-.009-.505 1.123-.323 0-.631 1.123-.954 1.123-.324 1.131-.8 1.123-1.123 1.122-1.132 1.132-2.118 3.416-3.088 4.548-.808 1.132-1.592 2.237-2.077 3.368-.647 1.132-.687 2.125-1.01 3.256-.324 1.132-.8 2.237-1.124 3.369-.646 2.263-1.43 3.407-2.077 5.67-.647 1.132-.651 2.277-1.46 4.379-.97 1.132-3.21 3.36-4.828 4.491-.646 1.132-1.796 1.17-1.796 2.302-.323 1.132.294 2.237.618 3.369 0 1.131-.33 1.17-.169 2.301h1.01c.486 0 5.166-1.131 5.166 0h-.786c-1.456 0-2.111-.024-2.92 2.077-.161 0-.343-1.122-.505-1.122h-.337c-.323 0 .162 1.114 0 2.245 0 0-.168-1.131-.168 0-.809 0-1.768-1.122-2.414-1.123h-1.123c-.324 0-.463-1.122-.786-1.122-.647-.97-1.79-4.37-1.628-5.502.162-1.132.307-3.425.954-3.425.647-1.131 1.642-1.122 1.965-1.123.809-2.263.654-3.4.169-5.501-.162-1.132-.506-1.114-.506-2.246 0 0 .175-1.123.337-1.123.162-1.132.78-2.292.618-3.424-.162-1.132.029-1.123-.618-1.123h-.337c-1.132 0-1.444 3.416-2.414 4.547-.647 1.132-1.444 1.114-2.414 2.246h-1.01c-2.749 0-4.18.009-6.12-1.123-.485-1.132-.968-1.114-1.29-2.246-2.911-6.79 3.522-12.314 7.241-16.842 1.617-2.263 3.108-5.645 3.593-7.747v-3.369c-.161-2.263-2.13-1.17-3.424-2.301-.809 0 .036-1.114-.45-2.246-.646 0-1.304.009-1.628-1.123.162 0 .315-1.132 1.123 0 0-1.132-1.466-1.154-1.628-3.256h.169c0-1.132.35-1.123.673-1.123 1.779 1.132 1.57 2.077 2.863 2.077v.169c.022-.153.088-.169.169-.169 1.293 0 1.136 1.17 1.46 2.302h.954c.485 0 .505 1.123.505 1.123 0 1.132-.33 2.237-.168 3.368l.337 1.18c.323 1.131.161 3.359 0 4.49-.97 4.366-5.181 8.9-8.253 12.295-.97 2.264-1.767 3.239-2.414 5.502-1.132 2.264.17 6.784 2.92 7.916 5.497 1.132 7.57-6.766 8.701-10.161 1.294-4.366 4.846-7.777 6.625-11.172.808-2.264 1.017-4.352 1.179-7.748.485-3.395.799-6.815 1.122-10.05.324-1.13 2.583-2.236 2.583-3.368v-1.178h-.337c-.808 1.131-1.45 2.301-2.582 2.301 0-3.395 3.725-3.397 4.21-6.793-.808 0-1.78 1.114-2.75 2.246h-.674c0-3.395 3.718-2.275 4.042-5.67-.647 0-.926 1.179-1.572 1.179h-1.348c0-1.132 1.95-2.286 2.92-3.257h-1.292s.007.01.169-1.122h3.424c.162 1.131.955-1.123.955-1.123Zm8.59 0c1.616 1.132 2.218 3.238 1.571 5.502-.808 0-.786-1.17-.786-2.302-.323 0-.512-.954-.673-.955-.162-1.131-.113-1.113-.113-2.245Zm90.33 0c1.132 0 1.635 1.114 1.796 2.245.809 0 1.157-1.122 1.965-1.122.324 0 1.783 1.123 1.46 1.122-.162 0-.512-.015-.674.955 0 0 3.061 2.293 2.414 3.424-.323 0-1.76-1.122-2.245-1.122h-.169c0 1.131 1.606 2.245 2.414 2.245.809 1.132 1.467 2.237 1.628 3.369-.808 0-2.44-2.246-3.087-2.246v1.123c.161 1.132 1.949 1.114 2.919 2.246.323 1.131.68 2.301.842 2.301v1.123c-.808 0-1.936-2.245-2.582-2.246 0 0-.858-.008.112 1.123.485 1.132 1.305 1.114 1.628 2.246.808.97.68 3.238.842 5.502 0 1.132.119 1.114.28 2.245.486 3.396.371 6.663 1.18 8.927.808 3.395 2.081 4.53 3.537 6.793.808 1.132 1.437 2.237 2.245 3.368 1.94 3.234 2.111 11.163 6.962 12.295h1.628c2.748 0 3.725-2.284 4.21-4.547.162 0 .33-1.114.169-2.246-.324-1.132-.645-2.237-1.291-3.368-1.132-2.102-3.281-4.361-5.222-6.625-.97-1.132-1.43-2.293-2.077-3.425-1.455-2.263-2.582-4.513-2.582-7.747 0-1.132.456-2.293.617-3.425 0-1.131-.647-2.236 0-3.368 0-1.132.337-1.123.337-1.123h.169c0 1.132.35 1.123.673 1.123 0 0 .463-2.246.786-2.246h1.46c0-1.132 2.28-3.265 3.088-2.133h.168c-.162 2.102-.826 2.124-1.796 3.256h.168c0 1.132.462 0 .786 0 0 2.264-1.43 2.246-2.077 2.246.323 0 .624 1.123.786 1.123h-.169c0 2.263-3.052 1.17-3.537 2.301-.808 1.132-.33 3.36-.168 4.492.485 2.102 2.075 5.493 3.368 6.624 3.88 5.66 12.484 14.552 4.885 20.21-.485 0-.503-.008-1.797 1.124-4.85 0-6.306-1.087-8.084-5.614-.162 0-.476-2.311-1.123-1.18-1.455 0 .492 4.54.169 5.67-.324 1.133-1.278 3.248-.955 4.38.323 1.132.651 2.237 1.46 3.368h1.123c.323 1.132.287 1.17.449 2.302.646 2.264.022 3.407-.786 5.67-.162.97-.483 2.078-1.291 2.077-.486 1.132-1.6-.008-2.246 1.123h-1.01c-.162 0-.17-1.122-.17-1.123h-.953c-.486-1.131-.645-1.122-1.292-1.122-1.132-.97-2.104.015-2.75-.955h.168c0-1.132 1.641 0 1.965 0h4.659c0-1.132-.33-1.17-.168-2.301.162-1.132.505-1.114.505-2.246 0-2.264-5.661-5.652-6.793-7.916-.808-1.132-.813-3.247-1.46-4.379-.484-2.264-1.641-3.406-1.964-5.67-.485-1.132-.807-3.36-1.292-4.491-.161-.97-.3-2.134-.786-2.134-1.293-2.263-2.58-3.406-3.873-5.67-.97-1.132-1.296-2.245-2.751-2.246-.324-1.131-.512-2.245-.674-2.245h-.954a131.873 131.873 0 0 1-.506 0c-.161-1.132-.462-1.17-.785-2.302-.162 0-.133-.945-.618-2.077h-.337v1.123c-.808 0-.835-2.246-.674-2.246.162 0 .512-1.123.674-1.123 0 0 .968 1.132 1.291 0 .809 0 1.107-1.17 2.078-2.302a366.084 366.084 0 0 0 1.29 0s1.312-2.236 1.797-3.368h.955c.323 0 .336.009.337-1.123.161-1.132.35-2.277.673-4.379.324-1.132.604-1.114.281-2.246 0-1.131-.301-1.178-.786-1.178-.323 0-.344 1.179-.505 1.178-.162 1.132-.176 1.114-.337 2.246-.162 1.132-.294 1.107-.618 2.077H403.534c-.809 0-.8 3.425-1.123 3.425h-1.179c-.485 1.132-.975 2.237-1.46 3.368-.323 0-.806-1.122-1.29-1.122-.81 1.131-1.606 2.292-2.415 3.424-1.455 1.132-3.036 2.237-4.491 3.369-.809 0-2.273 1.001-2.92 2.133-.808 1.132-.687 2.237-1.01 3.368-.323 1.132-.456 1.123-.617 1.123-1.132 0-2.59-2.236-2.751-3.368-.162-1.132.336-1.17.336-2.302 0 0-.801-2.077.169-2.077 0 0 .112.009.112-1.123-.323 0-.28-1.114-.28-2.246 0-1.131-.007-1.17-.169-2.301h.337c1.94 1.131.768 5.679 3.032 4.547 1.131 0 1.773-1.114 2.582-2.246 2.102-2.263 4.04-4.529 5.333-6.793.324-1.132.856-2.124 1.18-3.256.484-1.132 2.076-3.415 2.077-4.547 0-1.132-.962 0-1.123 0h-.674c0-1.132 1.136-2.228 1.46-4.492h-1.123c0-1.131 1.929-2.292 2.414-3.424.162-.97-.126-.954-.45-.955.648 0 1.094-1.122 1.741-1.122h2.751c.323 0 .8.009 1.123-1.123Zm-85.84 1.123c2.264 1.131 2.59 3.238 2.752 5.501h-.337c0-1.131-1.923-2.292-2.246-3.424-.323 0-.33-.945-.168-2.077Zm77.924 0c1.293 0 .162 1.107 0 2.077-.323 1.132-.153 2.302-1.123 2.302s-.009-4.38 1.123-4.38Zm-4.323 1.122c.324 0 .28-.015.28.955 0 1.132-1.12 2.293-2.413 3.424h-.337c-.162 0-.112.01-.112-1.122.323-2.264.804-2.286 2.582-3.257Zm-37.558.955c.808 0 1.325 1.17 2.133 2.302 3.072 2.263 6.6 1.084 8.702-1.18h.674c.323 1.132.988 2.294 1.796 3.425 2.102 1.132 4.656 1.132 7.243 0h.336c0 1.132-1.437 1.114-2.245 2.246-2.749 0-5.5-1.105-6.793-3.369-.485 0-.687-1.122-1.01-1.122-.324 0-.975 1.123-1.46 1.122-.809 0-1.25-.008-1.572 1.123h-1.123c-2.587 0-5.037-1.16-6.007-3.424h-.674c0 1.131-2.378 2.302-2.863 2.301-.647 1.132-.982 1.123-1.628 1.123-1.455 0-2.91.01-4.042-1.123-.647 0-.982-1.122-1.628-1.122 0 1.131-.625 1.123-.786 1.122-2.102 3.396-4.227 3.378-7.299 2.246h-1.291c-.485 0-.337.01-.337-1.123h1.459c.648 1.132 1.319 1.123 1.966 1.123 2.748 0 5.129-1.152 5.614-4.547 1.132 0 2.11 1.17 2.92 2.301 3.071 1.132 6.46-1.16 7.915-3.424Zm-37.334 1.123c1.94 1.131 3.742 3.397 3.257 6.793h-.337c-.324 0-.337-1.123-.337-1.123-.485 0-.813-1.114-1.46-2.246-.323 0-1.13.01-1.291-1.123-.162-1.131.007-1.17.168-2.301Zm76.015 1.179h.786c.162 1.131-.175 1.114-.337 2.245-.485 0-.806-.009-1.291 1.123-.647 0-.764 1.114-1.572 2.246h-.337c-.323 0-.168-1.123-.168-1.123.323-2.264 1.464-3.36 2.919-4.491Zm-38.962 1.122c1.132 0 1.606 1.123 2.414 1.123.766 0 1.542 1.016 2.583 1.123h-8.421c1.132 0 2.454-1.114 3.424-2.246ZM317.19 33.95c1.94 2.264 2.92 3.398 2.92 6.793h-.337s-.512-1.122-.674-1.123c-1.132-1.131-3.202-3.406-1.909-5.67Zm28.295 0c.809 0 1.262-.009 1.91 1.123h1.964c-.162 1.132-1.774-.009-2.582 1.123-1.132 0-3.08 1.123-4.21 1.123-.163 0-.001-1.123 0-1.123 0 0 1.584-1.123 1.908-1.123.323 0 .687-1.123 1.01-1.123Zm19.762 0c.235-.017.456 0 .617 0 .324 0 1.593 1.123 2.078 1.123 1.293 1.132 3.056 2.246 4.996 2.246.647 0 1.494-1.123 2.302-1.123 0 1.132-.496 2.246-1.628 2.246-1.455 0-2.574-1.123-3.705-1.123-.97 0-1.774-1.123-2.583-1.123H363.9c-.85-.849-1.856-1.07-2.864-1.123h2.246c.364-.849 1.26-1.07 1.965-1.123Zm29.698 1.123h.169c2.102 1.132-1.438 4.539-2.246 5.67h-.674c0-2.263.665-3.415 1.797-4.547.323 0 .308-1.123.954-1.123Zm-58.05 1.123c1.085 1.085 2.168 1.12 3.538 1.123 0 0-3.86 2.272-3.537-1.123Zm12.296 0h.168c.97 0 1.426 1.114.618 2.246h6.793c2.91 0 6.346.047 9.094 1.178 1.94 0 4.51 1.114 6.288 2.246h1.291c0 1.132-1.929 0-2.414 0-5.012-1.132-10.179-2.245-16-2.246h-5.052c-.647 0-4.355 1.123-6.457 1.123-2.101 1.132-3.224 1.123-5.165 1.123h-.168c0-1.132 6.96-2.245 8.253-2.246.97 0 1.8-1.178 3.256-1.178-.97 0-1.152-1.114-.505-2.246Zm3.087 0c.809 0 1.137-.009 1.46 1.123h-1.179c-.97 0-.604-1.123-.28-1.123Zm3.032 0c.647 0 1.65 1.123.842 1.123-1.132 0-1.489-1.123-.842-1.123Zm2.975 0c.04-.018.072 0 .113 0 .323 0 1.763 1.123.954 1.123-.485 1.132-1.565 0-1.403 0 .12-.85.215-1.07.336-1.123Zm3.032 0c.647 0 .975 1.123 1.46 1.123-.324 1.132-.463 1.123-.786 1.123h-1.01c-.149-1.038-.347-1.116-.394-1.123.19-.053.609-.274.73-1.123Zm-18.246 1.123c1.455 0 1.568 1.17.113 2.301-.647-1.131-1.083-1.17-.113-2.301Zm3.2 0h1.123c-.162 1.132-.813 1.123-1.46 1.123-.485 0 .176-1.123.337-1.123Zm17.516 0c.046-.017.072 0 .113 0h.336c.97 0 1.285-.01 1.123 1.123h-1.46c-.363-.85-.248-1.073-.112-1.123Zm3.537 0c.647 0 1.242-.01 1.404 1.123 0 0-.919 1.131-1.404 0-.162 0-.162-1.123 0-1.123Zm-50.47 1.123c1.94 1.131 3.067 4.579 2.582 6.68h-.617c-.486-1.132-.68-2.124-.843-3.256-.323-1.132-.96-1.16-1.122-3.424Zm6.007 0c1.293 0 1.731 2.301 2.863 2.301h.337c.646 0 1.45-1.17 2.582-2.301h6.176c.646 0 3.047 1.17 2.077 2.301H328.474c-.485 0 0 2.246 0 2.246h-.955s-.8 2.133-1.122 2.133h-.674c-.97-1.132 0-2.124 0-3.256-1.294 0-1.893 1.123-2.863 1.123s-1.166-1.114-.842-2.246h.673c.162-1.131.169-1.17.169-2.301Zm17.291 0c1.132 0 1.426 1.179.618 1.178-.647 1.132-1.588-1.178-.618-1.178Zm29.418 0h.617c.809 0 1.004.047.842 1.178-.646 0-.974-.047-1.46-1.178Zm6.793 0h4.379c.485 0 1.087.047 1.572 1.178h1.46c1.131 0 1.787 1.123 2.919 1.123.808 0 1.76-1.17 2.245-2.301h.506l.168 1.178c0 1.132.793 2.237.954 3.369 0 0-.658.97-1.628 0 0 0-1.248-1.123-1.572-1.123h-.673c0 1.132 1.118 3.256-.337 3.256-.97 0-1.137-1.179-1.46-1.179-.162-.97-.3-.954-.786-.954-.323 0 0-1.123 0-1.123-.161 0-.175-1.123-.337-1.123l-1.122 1.123c-.162 0-.456-1.123-.618-1.123h-5.221s-.126-.009-.45 1.123c-.06 0-.116.002-.168 0 .647 1.132-.175 2.125-.336 3.256h-.45c0-1.132-.168-1.179-.168-1.179-.162-.97.168-.945.168-2.077h.618c-.28-.053-.47-.274-.954-1.123.161-1.131.482-1.17 1.29-2.301Zm-38.176 1.178h.674l-.169 1.123h-.673s-.317-1.122.168-1.123Zm34.583 0h.505c.323 0 .33 1.123.168 1.123h-.673c-.485 0-.485-1.122 0-1.123Zm22.344 0c.323 0 .505-.008.505 1.123-.323 0-.519 1.123-.842 1.123-.485 1.132-.645 2.125-1.291 3.256-.324 1.132-.456 1.132-.618 0 0-1.132-.043-2.124.28-3.256.486-1.132.834-1.114 1.966-2.246Zm-45.194 1.123c.496-.017 1.038 0 1.685 0h8.252c3.234 0 6.138 1.123 7.916 1.123v1.123H344.362s1.262-1.123 1.908-1.123c1.213-.849 2.164-1.07 3.65-1.123Zm-19.312 1.123c1.617 1.132 1.264 1.154.618 3.256h-.45v-1.179c-.485 0-.33-2.077-.168-2.077Zm2.92 0h.168c1.132 1.132.766 1.107.28 2.077 0 1.132-.287 1.132-.449 0 0 0-.646-.945 0-2.077Zm2.413 0c1.294 1.132 1.117 1.107.955 2.077-.324 1.132-.294 1.132-.618 0 0 0-.66-.945-.337-2.077Zm42.05 0c1.455 1.132.947 2.125.786 3.256-1.132 0-1.11-2.124-.786-3.256Zm3.368 0c.647 1.132.492 2.125.169 3.256-.809 0-1.116-1.163-.955-2.133.162 0 .463.009.786-1.123Zm-59.677 2.077c.485 0 1.143 1.18 1.628 1.18.647 0 .981 1.122 1.628 1.122.485 0 1.318 1.123 1.965 1.123h.168c-.19.053-.552.274-.673 1.123-.324 0-1.123-.01-1.123 1.123-.162 1.132-.85 2.301-1.01 2.301 0-1.131-.463-1.179-.787-1.179-1.455-2.263-3.575-3.397-1.796-6.793Zm68.38.674c.575-.106 1.057.78 1.178 1.628.162 3.396-1.626 3.407-2.92 5.67-.808 0-.792-1.17-.954-2.301-.485-1.132-1.311-1.123-1.796-1.123 0-1.132.175-1.123.337-1.123h1.628c.808-1.132 1.1-2.246 1.909-2.246.201-.282.425-.47.617-.505Zm-62.205.505c.647 0 1.143-.009 1.628 1.123h-.168s-2.43.01-1.46-1.123Zm4.21 0c.486 0 .807 1.123 1.292 1.123.808 0 1.269-1.123 2.077-1.123 0 1.132.337 1.123.337 1.123 0 1.132 1.922-1.123 2.246-1.123h35.593c1.132 0 1.437 1.123 2.246 1.123.646 0 .792.01.954-1.123.808 0 1.318 1.123 1.965 1.123 0 1.132.793.01.954-1.123h.506c0 1.132.336 1.123.336 1.123.162 0 .281 1.123.281 1.123.323 0 .68-.01.842 1.123 1.455 1.132-.519 2.292-.842 3.424-.323 1.132-.436 1.114-.112 2.246 0 0 .32 1.132 1.291 0 .162 0 .162 1.123 0 1.123h-.337c-.485 1.132-3.09 3.247-1.796 4.379h1.965s-.007-.01-.169 1.123c-.485 0-.961 1.122-1.123 1.122-.646 1.132.939 2.246 1.91 2.246l-.45 1.179c0 1.132.28 1.114.28 2.246v14.54c-.646 4.366-2.43 7.786-5.501 10.05-.97 1.131-2.25 2.236-3.705 3.368-1.294 0-2.25 1.123-3.706 1.123-1.617 1.131-2.425 1.122-4.042 1.122h-1.628c-.97 0-1.78.047-2.75 1.18h-1.629c-12.288 0-24.048-1.137-28.576-13.587-.323-.97-.511-2.124-.673-3.256-.485-2.264-.175-12.277-.337-14.54 0-1.132.505-1.114.505-2.246 0 0-.294-1.179-.617-1.179 0-1.132 1.922.009 2.245-1.123.162-1.132-1.136-2.236-1.46-3.368h.955c2.425-1.132.19-3.247-.618-4.38 0 0-.343.01-.505-1.122h.955c.485 0 .336-1.114.336-2.246-.485-1.131-1.93-2.283-1.122-4.547h.617c.485-1.132.526-1.114 1.01-2.246Zm52.043 0h.786c0 1.132-.925 1.114-1.572 2.246-.485 0-.512.009-.673-1.123.485 0 1.136-1.123 1.46-1.123Zm-35.256 1.123c-1.779 1.132-8.226 7.898-7.58 10.162.324 0 1.458 2.086 2.752.954h1.29c.163-.97.295-.954.618-.954 0 0 .007.954.169.954-2.91 5.659-6.31-4.34-9.544-2.077-.808 0-1.41-.01-1.572 1.123-.162.97-.211 1.001.112 2.133.647 1.132 1.669 1.114 2.639 2.246 1.132 1.131 2.412 2.283 3.705 4.547 1.617 1.132 2.924 2.228 4.38 4.491 1.293 1.132 4.012 2.116 4.659 4.38.323 1.131-.492 1.113-.169 2.245.324 0 .968-.01 1.292 1.123.485 0 .792 1.179.954 1.179.162 1.131-.287 2.236-.449 3.368-.323 0-.337 2.286-.337 3.256.485 5.66 5.493 9.03 10.667 10.162h3.593c.485 0 1.43.009 2.077-1.123 1.132 0 2.277.018 4.38-2.246 4.526-4.527 4.335-12.315.617-16.842-.809 0-1.613-1.123-2.583-1.123-1.94-2.263-4.662-2.245-7.41-2.245h-3.257c-.808 0-1.585-.04-1.908-1.011-.324 0-.694-1.123-1.18-1.123h-1.459c-1.455 0-8.24-6.793-7.916-6.793.162-1.132 1.965-2.245 1.965-2.245h.787l-.17 1.122c-.646 1.132-.97 1.114 0 2.246.324 1.132 1.157 1.179 1.966 1.179 1.293 0 8.09-6.84 8.252-7.972.162-.97-4.033-4.323-5.165-4.323-.808 0-1.81 1.114-2.133 2.246h-.45c.81 1.132 1.092 2.077 3.032 2.077.324 0-.637 1.179-1.122 1.179-1.132 0-5.466-4.37-5.951-5.502-.162 0 .146-1.123.954-1.123v1.123s.133 1.123.618 1.123c.97 1.132 2.609-1.123 3.256-1.123.161-1.132.512-1.123.673-1.123-.646-2.263-2.95-4.538-5.052-5.67Zm0 2.246c1.455 0 2.44 1.16 3.088 3.424-.162 0-.638 1.123-1.123 1.123h-.337c-.162-1.132.155-1.17-.169-2.302l-.954-1.122h-.505c-.485 1.131-2.751 3.424-2.751 3.424 1.455 1.132 6.46 7.748 7.916 7.748.97 0 2.75-2.293 2.75-3.425 0 0-.132-.954-.617-.954-.162 0-.35.009-.674-1.123-.485 0-.65 1.123-1.46 1.123 0-1.132-.16-1.123 0-1.123.324 0 .975-1.123 1.46-1.123.647 1.132 1.143 1.123 1.629 1.123.485 1.132 1.116 1.107.954 2.077-.162 1.132-5.493 6.793-6.625 6.793-.808-2.264 1.64-2.228-.786-4.491-.323 0-.806-1.123-1.29-1.123-.81 1.132-3.875 3.36-3.875 4.491 0 0 .126-.009.45 1.123.485 0 1.318 1.179 1.964 1.179.97 1.132 1.95 2.237 2.92 3.368.808 1.132 2.272 2.286 2.92 3.257.16 0-1.18 1.122-1.18 1.122-.162 0-2.868-3.247-4.323-4.379-2.748-2.263-5.378-4.52-7.803-7.915-.97-1.132-2.722-2.293-3.369-3.425-.161 0-.168-.954-.168-.954 2.587-1.132 5.035 5.51 7.298 4.379.647 0 1.143-1.123 1.628-1.123 1.294-1.132 3.366-3.247.618-4.38-1.132-1.13-2.125 1.124-3.256 1.124-.809-2.264 4.376-5.653 5.67-7.916Zm-20.042 2.245c.808 0 1.304 1.18 1.628 1.18 0 1.131-.007 1.122-.169 1.122h-.337c0-1.132-1.284-1.17-1.122-2.302Zm53.839 0c.646 0 .792.048.954 1.18 0 0-.961 1.122-1.123 1.122h-.617c-.162-1.132.786-2.302.786-2.302Zm-65.797 4.548c1.293 0 2.236 1.107 3.368 2.077.647 1.132 1.143 1.179 1.628 1.179.162 0 .505 1.123.505 1.123.485 1.132.813 3.36 1.46 4.491 1.132 1.132 2.883 1.17 3.368 2.302.324 2.264 0 11.163 0 12.295.162 2.264.35 3.35.674 5.614 1.132 3.234 2.598 6.653 5.67 10.049.324 0 .8 1.123 1.123 1.123.647 0 1.1 1.122 1.909 1.123.808 0 1.774 1.122 2.582 1.122h.169s-1.13 2.134-1.291 2.134c0-2.102-5.156-5.511-6.288-4.38 0 .001.155 1.123-.169 1.124-.323 0-2.438-4.492-4.379-4.492-.97 1.132 0 4.482 0 5.614h-.28c0-1.131-1.34-2.236-1.18-3.368 0-1.132.688-2.246 1.011-2.246.485-1.131.45-3.415.45-4.547 0-1.132-.813-5.502-1.46-5.502-.809 0-1.747 3.256-1.909 3.256h-.674c-.323-.97-.442-1.001-.28-2.133.323-1.132 1.43-2.228 2.077-4.491.97-1.132.786-3.398.786-6.793 0-.97.009-2.134-1.123-2.134-.485 0-.624-.009-.786 1.123-.323 0-.631 1.01-.954 1.01h-.506c-.646 0-.33-1.01-.168-1.01.162-1.131.624-1.114.786-2.246.647-3.395-.797-6.775-2.414-9.038-.809 0-1.13 1.123-1.291 1.123-.97 3.395-1.125 5.643.168 9.038.323 0 1.291 1.163 1.291 2.134h-.505c-.485-.97-2.86-5.52-4.154-3.257-.324 0-.337 1.114-.337 2.246.161 2.102 1.134 4.361 2.75 6.625.647 0 1.761 1.17 2.246 2.301.162 1.133.344 1.123.506 1.123 0 0 .161 1.123 0 1.123h-.674c-.809-2.263-2.434-2.246-2.92-2.246-.646 0-.161 3.36 0 4.492.324.97 1.128 3.247 2.583 4.379 1.132 1.132 2.933 2.283 3.256 4.547-1.293 0-2.762-2.302-4.379-2.302-1.293 1.132 1.15 4.539 1.797 5.67.646 1.133 1.965 2.302 1.965 2.302s-.533.97-1.18 0h-.785c-.97-2.263-2.109-4.556-4.21-3.424h-2.078c-.97 0-1.466.009-1.628-1.123-.324-2.263-.016-3.407.954-5.67.162 0 .519-1.123.842-1.123 0-1.132-.175-2.286-.336-3.256v-2.246a50.97 50.97 0 0 0-1.46-6.793c-.324-2.263-1.487-2.237-2.133-3.368-.486-.97-.926-2.125-1.572-3.257-.324 0-.843-1.113-.843-2.245.162 0 1.635-1.123 1.797-1.123.323-1.132.483-2.302 1.291-2.302h1.123c.808-1.131 1.002-2.237 2.133-3.368h.786c.647-2.264.645-3.247 1.292-4.38Zm78.091 0h.786c.323 0 .856 3.247 1.18 4.379h.28c1.617 1.132 1.45 2.236 2.582 3.368.485 1.132 1.137-.009 1.46 1.123.323 0 .68 1.17.842 2.302h.337s1.565-.01 1.404 1.123c0 1.132-.638 1.113-1.123 2.245-1.132 1.132-2.392 3.238-3.2 5.502-.324 0-.512 1.114-.674 2.246-.162 1.132-.287 1.17-.449 2.301-.324 2.264-.35 4.523-.674 6.625-.323 2.264 1.48 3.407 1.965 5.67.162 1.132-.35 2.237-.673 3.369h-4.548c-.647 0-1.248 1.122-1.572 1.123-.97 1.132-1.808 3.271-3.424 2.301.484 0 .974-1.179 1.46-1.179.646-1.131 3.074-4.482 2.75-5.614-.809-1.131-3.409-.009-4.379 1.123h-.449s-.683-1.123.45-1.123c.322-1.131.686-1.179 1.01-1.179.484-1.131 1.093-1.123 1.74-1.123 1.778-2.263 2.758-4.513 2.92-7.747 0 0-.007-1.114-.169-2.246-.97 0-2.23 1.114-3.2 2.246h-.505c0-2.263 1.632-3.416 3.087-4.547 1.455-2.264 3.054-5.637 2.246-8.87h-.674c-1.455 0-3.388 3.247-3.873 4.378h-.618c0-1.131.975-2.124 1.46-3.256 1.293-2.263 1.419-5.652.449-7.916-.162-1.131-.308-1.114-.955-2.245-.808 0-1.136 1.114-1.46 2.245-.97 1.132-1.782 3.398-1.459 6.793 0 0 .175 1.123.337 1.123.161 1.132.984 2.125.337 3.256h-.337c0-1.131-1.767-3.256-2.414-3.256-.162 0-.344 1.123-.505 1.123-.324.97-.499 3.247-.337 4.379 0 1.132.357 3.416.842 4.547.323 0 .631 1.123.954 1.123.485 1.132 1.13 1.114 1.292 2.246.161 1.132.141 2.124-.506 3.256-1.293 0-.923-4.379-2.863-4.379-.485 1.132-.512 2.286-.674 3.256-.323 1.132-.498 3.36-.336 4.491 0 2.264 1.621 3.407 1.46 5.67-.163 1.133-1.58 2.293-1.741 3.425h-.674c0-1.131.625-1.17.786-2.301.323 0 .667-1.114.505-2.246 0-1.132-.006-1.123-.168-1.123h-1.46c-1.455 1.132-2.391 2.228-3.2 4.491-.323 0-.337-2.245-.336-2.245h-1.629c-.97 1.132-2.11 1.113-2.919 2.245-.647 1.132-1.255 1.164-1.74 2.134h-.337c-.323 0-.337-.955-.337-.955-2.425 0-4.833.937-6.288 3.2-.646 0-.981 1.17-1.628 2.302-1.132 0-2.117-1.179-3.088-1.179-.808 0-1.774-1.123-2.582-1.123-.162 0-.175.01-.337-1.123H360.193c2.102 0 4.06.01 5.839-1.122 5.497-.97 10.66-3.22 14.54-7.748 1.94-2.263 3.557-5.692 4.042-8.926.162-2.263-.204-14.523.281-16.786.323-1.132 2.448-1.17 3.256-2.302 1.294-1.132 1.164-3.36 2.134-4.491 1.131-2.264 3.528-2.277 4.66-4.38Zm-65.628 1.123c.283 0 1.393.768 1.46.954-.324 1.132-1.784.016-1.46-.954Zm53.39.224c.182 0 .368.245.449.73.323 0-.519 1.179-.842 1.179-.162 0-1.123-.047-1.123-1.179h1.01c.162-.485.324-.73.506-.73Zm-53.895 4.155c.808 0 1.298-.01 1.46 1.122 0 1.132-2.269.01-1.46-1.122Zm53.839 0c2.263 0 .675 2.245-.618 2.245h-.168c-.162-1.132.139-2.245.786-2.245Zm-62.26 2.245c1.293 0 1.34 4.53 1.178 6.793-.161 0-1.024-1.113-1.347-2.245-.323-1.132-.317-3.416.168-4.548Zm6.512 0c.647 1.132.925 1.123 1.572 1.123.161 0 .161 1.18 0 1.179h-.169c-.646 0-.918-.047-1.403-1.179-.162 0-.324.01 0-1.123Zm64.674 0c1.132 1.132.604 4.539.28 5.67-.161 0-.455 1.123-.617 1.123-1.617 0-.148-5.66.337-6.793Zm-6.288.674c.273-.16.28.45.28.449 0 1.132-.987 1.18-1.796 1.179 0-1.132.519-1.179.842-1.179h.281c.162-.283.302-.396.393-.45Zm-79.102 6.12c1.132 0 1.311 1.122 1.796 1.122.809.97 1.936 2.125 2.583 3.256.808 2.264.806 4.53 1.291 6.793.323 1.132.948 3.4.786 5.502 0 1.132-.8 2.246-1.123 2.246-.808 2.263-.492 3.406-.168 5.67.161 1.132.188 2.246.673 2.246 1.132 1.131 3.717 0 5.334 0 0 0 .007 1.122.168 1.122H315.73c-.97 1.132-1.312 1.164-1.797 2.134h-.954c-.809 0-.82 1.122-1.628 1.122-2.102 0-3.88-6.606-4.042-8.87 0 0 .462-1.17.786-2.302.161-1.131-.631-3.359-.955-4.49-.323-.97-.476-1.002-1.123-2.134h-1.46c-.646-1.132-1.796-2.237-1.796-3.369 0-1.131.856-2.292 1.18-3.424.646-2.264 1.135-3.4 1.459-5.502.323 0 .462-1.123.786-1.123Zm99.088 0c.647 0 .968-.01 1.292 1.122.808.97.98 3.247 1.628 4.379.323 1.132.518 2.293.842 3.425.161 0 .294-.01.617 1.122v1.123c-.485 1.132-1.1 2.246-1.909 2.246-.485 0-1.311-.009-1.796 1.123-.97.97-1.473 3.247-1.797 4.379 0 1.131.007 2.245.169 2.245.162 1.132.673 1.17.674 2.302-.162 0-.344-.009-.506 1.123-.485 2.263-1.468 6.616-4.379 7.747v-1.123c-.323 0-.456.01-.617-1.122h-1.123c-.162 0-.357-.955-.842-.955-.97-1.132-2.098-.047-2.583-1.179h.169c0-1.131.456 0 .617 0 1.779 0 4.238 1.141 4.885-1.122.485-2.264.983-4.539.336-5.67-.485-2.264-1.34-3.351-1.179-5.615 0-2.102.68-3.238.843-5.502.323-1.131.307-3.415.954-4.547 1.132-2.264 2.897-3.4 3.705-5.502Zm-87.635 1.122c1.455.97 2.596 3.238 2.919 5.502h-.169c-1.293 1.132-3.074-4.532-2.75-5.502Zm38.175 1.01c.324 0 2.12 1.123 1.797 1.123-.324 1.132-3.256 4.492-3.256 4.492-.485-1.132-1.474-2.246-1.797-2.246.809-1.132 2.286-2.237 3.256-3.368Zm38.513 0h.112c1.132 1.132-1.437 4.483-2.246 5.615h-.617c0-2.264 1.296-5.614 2.75-5.614Zm-70.681 1.123c1.455 1.132-.322 6.793-1.292 6.793h-.336c-.162-2.263.82-4.529 1.628-6.793Zm38.344 0h.449c6.467 0 11.34 4.494 11.34 11.285 0 2.102-1.322 4.36-3.424 6.624-1.455 1.132-3.057 2.302-4.997 2.302s-3.71.009-5.165-1.123c-7.437-2.263-8.234-11.183-2.414-16.842 1.294-1.132 2.432-1.114 4.21-2.246Zm26.161 0c.324 1.132.8 1.114 1.123 2.246.324 0 1.469 4.539.337 5.67-.162-1.132-.301-1.114-.786-2.245-.485-1.132-1.32-3.407-.674-5.67Zm-25.88 2.246c-1.78 0-3.535 1.114-4.829 2.246-1.131 1.132-1.641 3.415-1.965 4.547-.808 4.366 2.127 7.786 6.007 10.05h3.706c.647 0 1.136-.048 1.46-1.18 1.455 0 2.896-1.114 3.705-2.245 3.233-4.366 1.77-11.154-2.92-13.418h-5.165Zm-.618 1.123H365.527v1.123h-.337c-.485 0-3.537.009-3.537-1.123Zm5.165 1.123c.485 0 1.298 1.179 1.46 1.179.97 1.131-.162 3.35 0 5.614.161.97 1.27 2.124.785 3.256h-.336c-1.294 1.132-3.205 0-4.66 0-1.294 0-2.917 1.123-4.21 1.123-.324 0-.456-1.123-.618-1.123-.485-1.132.28-2.277.28-4.38-.161-1.13-1.095-2.227-.449-4.49h.281c.809-1.132 2.286 0 3.256 0h1.965c.647 0 1.437-.048 2.246-1.18Zm-4.042 2.301c-.485 1.132-1.137 1.123-1.46 1.123-1.94 3.396.016 5.502 3.088 5.502h1.74c.485-1.132 1.01-2.124 1.01-3.256 0-2.264-1.791-3.369-4.378-3.369Zm7.41 1.123c.647 1.132.836 2.237.674 3.369-.162 0-.175 1.01-.337 1.01h-.168c-.324-.97-.815-2.115-.169-4.379Zm-6.231.674c.97-.053 1.693.997 1.572 2.695 0 0-.35.04-.674 1.01-1.132 0-2.744-.031-2.583-2.133 0 0 .027-1.123.674-1.123.364-.283.687-.431 1.01-.45Zm-6.681.449c.485 1.132.948 1.114.786 2.246-.323.97-.45 1.001-.45 2.133h-.336c-.647-1.132-.647-3.247 0-4.379Zm35.762.618c.172.055.18.505.28.505 0 2.102-1.751 5.502-3.368 5.502h-.169c-.161 0-.161.009 0-1.123.485-1.132 1.781-3.247 2.751-4.38.243-.424.402-.537.506-.504Zm-91.566.505c.808 0 .981-.01 1.628 1.123 1.455.97 1.936.031 2.583 2.133h.168s.007-.009.168 1.123c.162 0 .485 1.114 0 2.245-.161 1.133-.617 1.17-.617 2.302 0 0 .294 1.114.617 2.246.485 1.132.827 3.4 1.797 5.502.323 0 .604 1.122.28 1.122h-1.29c-.486-1.131-.47-1.107-.955-2.077-.808-1.131-3.717-3.424-5.333-3.424-.324 0-.337 1.122-.337 1.123-.162 1.132 1.156 3.247 1.965 4.378.323 0 .624-.009.786 1.123h-.786c-1.132-1.131-1.77-5.502-5.165-5.501h-1.797c-.808 0-1.136.008-1.46-1.123 0 0-.33-1.114-.168-2.246.324 0 1.606-1.17 2.414-2.302 1.294-1.131 2.792-2.236 3.762-3.368.97-1.132 1.255-3.247 1.74-4.38Zm17.628 0c1.294 0 2.933 3.247 3.256 4.379 0 0-.013 1.123-.336 1.123-.809 0-2.59-3.41-2.751-4.38-.162 0-.492-1.122-.169-1.122Zm91.229 0h.618c0 3.234 2.277 5.484 4.378 7.747.809 1.132 3.369 2.293 3.369 3.425v1.123c-.162 0-.288 1.122-.45 1.123h-1.122c-3.072 0-4.09.022-5.221 3.256-.324 0-.47 1.122-.954 1.122-.162 0-.47 1.123-.955 1.123h-.168v-1.123h.505c.97-1.131 2.064-3.247 1.74-4.378-2.102 0-4.482 1.17-5.614 2.301-.485.97-.813 2.077-1.46 2.077v1.123c-.485 0-.967-1.123-1.29-1.123-.324 0 .96-1.107 1.122-2.077.808-1.131 1.136-2.284 1.46-4.547.323-1.132.456-1.114.617-2.246 0-1.131-.63-1.17-.954-2.302-.324-1.131.644-3.359 1.291-4.49.485 0 1.262-.041 1.909-1.011.485 0 .856-1.123 1.179-1.123Zm-85.222 2.133c2.102 1.132.324 5.614 0 5.614-1.617 0-.646-5.614 0-5.614Zm61.587 0c.485 1.132.673 1.123.673 1.123.485 1.132.815 4.491.169 4.491 0 0-.169.048-.169 1.18h-.336c0-1.133-.337-1.18-.337-1.18-.324-2.263-.485-3.35 0-5.614Zm-23.58 4.491h3.369c-1.293 0-1.752 1.132-3.368 0Zm-42.217 3.425c1.94 1.132 4.841 3.407 5.165 5.67h-.787c-1.454-1.132-2.454-2.292-3.424-3.424-.485-1.132-.793-1.114-.954-2.246Zm69.951.28c.162 0 .312.277.393.843 0 1.132-3.386 4.547-5.165 4.547h-.168c0-1.132 4.379-4.547 4.379-4.547.242-.566.4-.842.561-.842Zm-6.793 1.46c.11.056.056.506.056.506s-1.127 3.424-2.582 3.424v.955h-.337c0-2.102 1.282-3.247 2.414-4.38.242-.424.383-.538.45-.505Zm-104.253.506c1.455 0 2.315 1.114 2.638 2.245h-.505c-1.293 0-1.972-1.113-2.133-2.245Zm48.393 0c1.293 0 2.744 2.292 2.582 3.424-1.455 0-2.582-2.292-2.582-3.424Zm103.636 0h.168c.809 1.132-.82 2.245-1.628 2.245v1.18c-.323 0-.343-1.18-.505-1.18-.485-1.131 1.318-2.245 1.965-2.245Zm-53.895 1.796c.303-.159.215.45.337.45 0 1.131-1.739 3.256-3.032 3.255 0 1.132-.168 1.123-.168 1.123-.162-1.131-.169-1.122-.169-1.123.324-1.131 1.774-2.124 2.583-3.256.202-.283.348-.396.449-.449Zm-76.127.45c1.455 0 3.705 2.124 3.705 3.255-1.293 0-3.382-2.124-3.705-3.256Zm25.712 0c.324 0 .512 1.178.674 1.178h-.505l-.169-1.179Zm6.176 0c1.455 0 3.53 2.124 3.368 3.255-1.293 0-3.045-2.124-3.368-3.256Zm76.632 0c.647 2.101-1.78 3.247-2.75 4.378h-.843c0-2.263 2.461-3.247 3.593-4.379Zm-91.846 1.178h.954c.323 0 .997.955.674.955-.647 1.131-1.952-.955-1.628-.955Zm13.754 0h.786s-.168-.015-.168.955c-.485 0-.618-.955-.618-.955Zm8.87 0h.506c.017.022.038.035.056.056.586.102 1.129.343 1.684.899 2.749 0 5.686 1.122 8.758 1.122 0 0-.02 1.123-.505 1.123v1.123c-.485 0-.975-1.132-1.46 0-1.293 0-2.398 1.132-3.368 0-.324 0-2.273-2.246-2.92-2.246-.79 0-1.405-1.065-2.19-2.02a5.01 5.01 0 0 0-.56-.057Zm38.457 0h.168c.485 0 .485-.015 0 .955-.323 0-.33-.955-.168-.955Zm13.923 0h.842c-.162 0-1.642.946-1.965 2.077h-.505c0-1.131.82-2.077 1.628-2.077Zm-111.159.506c.077-.02.164.085.225.449.646 0 .372-.01-.113 1.122-.323 0-.505-1.122-.505-1.122.08 0 .216-.272.337-.393.03-.03.03-.05.056-.056Zm-3.368.449c.197-.018.4 0 .561 0 1.132 0 1.783-.018 1.46 2.245-.647 0-1.319.01-1.965-1.123h-1.292c0-.848.644-1.07 1.236-1.122Zm16.898 0c.485 0 1.608 1.114 1.123 2.245-.647 0-1.123-1.113-1.123-2.245Zm3.032 0c.97 1.131 1.311 1.114 1.796 2.245a36.132 36.132 0 0 1-.337 0c-.808 0-1.621-1.113-1.46-2.245Zm16.842 0c.161 0 1.77-.01 1.123 1.122-.647 0-1.123-1.122-1.123-1.122Zm8.252 0c5.174 0 9.221 1.105 13.587 3.368 1.131 0 2.23.047 3.2 1.18 2.101 0 4.242 1.122 6.343 1.122h.113c-.162 1.132-.806 1.123-1.292 1.123-1.455 0-2.91-1.123-4.042-1.123-.808 0-1.774.009-2.582-1.123-3.88-1.132-8.554-3.424-13.08-3.425-.648 0-1.6-.008-2.247 1.123h-2.301c0-1.131 1.816-1.113 2.301-2.245Zm72.085 0c.809 0 .31 1.123-.337 1.122h-.786c.324 0 1.123-1.122 1.123-1.122Zm33.348 0c.038-.018.072 0 .112 0H430.37c-.323 1.131-.343 1.123-.505 1.122h-.618c0-.848.055-1.07.169-1.122Zm2.245 0c1.132 0 1.936-.01 2.583 1.122h-.337c-.485 1.132-1.43 1.123-2.077 1.123-1.132 0-.654-1.113-.169-2.245Zm-43.902.842c1.294 0 2.396.272 2.639 1.403h-.618c-1.455 0-3.878-1.131-5.333 0h-1.46c-2.587 0-5.322 1.17-7.747 2.302-1.617 0-3.71-.009-5.165 1.123-1.455 0-2.636 1.123-3.93 1.123h-1.909v-1.123c1.456 0 2.742.009 3.874-1.123 3.719-1.132 7.285-2.302 11.004-2.302.808-1.131 1.774-1.122 2.582-1.123h2.414c.89 0 2.356-.28 3.65-.28Zm-69.109.28c.647 0 1.255-.008 1.74 1.123h.169c-.97 0-2.232 1.141-1.909-1.123Zm21.783 0c.485 0 3.734 1.114 3.087 2.246-.646 1.132-2.926-2.245-3.087-2.246Zm14.54 0c.104-.017.216 0 .337 0h1.291c1.294 1.132.97 2.293 0 3.425-1.132 1.132-2.906-1.17-2.582-2.302h.168c.243-.849.475-1.07.786-1.123Zm15.72 0c1.131 1.132-1.43 2.246-2.078 2.246h-.842c0-1.132 2.273-2.245 2.92-2.246Zm22.007 0h1.123v1.123h-1.685c.235-.053.44-.274.562-1.123Zm19.761 0c.137-.017.288 0 .45 0h.449c.323 0-.632 1.123-.955 1.123-.323 1.132-.456 0-.617 0 0-.849.264-1.07.673-1.123Zm3.369 0h.617s-.638 1.123-1.123 1.123h-.336c-.647 0 .518-1.122.842-1.123Zm-131.594 1.123c.023-.017.072 0 .112 0h3.425c.97 0 1.942 1.123 2.75 1.123h3.2c.647 0 1.15-1.123 1.797-1.123.809 0 1.15 1.123 1.797 1.123h1.908c.647 0 1.305.047 1.628 1.18-4.633-.014-8.952-.177-13.249-1.18h-3.424c0-.849-.014-1.072.056-1.123Zm26.161 0c1.294 0 2.56 1.132 3.369 0h3.593c-.647 1.132-1.318 1.123-1.965 1.123h-.954c-1.294 0-4.38.047-4.38 1.18h-9.15c.488-.059 1.234-1.18 2.02-1.18h3.762c1.132 0 2.574-1.123 3.705-1.123Zm18.583 0c.647 0 1.15 1.123 1.796 1.123h.169c-.162 0-1.978 1.18-2.302 1.18-1.455 1.13-2.888 1.122-4.828 1.122h-.168c-.162 0 .168-1.123.168-1.123.647-1.132 4.033-1.17 5.165-2.302Zm65.965 0h4.716c.647 1.132 1.43 0 2.077 0 .647 1.132 1.312 1.123 1.797 1.123h5.614c.808 0 1.325 1.18 2.133 1.18.647 0 1.1-1.18 1.91-1.18.646 0 .812 1.18 1.459 1.18.808-1.133 1.325-1.18 2.133-1.18H422.285c1.778 0 3.555-1.123 5.333-1.123.324 0 .169 1.123.169 1.123h-1.123c-.97 0-2.946 1.18-3.593 1.18h-4.042c-1.132 0-3.683-.01-4.491 1.122-2.426 0-4.867-1.123-7.13-1.123-4.366 0-8.745-.047-12.464-1.179v-1.123Zm-13.754 1.123h.674c1.131 0 6.449.047 6.287 1.18-.323 1.13-4.686 0-5.333 0-.485 0-.981-.048-1.628-1.18Zm-31.495 1.18h2.75c1.78 1.13 3.057 2.236.955 3.368h-.337s-.175.009-.336-1.123c-.324 0-.47.009-.955-1.123-.647 0-1.754.009-2.077-1.123Zm9.993 0h1.965c0 1.13-1.648 1.113-2.133 2.245-.324 0-.631 1.123-.955 1.123h-1.123c-1.455-2.264 1.276-3.369 2.246-3.369Zm-53.67 1.122h2.919c0 2.264-5.345 3.377-6.962 2.246h-.337s1.47-2.246 4.38-2.246Zm30.26 0c.808 0 3.543-.009 3.705 1.123.161 0-2.441 1.123-3.088 1.123h-3.537c0-1.132 2.11-2.246 2.92-2.246Zm36.435 0c.197-.018.4 0 .561 0 1.617 0 3.59-.009 4.884 1.123.324 0 .274 1.123.113 1.123h-.955c-2.425 0-3.898.009-5.838-1.123 0-.85.643-1.07 1.235-1.123Zm30.316 0h.337c1.131 0 7.608 1.114 6.961 2.246-.323 1.131-5.529.009-6.176-1.123h-.954c-.162 0-.168-1.123-.168-1.123Zm-52.548 1.123h.786c.162 1.132.168 1.123.168 1.123H350.987c-.97 0-1.782 1.123-2.752 1.122-.97 0-1.956-.008-3.087 1.123-.647-1.132-.786-1.122-.786-1.123 0 0-.05-1.122.112-1.122h1.179c1.617 0 3.211-1.123 4.828-1.123Zm10.05 0c1.13 0 8.692 1.105 5.782 3.368h-.45c-.97-1.132-5.346-2.245-5.67-2.245.162 0 .337-1.123.337-1.123ZM304.726 20.52c-.162 0-.324 0 0 0 .323 0 .323 0 0 0" fill="#000000"/>
    <path d="M1.08 1.277c-.485.809-.485 1.94 0 2.587 9.702 2.264 11.804 5.012 11.804 13.905v76.962c0 10.186-1.456 11.642-11.157 13.905-.485.647-.485 1.779 0 2.425h41.877c38.158 0 66.13-21.342 66.13-54.487 0-21.666-13.582-41.554-32.823-49.315-10.348-4.203-22.96-5.982-37.673-5.982H1.081Zm32.5 5.982c9.862 0 18.593.486 27 3.88 13.906 5.66 27.326 21.99 27.326 45.435 0 31.528-19.888 48.667-54.327 48.667V7.259Zm33.953 1.779.324-.485c17.947 7.76 32.337 25.061 32.337 48.02 0 17.786-10.025 37.673-32.5 47.213l-.322-.809c19.725-9.216 30.235-27.325 30.235-46.403 0-21.99-14.067-39.613-30.074-47.536ZM22.1 7.259h2.263v97.982H22.1V7.259ZM120.566 1.277c-.485.809-.485 1.94 0 2.587 8.893 1.617 10.025 4.366 10.025 12.288v80.196c0 7.923-1.132 10.51-10.025 12.288-.485.647-.485 1.779 0 2.425h40.906c.647-.646.647-1.778 0-2.425-8.892-1.778-10.024-4.365-10.024-12.288V16.152c0-7.922 1.132-10.671 10.024-12.288.647-.647.647-1.778 0-2.587h-40.906Zm21.666 5.982v97.982h-2.264V7.259h2.264ZM264.143 82.928c-.162-.97-1.294-1.293-2.102-.97-13.097 19.079-27.972 23.283-51.578 23.283h-6.629V58.352h14.552c12.45 0 19.402 3.395 26.678 13.258.97.324 1.94 0 2.102-.97l-7.114-15.36 7.114-15.522c-.162-.808-.97-1.293-2.102-.97-7.276 9.863-14.228 13.258-26.678 13.258h-14.552V7.26h5.66c25.222 0 35.57 6.468 49.798 23.768.809.485 1.94 0 1.94-.97-4.688-9.54-9.054-19.24-12.611-29.265-2.425.323-10.51.485-13.582.485h-62.087c-.485.809-.485 1.94 0 2.587 8.893 1.617 10.025 4.366 10.025 12.288v80.196c0 7.923-1.132 10.51-10.025 12.288-.485.647-.485 1.779 0 2.425h64.998c3.233 0 10.186.162 13.581.486 3.557-9.702 7.923-19.241 12.612-28.619Zm-69.525 22.313h-2.425V7.259h2.425v97.982ZM535.933 82.12c-.161-.647-1.131-1.294-1.94-.809-10.833 15.846-22.312 23.93-49.314 23.93h-10.671L533.83 2.247v-.97h-54.81c-4.528 0-11.804-.162-16.654-.485-3.396 9.701-7.6 19.24-12.127 29.103.162.647 1.294 1.132 1.94.809 10.348-14.714 17.947-23.445 47.212-23.445h7.923l-59.824 102.994v.808h57.399c6.144 0 12.288.162 18.27.486 3.719-9.863 8.085-19.564 12.773-29.427ZM520.412 7.26l-56.59 97.98h-2.91l56.59-97.98h2.91ZM634.561 82.928c-.161-.97-1.293-1.293-2.101-.97-13.097 19.079-27.972 23.283-51.416 23.283h-6.791V58.352h14.552c12.45 0 19.402 3.395 26.678 13.258.97.324 1.94 0 2.102-.97l-7.115-15.36 7.115-15.522c-.162-.808-.97-1.293-2.102-.97-7.276 9.863-14.229 13.258-26.678 13.258h-14.552V7.26h5.659c25.223 0 35.57 6.468 49.799 23.768.808.485 1.94 0 1.94-.97-4.689-9.54-9.054-19.24-12.611-29.265-2.426.323-10.51.485-13.582.485h-62.087c-.485.809-.485 1.94 0 2.587 8.893 1.617 10.024 4.366 10.024 12.288v80.196c0 7.923-1.131 10.51-10.024 12.288-.485.647-.485 1.779 0 2.425h64.997c3.234 0 10.187.162 13.582.486 3.557-9.702 7.923-19.241 12.611-28.619Zm-69.524 22.313h-2.426V7.259h2.426v97.982ZM643.136 1.277c-.647.809-.647 1.94 0 2.587 8.893 1.617 10.024 4.366 10.024 12.288v80.196c0 7.923-1.131 10.51-10.024 12.288-.647.647-.647 1.779 0 2.425h40.906c.485-.646.485-1.778 0-2.425-8.892-1.778-10.024-4.365-10.024-12.288V16.152c0-7.922 1.132-10.671 10.024-12.288.485-.647.485-1.778 0-2.587h-40.906ZM664.64 7.26v97.982h-2.264V7.259h2.264ZM699.401.793c-3.395 9.378-7.76 18.917-12.611 28.295 0 .809 1.293 1.294 2.102.97 13.42-17.623 23.444-22.797 34.277-22.797v89.088c0 7.923-1.294 10.51-10.186 12.288-.485.647-.485 1.779 0 2.426h41.068c.485-.809.485-1.617 0-2.426-8.893-1.778-10.186-4.365-10.186-12.288V7.261c10.833 0 21.18 5.174 34.277 22.797.808.324 2.102-.161 2.102-.97-4.689-9.216-8.893-18.594-12.612-28.295-5.982.324-13.581.485-19.725.485h-28.78c-4.042 0-15.684-.161-19.726-.485Zm35.248 6.468v97.981h-2.264V7.261h2.264Z" fill="#191914"/>
  </g>
</svg>
