<?xml version="1.0" encoding="UTF-8"?>
<svg width="284px" height="93px" viewBox="0 0 284 93" version="1.1" xmlns="http://www.w3.org/2000/svg" xmlns:xlink="http://www.w3.org/1999/xlink">
    <title>Logo_Diakonie_Deutschland_RGB_cyan_violett</title>
    <g id="Page-1" stroke="none" stroke-width="1" fill="none" fill-rule="evenodd">
        <g id="Logo_Diakonie_Deutschland_RGB_cyan_violett" transform="translate(0.500000, 0.000000)" fill="#000000" fill-rule="nonzero">
            <g id="Deutschland" transform="translate(0.000000, 56.400000)">
                <path d="M0,0 L12.1,0 C23,0 29.1,5.5 29.1,16.9 C29.1,28.7 23.9,35.4 12.1,35.4 L0,35.4 L0,0 Z M4.7,31.4 L12.5,31.4 C15.7,31.4 24.4,30.5 24.4,17.5 C24.4,9.1 21.3,4 12.6,4 L4.7,4 L4.7,31.4 Z M55.9,27.3 C54.8,32.9 50.7,36 44.9,36 C36.7,36 32.9,30.4 32.6,22.5 C32.6,14.8 37.7,9.2 44.6,9.2 C53.7,9.2 56.4,17.7 56.2,23.9 L37.1,23.9 C37,28.4 39.5,32.3 45.1,32.3 C48.6,32.3 51,30.6 51.7,27.3 L55.9,27.3 L55.9,27.3 Z M51.8,20.1 C51.6,16.1 48.6,12.9 44.4,12.9 C40,12.9 37.4,16.2 37.1,20.1 L51.8,20.1 Z M81.7,35.4 L77.7,35.4 L77.7,31.3 L77.6,31.3 C75.8,34.5 72.9,36 69.3,36 C62.6,36 60.5,32.1 60.5,26.6 L60.5,9.8 L64.7,9.8 L64.7,27.1 C64.7,30.2 66.7,32.3 69.9,32.3 C75,32.3 77.5,28.9 77.5,24.3 L77.5,9.8 L81.7,9.8 L81.7,35.4 L81.7,35.4 Z M93.6,9.8 L98.7,9.8 L98.7,13.5 L93.6,13.5 L93.6,29.4 C93.6,31.3 94.1,31.7 96.8,31.7 L98.7,31.7 L98.7,35.4 L95.5,35.4 C91.1,35.4 89.4,34.5 89.4,29.8 L89.4,13.5 L85,13.5 L85,9.8 L89.4,9.8 L89.4,2.1 L93.6,2.1 L93.6,9.8 L93.6,9.8 Z M105.6,27.3 C105.7,31.1 109,32.3 112.5,32.3 C115.1,32.3 118.7,31.7 118.7,28.5 C118.7,25.2 114.5,24.7 110.3,23.7 C106.1,22.8 101.9,21.4 101.9,16.5 C101.9,11.3 107,9.2 111.5,9.2 C117.2,9.2 121.7,11 122,17.2 L117.8,17.2 C117.5,13.9 114.6,12.9 111.9,12.9 C109.4,12.9 106.4,13.6 106.4,16.2 C106.4,19.2 110.9,19.7 114.8,20.7 C119,21.6 123.2,23 123.2,28 C123.2,34.1 117.5,36.1 112.3,36.1 C106.5,36.1 101.7,33.8 101.4,27.4 L105.6,27.4 L105.6,27.3 Z M144.9,18 C144.3,14.8 142,12.9 138.6,12.9 C132.5,12.9 130.6,17.7 130.6,22.9 C130.6,27.6 132.7,32.3 138.1,32.3 C142.2,32.3 144.6,29.9 145.1,26.1 L149.4,26.1 C148.5,32.3 144.5,36.1 138.1,36.1 C130.3,36.1 126.1,30.6 126.1,23 C126.1,15.3 130.1,9.3 138.2,9.3 C144,9.3 148.7,12 149.3,18.1 L144.9,18.1 L144.9,18 Z M153.8,0 L158,0 L158,13.6 L158.1,13.6 C159.5,10.5 163.1,9.2 166.2,9.2 C172.9,9.2 175,13.1 175,18.6 L175,35.5 L170.8,35.5 L170.8,18.1 C170.8,15 168.8,12.9 165.6,12.9 C160.5,12.9 158,16.3 158,20.9 L158,35.4 L153.8,35.4 L153.8,0 L153.8,0 Z M181,0 L185.2,0 L185.2,35.4 L181,35.4 L181,0 Z M214,35.3 C213.3,35.7 212.3,36 211,36 C208.8,36 207.4,34.8 207.4,32 C205.1,34.7 201.9,36 198.4,36 C193.7,36 189.9,33.9 189.9,28.8 C189.9,23 194.2,21.8 198.6,20.9 C203.3,20 207.2,20.3 207.2,17.1 C207.2,13.4 204.2,12.8 201.5,12.8 C197.9,12.8 195.3,13.9 195.1,17.7 L190.9,17.7 C191.1,11.4 196.1,9.1 201.8,9.1 C206.4,9.1 211.4,10.1 211.4,16.1 L211.4,29.3 C211.4,31.3 211.4,32.2 212.7,32.2 C213,32.2 213.4,32.2 214,32 L214,35.3 L214,35.3 Z M207.2,22.2 C205.6,23.4 202.4,23.4 199.6,23.9 C196.8,24.4 194.4,25.4 194.4,28.5 C194.4,31.3 196.8,32.3 199.4,32.3 C205,32.3 207.2,28.8 207.2,26.5 L207.2,22.2 L207.2,22.2 Z M217.7,9.8 L221.7,9.8 L221.7,13.9 L221.8,13.9 C223.6,10.7 226.5,9.2 230.1,9.2 C236.8,9.2 238.9,13.1 238.9,18.6 L238.9,35.5 L234.7,35.5 L234.7,18.1 C234.7,15 232.7,12.9 229.5,12.9 C224.4,12.9 221.9,16.3 221.9,20.9 L221.9,35.4 L217.7,35.4 L217.7,9.8 L217.7,9.8 Z M267.8,35.4 L263.6,35.4 L263.6,31.9 L263.5,31.9 C262.1,34.7 258.8,36 255.3,36 C247.4,36 243.5,29.8 243.5,22.5 C243.5,15.3 247.4,9.2 255.2,9.2 C257.8,9.2 261.6,10.2 263.5,13.2 L263.6,13.2 L263.6,0 L267.8,0 L267.8,35.4 Z M255.9,32.3 C261.6,32.3 263.7,27.4 263.7,22.6 C263.7,17.5 261.4,12.9 255.6,12.9 C249.9,12.9 247.9,17.8 247.9,22.8 C248,27.6 250.5,32.3 255.9,32.3 Z" id="Shape"></path>
            </g>
            <g id="Diakonie">
                <path d="M0,0.1 L19.5,0.1 C32.4,0.1 36.9,9.6 36.9,19.4 C36.9,31.2 30.6,38.8 17.2,38.8 L0,38.8 L0,0.1 Z M11.9,28.8 L16.6,28.8 C24,28.8 25.1,22.8 25.1,19.2 C25.1,16.8 24.3,10 15.7,10 L11.9,10 L11.9,28.8 L11.9,28.8 Z M50.7,7.6 L40,7.6 L40,0.1 L50.7,0.1 L50.7,7.6 Z M40,10.6 L50.7,10.6 L50.7,38.7 L40,38.7 L40,10.6 Z M82.8,32.4 C82.8,34.5 82.9,36.9 84.1,38.7 L73.2,38.7 C72.9,37.9 72.8,36.8 72.8,36 L72.7,36 C70.4,38.6 67.1,39.4 63.7,39.4 C58.3,39.4 53.8,36.8 53.8,30.9 C53.8,22 64.2,22.4 69.7,21.3 C71.2,21 72.6,20.6 72.6,18.8 C72.6,16.9 70.8,16.2 69.1,16.2 C65.8,16.2 65.2,17.9 65.1,19.1 L55.1,19.1 C55.4,11.2 62.9,9.9 69.5,9.9 C82.9,9.9 82.8,15.5 82.8,20.9 L82.8,32.4 L82.8,32.4 Z M72.5,26.1 C71.2,26.7 69.7,27.1 68.3,27.5 C65.9,28 64.7,28.6 64.7,30.5 C64.7,31.8 66.1,33.1 68.1,33.1 C70.5,33.1 72.4,31.6 72.6,28.7 L72.6,26.1 L72.5,26.1 Z M87.1,0.1 L97.8,0.1 L97.8,18.8 L104.6,10.7 L116.7,10.7 L106.7,21.3 L118.3,38.8 L105.4,38.8 L99.7,28.6 L97.8,30.7 L97.8,38.8 L87.1,38.8 L87.1,0.1 Z M132.2,39.4 C121.7,39.4 116.9,32.4 116.9,24.6 C116.9,16.8 121.7,9.9 132.2,9.9 C142.7,9.9 147.5,16.8 147.5,24.6 C147.5,32.4 142.7,39.4 132.2,39.4 Z M132.2,17.7 C128.1,17.7 127.6,21.6 127.6,24.6 C127.6,27.6 128.1,31.6 132.2,31.6 C136.3,31.6 136.8,27.6 136.8,24.6 C136.8,21.7 136.2,17.7 132.2,17.7 Z M150.8,10.6 L161.1,10.6 L161.1,14.2 L161.2,14.2 C163.2,11.4 166.1,9.9 170.3,9.9 C175.3,9.9 179.9,13 179.9,19.4 L179.9,38.7 L169.2,38.7 L169.2,24 C169.2,20.8 168.8,18.5 165.7,18.5 C163.9,18.5 161.4,19.4 161.4,23.9 L161.4,38.7 L150.7,38.7 L150.7,10.6 L150.8,10.6 Z M195,7.6 L184.3,7.6 L184.3,0.1 L195,0.1 L195,7.6 Z M184.3,10.6 L195,10.6 L195,38.7 L184.3,38.7 L184.3,10.6 Z M207.9,27.1 C208.2,30.3 210,32.6 213.4,32.6 C215.1,32.6 217,32 217.9,30.6 L227.9,30.6 C225.7,36.7 219.8,39.5 213.5,39.5 C204.5,39.5 197.8,34.2 197.8,24.8 C197.8,16.6 203.7,10 212.6,10 C223.7,10 228.6,16.2 228.6,27.2 L207.9,27.2 L207.9,27.1 Z M218.2,21.5 C218.2,18.9 216.3,16.8 213.5,16.8 C210.3,16.8 208.5,18.5 208,21.5 L218.2,21.5 Z M262.6,17.7 L262.6,12.7 C262.6,9.9 260.2,7.6 257.3,7.6 C254.4,7.6 252,9.9 252,12.7 C252,15.4 254.4,17.7 257.3,17.7 L262.6,17.7 L262.6,17.7 Z M262.6,0 L244.9,0 L244.9,17.7 L250.9,17.7 C249.7,16.3 249,14.6 249,12.7 C249,8.2 252.8,4.6 257.4,4.6 C259.4,4.6 261.2,5.3 262.7,6.4 L262.7,0 L262.6,0 Z M271,17.7 C274,17.7 276.3,15.4 276.3,12.7 C276.3,9.9 274,7.6 271,7.6 C268.1,7.6 265.7,9.9 265.7,12.7 L265.7,17.7 L271,17.7 L271,17.7 Z M265.7,6.4 C267.2,5.3 269,4.6 271,4.6 C275.6,4.6 279.4,8.2 279.4,12.7 C279.4,14.6 278.7,16.3 277.5,17.7 L283.4,17.7 L283.4,0 L265.7,0 L265.7,6.4 Z M244.8,38.7 L262.5,38.7 L262.5,20.9 L244.8,20.9 L244.8,38.7 Z M265.7,38.7 L283.5,38.7 L283.5,20.9 L265.8,20.9 L265.8,38.7 L265.7,38.7 Z" id="Shape"></path>
            </g>
        </g>
    </g>
</svg>