<?xml version="1.0" encoding="UTF-8"?>
<svg width="850px" height="182px" viewBox="0 0 850 182" version="1.1" xmlns="http://www.w3.org/2000/svg" xmlns:xlink="http://www.w3.org/1999/xlink">
    <title>Evangelische_Kirche_in_Hessen_und_Nassau_Logo</title>
    <g id="Page-1" stroke="none" stroke-width="1" fill="none" fill-rule="evenodd">
        <g id="Evangelische_Kirche_in_Hessen_und_Nassau_Logo" transform="translate(0.031000, 0.000000)" fill="#000000" fill-rule="nonzero">
            <path d="M215.959,44.991 L243.799,44.991 L243.799,49.503 L221.349,49.503 L221.349,62.313 L242.239,62.313 L242.239,66.829 L221.349,66.829 L221.349,80.77 L243.959,80.77 L243.959,85.28 L215.959,85.28 M267.519,85.28 L261.429,85.28 L247.179,44.991 L253.019,44.991 L264.499,79.92 L264.499,79.92 L276.079,44.991 L281.669,44.991 M294.209,44.991 L300.099,44.991 L315.859,85.28 L309.919,85.28 L305.539,73.149 L288.519,73.149 L283.989,85.28 L278.449,85.28 M290.179,68.632 L303.829,68.632 L297.129,49.845 L297.129,49.845 L290.279,68.632 L290.179,68.632 Z M320.089,44.991 L325.779,44.991 L346.979,77.66 L346.979,77.66 L346.979,44.991 L352.069,44.991 L352.069,85.28 L346.169,85.28 L325.129,52.947 L325.129,52.947 L325.129,85.28 L320.039,85.28 M390.839,80.26 C387.669,84.43 382.579,86.24 377.899,86.24 C365.859,86.24 358.709,76.48 358.709,65.923 C358.709,54.186 365.159,44.029 377.899,44.029 C386.659,44.029 393.759,47.982 395.219,57.403 L389.879,57.403 C388.769,51.31 383.939,48.546 377.899,48.546 C368.129,48.546 364.099,57.066 364.099,65.641 C364.099,74.05 368.929,81.72 377.899,81.72 C386.259,81.72 391.089,75.97 390.839,68.577 L377.949,68.577 L377.949,64.065 L395.619,64.065 L395.619,85.28 L392.249,85.28 M403.579,44.991 L431.369,44.991 L431.369,49.503 L408.919,49.503 L408.919,62.313 L429.859,62.313 L429.859,66.829 L408.919,66.829 L408.919,80.77 L431.579,80.77 L431.579,85.28 L403.579,85.28 M437.369,44.991 L442.699,44.991 L442.699,80.77 L464.049,80.77 L464.049,85.28 L437.369,85.28 M468.739,85.28 L474.119,85.28 L474.119,44.991 L468.739,44.991 L468.739,85.28 Z M506.149,56.784 C505.549,50.973 501.769,48.546 496.179,48.546 C491.599,48.546 487.169,50.182 487.169,55.429 C487.169,65.359 512.949,58.365 512.949,74.221 C512.949,82.8 504.539,86.24 497.189,86.24 C488.169,86.24 480.569,81.78 480.569,72.016 L485.599,72.016 C485.599,78.79 491.239,81.72 497.339,81.72 C502.219,81.72 507.559,80.2 507.559,74.388 C507.559,63.33 481.779,70.606 481.779,55.822 C481.779,47.7 488.979,44.029 496.379,44.029 C504.639,44.029 510.929,47.927 511.239,56.784 M547.439,57.121 C546.279,51.426 541.799,48.546 536.159,48.546 C526.539,48.546 522.509,56.446 522.509,64.851 C522.509,74.05 526.539,81.72 536.209,81.72 C543.209,81.72 547.389,76.76 547.839,70.102 L553.179,70.102 C552.119,80.2 545.979,86.24 535.759,86.24 C523.269,86.24 517.129,76.99 517.129,65.248 C517.129,53.511 523.819,44.029 536.209,44.029 C544.619,44.029 551.619,48.546 552.779,57.121 M559.569,44.981 L564.909,44.981 L564.909,62.303 L586.159,62.303 L586.159,44.981 L591.499,44.981 L591.499,85.27 L586.159,85.27 L586.159,66.819 L564.909,66.819 L564.909,85.27 L559.569,85.27 M600.109,44.981 L627.909,44.981 L627.909,49.493 L605.449,49.493 L605.449,62.303 L626.389,62.303 L626.389,66.819 L605.449,66.819 L605.449,80.76 L628.109,80.76 L628.109,85.27 L600.109,85.27 M650.669,44.981 L656.049,44.981 L656.049,65.067 L676.499,44.981 L683.399,44.981 L666.429,61.23 L684.099,85.27 L677.299,85.27 L662.749,64.901 L656.049,71.16 L656.049,85.27 L650.669,85.27 M688.579,85.27 L693.969,85.27 L693.969,44.981 L688.579,44.981 L688.579,85.27 Z M702.579,44.991 L721.559,44.991 C729.169,44.991 733.799,49.055 733.799,55.545 C733.799,60.455 731.679,64.402 726.799,65.757 L726.799,65.858 C731.479,66.759 732.389,70.259 732.839,74.156 C733.349,78.05 732.839,82.56 735.209,85.27 L729.219,85.27 C727.709,83.63 728.509,79.29 727.759,75.34 C727.149,71.447 726.249,68.058 721.009,68.058 L707.919,68.058 L707.919,85.27 L702.579,85.27 M719.099,63.556 C724.079,63.556 728.409,62.257 728.409,56.391 C728.409,52.383 726.299,49.503 721.259,49.503 L707.919,49.503 L707.919,63.556 L719.099,63.556 L719.099,63.556 Z M769.349,57.121 C768.139,51.426 763.709,48.546 758.069,48.546 C748.449,48.546 744.369,56.446 744.369,64.851 C744.369,74.05 748.449,81.72 758.119,81.72 C765.119,81.72 769.299,76.76 769.749,70.102 L775.089,70.102 C774.029,80.2 767.889,86.24 757.669,86.24 C745.179,86.24 739.039,76.99 739.039,65.248 C739.039,53.511 745.679,44.029 758.119,44.029 C766.529,44.029 773.529,48.546 774.689,57.121 M781.489,44.991 L786.819,44.991 L786.819,62.313 L808.069,62.313 L808.069,44.991 L813.409,44.991 L813.409,85.28 L808.069,85.28 L808.069,66.829 L786.819,66.829 L786.819,85.28 L781.489,85.28 M821.969,44.991 L849.819,44.991 L849.819,49.503 L827.359,49.503 L827.359,62.313 L848.299,62.313 L848.299,66.829 L827.359,66.829 L827.359,80.77 L849.969,80.77 L849.969,85.28 L822.019,85.28" id="path74"></path>
            <path d="M694.809,125.25 C694.809,132.54 690.679,136.32 683.479,136.32 C676.079,136.32 671.699,132.9 671.699,125.25 L671.699,106.89 L675.519,106.89 L675.519,125.25 C675.519,130.36 678.339,133.1 683.479,133.1 C688.359,133.1 690.979,130.36 690.979,125.25 L690.979,106.89 L694.809,106.89 M651.299,123.75 L661.019,123.75 L656.239,110.35 L656.239,110.35 L651.349,123.75 L651.299,123.75 Z M654.169,106.89 L658.399,106.89 L669.629,135.64 L665.399,135.64 L662.229,126.98 L650.089,126.98 L646.869,135.64 L642.889,135.64 M636.549,115.31 C636.049,111.16 633.379,109.42 629.399,109.42 C626.129,109.42 622.949,110.59 622.949,114.34 C622.949,121.42 641.379,116.43 641.379,127.74 C641.379,133.87 635.389,136.32 630.149,136.32 C623.709,136.32 618.269,133.14 618.269,126.17 L621.899,126.17 C621.899,131 625.919,133.1 630.249,133.1 C633.729,133.1 637.559,132.01 637.559,127.86 C637.559,119.97 619.129,125.16 619.129,114.62 C619.129,108.82 624.309,106.2 629.549,106.2 C635.439,106.2 639.969,108.98 640.169,115.31 M609.909,115.31 C609.409,111.16 606.789,109.42 602.809,109.42 C599.539,109.42 596.369,110.59 596.369,114.34 C596.369,121.42 614.749,116.43 614.749,127.74 C614.749,133.87 608.749,136.32 603.519,136.32 C597.069,136.32 591.629,133.14 591.629,126.17 L595.259,126.17 C595.259,131 599.289,133.1 603.669,133.1 C607.089,133.1 610.919,132.01 610.919,127.86 C610.919,119.97 592.539,125.16 592.539,114.62 C592.539,108.82 597.679,106.2 602.959,106.2 C608.849,106.2 613.339,108.98 613.539,115.31 M571.989,123.75 L581.709,123.75 L576.929,110.35 L576.929,110.35 L572.049,123.75 L571.989,123.75 Z M574.869,106.89 L579.039,106.89 L590.319,135.64 L586.089,135.64 L582.919,126.98 L570.789,126.98 L567.559,135.64 L563.589,135.64 M537.299,106.89 L541.329,106.89 L556.489,130.2 L556.489,130.2 L556.489,106.89 L560.109,106.89 L560.109,135.64 L555.879,135.64 L540.879,112.57 L540.879,112.57 L540.879,135.64 L537.249,135.64 M501.249,132.41 L507.639,132.41 C510.259,132.41 517.309,131.69 517.309,121.1 C517.309,114.26 514.739,110.1 507.689,110.1 L501.249,110.1 L501.249,132.41 L501.249,132.41 Z M497.419,106.89 L507.339,106.89 C516.149,106.89 521.139,111.36 521.139,120.58 C521.139,130.2 516.909,135.64 507.339,135.64 L497.419,135.64 M468.059,106.89 L472.139,106.89 L487.299,130.2 L487.299,130.2 L487.299,106.89 L490.919,106.89 L490.919,135.64 L486.749,135.64 L471.739,112.57 L471.739,112.57 L471.739,135.64 L468.109,135.64 M461.719,125.25 C461.719,132.54 457.589,136.32 450.389,136.32 C442.989,136.32 438.609,132.9 438.609,125.25 L438.609,106.89 L442.429,106.89 L442.429,125.25 C442.429,130.36 445.299,133.1 450.389,133.1 C455.269,133.1 457.889,130.36 457.889,125.25 L457.889,106.89 L461.719,106.89 M398.119,106.89 L402.199,106.89 L417.309,130.2 L417.309,130.2 L417.309,106.89 L420.929,106.89 L420.929,135.64 L416.749,135.64 L401.749,112.57 L401.749,112.57 L401.749,135.64 L398.119,135.64 M373.649,106.89 L393.489,106.89 L393.489,110.1 L377.479,110.1 L377.479,119.25 L392.379,119.25 L392.379,122.47 L377.479,122.47 L377.479,132.41 L393.589,132.41 L393.589,135.64 L373.649,135.64 M363.829,115.31 C363.329,111.16 360.709,109.42 356.729,109.42 C353.459,109.42 350.289,110.59 350.289,114.34 C350.289,121.42 368.669,116.43 368.669,127.74 C368.669,133.87 362.669,136.32 357.439,136.32 C350.989,136.32 345.549,133.14 345.549,126.17 L349.179,126.17 C349.179,131 353.209,133.1 357.539,133.1 C361.009,133.1 364.839,132.01 364.839,127.86 C364.839,119.97 346.459,125.16 346.459,114.62 C346.459,108.82 351.599,106.2 356.879,106.2 C362.719,106.2 367.259,108.98 367.459,115.31 M337.239,115.31 C336.739,111.16 334.069,109.42 330.089,109.42 C326.819,109.42 323.649,110.59 323.649,114.34 C323.649,121.42 342.079,116.43 342.079,127.74 C342.079,133.87 336.039,136.32 330.799,136.32 C324.399,136.32 318.969,133.14 318.969,126.17 L322.589,126.17 C322.589,131 326.569,133.1 330.949,133.1 C334.419,133.1 338.249,132.01 338.249,127.86 C338.249,119.97 319.819,125.16 319.819,114.62 C319.819,108.82 325.009,106.2 330.249,106.2 C336.139,106.2 340.669,108.98 340.869,115.31 M296.209,106.89 L316.049,106.89 L316.049,110.1 L300.029,110.1 L300.029,119.25 L314.939,119.25 L314.939,122.47 L300.029,122.47 L300.029,132.41 L316.149,132.41 L316.149,135.64 L296.209,135.64 M266.899,106.89 L270.729,106.89 L270.729,119.25 L285.829,119.25 L285.829,106.89 L289.659,106.89 L289.659,135.64 L285.829,135.64 L285.829,122.47 L270.729,122.47 L270.729,135.64 L266.899,135.64 M226.259,106.89 L230.289,106.89 L245.449,130.2 L245.449,130.2 L245.449,106.89 L249.069,106.89 L249.069,135.64 L244.839,135.64 L229.839,112.57 L229.839,112.57 L229.839,135.64 L226.209,135.64 M215.889,135.64 L219.719,135.64 L219.719,106.89 L215.889,106.89 L215.889,135.64 Z" id="path108"></path>
            <path d="M62.313,0 L62.313,24.938 L24.907,24.938 L24.907,62.438 L-1.42108547e-14,62.438 L-1.42108547e-14,118.62 L24.907,118.62 L24.907,156.09 L62.313,156.09 L62.313,181.03 L118.529,181.03 L118.529,156.09 L156.089,156.09 L156.089,118.62 L180.999,118.62 L180.999,62.438 L156.089,62.438 L156.089,24.938 L118.529,24.938 L118.529,0 L62.313,0 Z M68.625,6.312 L112.349,6.312 L112.349,24.938 L99.879,24.938 L99.879,50.031 L81.089,50.031 L81.089,24.938 L68.625,24.938 L68.625,6.312 L68.625,6.312 Z M31.219,31.281 L62.313,31.281 L62.313,56.188 L74.907,56.188 L74.907,74.969 L56.188,74.969 L56.188,62.438 L31.219,62.438 L31.219,31.281 L31.219,31.281 Z M68.625,31.281 L74.907,31.281 L74.907,50.031 L68.625,50.031 L68.625,31.281 Z M106.189,31.281 L112.349,31.281 L112.349,50.031 L106.189,50.031 L106.189,31.281 Z M118.529,31.281 L149.879,31.281 L149.879,62.438 L124.809,62.438 L124.809,74.969 L106.189,74.969 L106.189,56.188 L118.529,56.188 L118.529,31.281 L118.529,31.281 Z M81.089,56.188 L99.879,56.188 L99.879,81.12 L124.809,81.12 L124.809,99.91 L99.879,99.91 L99.879,124.84 L81.089,124.84 L81.089,99.91 L56.188,99.91 L56.188,81.12 L81.089,81.12 L81.089,56.188 Z M6.281,68.75 L24.907,68.75 L24.907,81.12 L50,81.12 L50,99.91 L24.907,99.91 L24.907,112.44 L6.281,112.44 L6.281,68.75 Z M31.219,68.75 L50,68.75 L50,74.969 L31.219,74.969 L31.219,68.75 L31.219,68.75 Z M131.089,68.75 L149.879,68.75 L149.879,74.969 L131.089,74.969 L131.089,68.75 Z M156.089,68.75 L174.809,68.75 L174.809,112.44 L156.089,112.44 L156.089,99.91 L131.089,99.91 L131.089,81.12 L156.089,81.12 L156.089,68.75 Z M31.219,106.22 L50,106.22 L50,112.44 L31.219,112.44 L31.219,106.22 L31.219,106.22 Z M56.188,106.22 L74.907,106.22 L74.907,124.84 L62.313,124.84 L62.313,149.94 L31.219,149.94 L31.219,118.62 L56.188,118.62 L56.188,106.22 Z M106.189,106.22 L124.809,106.22 L124.809,118.62 L149.879,118.62 L149.879,149.94 L118.529,149.94 L118.529,124.84 L106.189,124.84 L106.189,106.22 Z M131.089,106.22 L149.879,106.22 L149.879,112.44 L131.089,112.44 L131.089,106.22 Z M68.625,131.19 L74.907,131.19 L74.907,149.94 L68.625,149.94 L68.625,131.19 Z M81.089,131.19 L99.879,131.19 L99.879,156.09 L112.349,156.09 L112.349,174.88 L68.625,174.88 L68.625,156.09 L81.089,156.09 L81.089,131.19 Z M106.189,131.19 L112.349,131.19 L112.349,149.94 L106.189,149.94 L106.189,131.19 Z" id="path110"></path>
        </g>
    </g>
</svg>