<?xml version="1.0" encoding="UTF-8"?>
<svg width="850px" height="113px" viewBox="0 0 850 113" version="1.1" xmlns="http://www.w3.org/2000/svg" xmlns:xlink="http://www.w3.org/1999/xlink">
    <title>Evangelisch-lutherische_Landeskirche_Hannovers_Logo</title>
    <g id="Page-1" stroke="none" stroke-width="1" fill="none" fill-rule="evenodd">
        <g id="Evangelisch-lutherische_Landeskirche_Hannovers_Logo" transform="translate(0.000001, 0.000033)" fill-rule="nonzero">
            <g id="g5402" transform="translate(424.999993, 56.049401) scale(-1, 1) rotate(-180.000000) translate(-424.999993, -56.049401) translate(0.000000, 0.000000)">
                <g id="g5377" transform="translate(0.000000, 16.491307)">
                    <path d="M318.740147,46.6626775 L326.72462,46.6626775 L326.72462,59.4981608 L336.171138,59.4981608 L336.171138,46.6626775 L344.155611,46.6626775 L344.155611,76.6275161 L336.171138,76.6275161 L336.171138,65.1618134 L326.72462,65.1618134 L326.72462,76.6275161 L318.740147,76.6275161 L318.740147,46.6626775 Z M309.769149,53.6180403 C307.579629,52.7592659 304.918138,52.0708269 302.299231,52.0708269 C296.461694,52.0708269 292.299123,55.6336761 292.299123,61.5137966 C292.299123,67.0958301 295.989723,71.2193666 301.656924,71.2193666 C304.403583,71.2193666 306.89119,70.527379 309.467513,69.1150145 L310.113368,75.5948576 C307.235409,76.453632 304.272283,77.142071 301.227537,77.142071 C291.351632,77.142071 284.055598,71.9468408 284.055598,61.5137966 C284.055598,50.1829427 293.2821,46.1481226 301.270121,46.1481226 C305.347525,46.1481226 307.877716,46.790429 310.155952,47.3511165 L309.769149,53.6180403 L309.769149,53.6180403 Z M254.779198,47.4362842 C257.440689,46.5775098 260.914822,46.1481226 263.707613,46.1481226 C270.36134,46.1481226 276.887316,48.248926 276.887316,56.0204794 C276.887316,66.8367783 262.717539,63.5755648 262.717539,68.4265755 C262.717539,71.0454826 266.067468,71.2193666 268.086653,71.2193666 C270.36134,71.2193666 272.678612,70.7899794 274.74038,69.8424887 L275.254935,76.0242448 C273.235751,76.7126838 270.403924,77.142071 267.529514,77.142071 C261.518093,77.142071 254.477563,75.1654704 254.477563,67.9546045 C254.477563,57.0495892 268.643792,60.5734031 268.643792,54.9913696 C268.643792,52.5853818 266.241353,52.0708269 263.707613,52.0708269 C260.400267,52.0708269 257.525857,52.9296013 255.464089,54.0474275 L254.779198,47.4362842 L254.779198,47.4362842 Z M236.319098,46.6626775 L244.30357,46.6626775 L244.30357,76.6275161 L236.319098,76.6275161 L236.319098,46.6626775 Z M208.19956,46.6626775 L228.547544,46.6626775 L228.547544,52.5853818 L216.184032,52.5853818 L216.184032,76.6275161 L208.19956,76.6275161 L208.19956,46.6626775 Z M177.031727,46.6626775 L198.628838,46.6626775 L198.628838,52.3298787 L185.019748,52.3298787 L185.019748,59.1113575 L197.425844,59.1113575 L197.425844,64.7785587 L185.019748,64.7785587 L185.019748,70.9603148 L198.156867,70.9603148 L198.156867,76.6275161 L177.031727,76.6275161 L177.031727,46.6626775 L177.031727,46.6626775 Z M166.172844,64.1752874 L153.766748,64.1752874 L153.766748,58.5116349 L158.447423,58.5116349 L158.447423,52.5853818 C157.716401,52.2411624 156.687291,52.0708269 155.612048,52.0708269 C149.774512,52.0708269 145.61194,55.6336761 145.61194,61.5137966 C145.61194,68.5117432 150.931373,71.2193666 157.414765,71.2193666 C159.306198,71.2193666 162.223192,70.7438469 164.714347,69.2853499 L165.356654,75.8113255 C162.436111,76.9256031 158.273539,77.142071 156.300487,77.142071 C145.310304,77.142071 137.368416,72.8056152 137.368416,61.5137966 C137.368416,50.1829427 146.598466,46.1481226 154.582939,46.1481226 C157.329597,46.1481226 161.108914,46.2332903 166.172844,47.5214519 L166.172844,64.1752874 L166.172844,64.1752874 Z M100.494347,46.6626775 L107.832964,46.6626775 L107.573913,67.1384139 L107.662629,67.1384139 L118.134708,46.6626775 L128.053198,46.6626775 L128.053198,76.6275161 L120.753615,76.6275161 L120.884916,56.2795312 L120.796199,56.2795312 L110.668339,76.6275161 L100.494347,76.6275161 L100.494347,46.6626775 Z M80.3166973,58.7245541 L72.8041957,58.7245541 L76.6686805,70.4457599 L76.7538482,70.4457599 L80.3166973,58.7245541 Z M60.4832673,46.6626775 L68.5954915,46.6626775 L70.9588954,53.0573529 L82.2045815,53.0573529 L84.4366852,46.6626775 L93.1947645,46.6626775 L81.6474427,76.6275161 L71.8602536,76.6275161 L60.4832673,46.6626775 Z M38.3751498,46.6626775 L48.2475066,46.6626775 L58.4640829,76.6275161 L50.266691,76.6275161 L43.57038,53.0999367 L43.4852122,53.0999367 L36.8279364,76.6275161 L28.3289089,76.6275161 L38.3751498,46.6626775 L38.3751498,46.6626775 Z M-7.10542736e-15,46.6626775 L21.590014,46.6626775 L21.590014,52.3298787 L7.98092397,52.3298787 L7.98092397,59.1113575 L20.3905688,59.1113575 L20.3905688,64.7785587 L7.98092397,64.7785587 L7.98092397,70.9603148 L21.1180429,70.9603148 L21.1180429,76.6275161 L-7.10542736e-15,76.6275161 L-7.10542736e-15,46.6626775 L-7.10542736e-15,46.6626775 Z" id="path74" fill="#777777"></path>
                    <polygon id="path76" fill="#000000" points="353.426116 56.8796087 365.058605 56.8796087 365.058605 62.5468099 353.426116 62.5468099"></polygon>
                    <path d="M684.272498,46.6626775 L705.86606,46.6626775 L705.86606,52.3298787 L692.25697,52.3298787 L692.25697,59.1113575 L704.666615,59.1113575 L704.666615,64.7785587 L692.25697,64.7785587 L692.25697,70.9603148 L705.394089,70.9603148 L705.394089,76.6275161 L684.272498,76.6275161 L684.272498,46.6626775 L684.272498,46.6626775 Z M648.775307,46.6626775 L656.759779,46.6626775 L656.759779,59.4981608 L666.1992,59.4981608 L666.1992,46.6626775 L674.187222,46.6626775 L674.187222,76.6275161 L666.1992,76.6275161 L666.1992,65.1618134 L656.759779,65.1618134 L656.759779,76.6275161 L648.775307,76.6275161 L648.775307,46.6626775 Z M639.80076,53.6180403 C637.607691,52.7592659 634.949749,52.0708269 632.33439,52.0708269 C626.493305,52.0708269 622.327185,55.6336761 622.327185,61.5137966 C622.327185,67.0958301 626.021334,71.2193666 631.688535,71.2193666 C634.435194,71.2193666 636.922801,70.527379 639.499124,69.1150145 L640.144979,75.5948576 C637.26702,76.453632 634.303894,77.142071 631.259148,77.142071 C621.386791,77.142071 614.087209,71.9468408 614.087209,61.5137966 C614.087209,50.1829427 623.317259,46.1481226 631.298183,46.1481226 C635.379136,46.1481226 637.909327,46.790429 640.184014,47.3511165 L639.80076,53.6180403 L639.80076,53.6180403 Z M584.807261,47.4362842 C587.4723,46.5775098 590.949982,46.1481226 593.739224,46.1481226 C600.392951,46.1481226 606.915378,48.248926 606.915378,56.0204794 C606.915378,66.8367783 592.752698,63.5755648 592.752698,68.4265755 C592.752698,71.0454826 596.099079,71.2193666 598.118264,71.2193666 C600.392951,71.2193666 602.710223,70.7899794 604.771991,69.8424887 L605.282997,76.0242448 C603.267361,76.7126838 600.431987,77.142071 597.557576,77.142071 C591.546156,77.142071 584.509174,75.1654704 584.509174,67.9546045 C584.509174,57.0495892 598.675403,60.5734031 598.675403,54.9913696 C598.675403,52.5853818 596.269415,52.0708269 593.739224,52.0708269 C590.431878,52.0708269 587.557468,52.9296013 585.499248,54.0474275 L584.807261,47.4362842 L584.807261,47.4362842 Z M566.34716,46.6626775 L574.331633,46.6626775 L574.331633,76.6275161 L566.34716,76.6275161 L566.34716,46.6626775 Z M539.948719,70.9603148 L542.053071,70.9603148 C545.101366,70.9603148 547.890608,70.4457599 547.890608,67.6529688 C547.890608,64.2640038 544.629395,64.1752874 542.053071,64.1752874 L539.948719,64.1752874 L539.948719,70.9603148 Z M531.964247,46.6626775 L539.948719,46.6626775 L539.948719,58.5116349 L541.623684,58.5116349 C544.583262,58.5116349 545.61592,57.2234733 547.248302,52.0708269 L548.962302,46.6626775 L557.290994,46.6626775 L554.370451,54.8174855 C552.86937,58.469051 552.699035,60.7437385 550.12626,61.4286289 L550.12626,61.5137966 C553.987196,62.4151548 555.875081,65.0766457 555.875081,69.0724306 C555.875081,74.2215283 551.538625,76.6275161 546.215643,76.6275161 L531.964247,76.6275161 L531.964247,46.6626775 L531.964247,46.6626775 Z M500.370576,46.6626775 L521.96059,46.6626775 L521.96059,52.3298787 L508.355048,52.3298787 L508.355048,59.1113575 L520.761144,59.1113575 L520.761144,64.7785587 L508.355048,64.7785587 L508.355048,70.9603148 L521.488619,70.9603148 L521.488619,76.6275161 L500.370576,76.6275161 L500.370576,46.6626775 L500.370576,46.6626775 Z M464.866287,46.6626775 L472.854309,46.6626775 L472.854309,59.4981608 L482.297278,59.4981608 L482.297278,46.6626775 L490.281751,46.6626775 L490.281751,76.6275161 L482.297278,76.6275161 L482.297278,65.1618134 L472.854309,65.1618134 L472.854309,76.6275161 L464.866287,76.6275161 L464.866287,46.6626775 Z M441.430973,46.6626775 L449.415446,46.6626775 L449.415446,70.7012631 L456.796647,70.7012631 L456.796647,76.6275161 L434.046223,76.6275161 L434.046223,70.7012631 L441.430973,70.7012631 L441.430973,46.6626775 Z M426.831808,76.6275161 L418.847336,76.6275161 L418.847336,59.3704092 C418.847336,55.4207568 417.779191,52.0708269 413.698238,52.0708269 C409.620834,52.0708269 408.545592,55.4207568 408.545592,59.3704092 L408.545592,76.6275161 L400.561119,76.6275161 L400.561119,58.0396638 C400.561119,49.8387233 405.88765,46.1481226 413.698238,46.1481226 C421.512375,46.1481226 426.831808,49.8387233 426.831808,58.0396638 L426.831808,76.6275161 Z M374.762401,46.6626775 L395.106837,46.6626775 L395.106837,52.5853818 L382.746874,52.5853818 L382.746874,76.6275161 L374.762401,76.6275161 L374.762401,46.6626775 Z" id="path80" fill="#777777"></path>
                    <path d="M685.389614,1.28461293 C688.054654,0.429387194 691.528786,0 694.321578,0 C700.975305,0 707.497732,2.10080346 707.497732,9.87235682 C707.497732,20.6886557 693.331503,17.4274422 693.331503,22.2820016 C693.331503,24.8938113 696.677884,25.0676954 698.700617,25.0676954 C700.975305,25.0676954 703.289027,24.6383082 705.350796,23.6943661 L705.865351,29.8761222 C703.849715,30.5610126 701.017889,30.9939484 698.13993,30.9939484 C692.128509,30.9939484 685.087979,29.0173478 685.087979,21.8064819 C685.087979,10.9014666 699.254207,14.4181832 699.254207,8.84324701 C699.254207,6.43725926 696.851768,5.92270436 694.321578,5.92270436 C691.010683,5.92270436 688.136273,6.78147875 686.078053,7.89930492 L685.389614,1.28461293 L685.389614,1.28461293 Z M661.049393,24.8121923 L663.153745,24.8121923 C666.202039,24.8121923 668.991282,24.2940887 668.991282,21.5048463 C668.991282,18.1123326 665.730068,18.0271649 663.153745,18.0271649 L661.049393,18.0271649 L661.049393,24.8121923 Z M653.06492,0.514554902 L661.049393,0.514554902 L661.049393,12.3635123 L662.724358,12.3635123 C665.687484,12.3635123 666.716594,11.0753507 668.348975,5.92270436 L670.062975,0.514554902 L678.395216,0.514554902 L675.474674,8.6729116 C673.973593,12.3138311 673.799709,14.5920673 671.223385,15.2805063 L671.223385,15.365674 C675.08787,16.2705809 676.975754,18.9285231 676.975754,22.9243081 C676.975754,28.0734057 672.639299,30.4758448 667.316317,30.4758448 L653.06492,30.4758448 L653.06492,0.514554902 Z M621.687717,0.514554902 L643.277731,0.514554902 L643.277731,6.17820748 L629.668641,6.17820748 L629.668641,12.9596862 L642.078286,12.9596862 L642.078286,18.6304361 L629.668641,18.6304361 L629.668641,24.8121923 L642.80576,24.8121923 L642.80576,30.4758448 L621.687717,30.4758448 L621.687717,0.514554902 L621.687717,0.514554902 Z M594.728589,0.514554902 L604.600946,0.514554902 L614.813973,30.4758448 L606.616582,30.4758448 L599.923819,6.95181417 L599.835103,6.95181417 L593.181376,30.4758448 L584.678799,30.4758448 L594.728589,0.514554902 L594.728589,0.514554902 Z M558.40811,15.4934255 C558.40811,20.6886557 560.342127,25.0676954 565.193138,25.0676954 C570.0406,25.0676954 571.974616,20.6886557 571.974616,15.4934255 C571.974616,10.5572471 570.0406,5.92270436 565.193138,5.92270436 C560.342127,5.92270436 558.40811,10.5572471 558.40811,15.4934255 M550.168134,15.4934255 C550.168134,5.96528821 555.4024,0 565.193138,0 C574.980327,0 580.214592,5.96528821 580.214592,15.4934255 C580.214592,25.1102792 575.065494,30.9939484 565.193138,30.9939484 C555.317232,30.9939484 550.168134,25.1102792 550.168134,15.4934255 M514.149291,0.514554902 L521.487909,0.514554902 L521.232406,20.9902914 L521.317573,20.9902914 L531.793201,0.514554902 L541.708142,0.514554902 L541.708142,30.4758448 L534.412108,30.4758448 L534.53986,10.1314086 L534.454692,10.1314086 L524.323284,30.4758448 L514.149291,30.4758448 L514.149291,0.514554902 L514.149291,0.514554902 Z M475.600257,0.514554902 L482.942424,0.514554902 L482.679823,20.9902914 L482.76854,20.9902914 L493.244168,0.514554902 L503.162657,0.514554902 L503.162657,30.4758448 L495.863075,30.4758448 L495.990826,10.1314086 L495.90211,10.1314086 L485.77425,30.4758448 L475.600257,30.4758448 L475.600257,0.514554902 Z M456.153631,12.5764315 L448.641129,12.5764315 L452.502065,24.2940887 L452.590782,24.2940887 L456.153631,12.5764315 Z M436.320201,0.514554902 L444.432425,0.514554902 L446.79228,6.91277897 L458.041515,6.91277897 L460.273619,0.514554902 L469.031698,0.514554902 L457.480828,30.4758448 L447.697187,30.4758448 L436.320201,0.514554902 L436.320201,0.514554902 Z M403.821623,0.514554902 L411.809644,0.514554902 L411.809644,13.3500382 L421.252614,13.3500382 L421.252614,0.514554902 L429.237086,0.514554902 L429.237086,30.4758448 L421.252614,30.4758448 L421.252614,19.0172395 L411.809644,19.0172395 L411.809644,30.4758448 L403.821623,30.4758448 L403.821623,0.514554902 Z M354.757926,0.514554902 L376.34794,0.514554902 L376.34794,6.17820748 L362.742398,6.17820748 L362.742398,12.9596862 L375.148495,12.9596862 L375.148495,18.6304361 L362.742398,18.6304361 L362.742398,24.8121923 L375.879517,24.8121923 L375.879517,30.4758448 L354.757926,30.4758448 L354.757926,0.514554902 L354.757926,0.514554902 Z M318.82425,0.514554902 L326.812272,0.514554902 L326.812272,13.3500382 L336.255241,13.3500382 L336.255241,0.514554902 L344.239714,0.514554902 L344.239714,30.4758448 L336.255241,30.4758448 L336.255241,19.0172395 L326.812272,19.0172395 L326.812272,30.4758448 L318.82425,30.4758448 L318.82425,0.514554902 Z M310.282639,7.46636907 C308.093119,6.61114333 305.435177,5.92270436 302.812721,5.92270436 C296.978733,5.92270436 292.809064,9.48555348 292.809064,15.365674 C292.809064,20.9477075 296.503213,25.0676954 302.170415,25.0676954 C304.917073,25.0676954 307.408229,24.3792564 309.984552,22.9633433 L310.630407,29.446735 C307.752448,30.3055094 304.785773,30.9939484 301.737479,30.9939484 C291.865122,30.9939484 284.569088,25.7987182 284.569088,15.365674 C284.569088,4.03127151 293.799139,0 301.783611,0 C305.864564,0 308.394755,0.645855119 310.672991,1.19944522 L310.282639,7.46636907 L310.282639,7.46636907 Z M262.248052,24.8121923 L264.348855,24.8121923 C267.397149,24.8121923 270.186392,24.2940887 270.186392,21.5048463 C270.186392,18.1123326 266.928727,18.0271649 264.348855,18.0271649 L262.248052,18.0271649 L262.248052,24.8121923 Z M254.263579,0.514554902 L262.248052,0.514554902 L262.248052,12.3635123 L263.923017,12.3635123 C266.886143,12.3635123 267.911704,11.0753507 269.544085,5.92270436 L271.261634,0.514554902 L279.586777,0.514554902 L276.673332,8.6729116 C275.168703,12.3138311 274.994819,14.5920673 272.418495,15.2805063 L272.418495,15.365674 C276.28298,16.2705809 278.174413,18.9285231 278.174413,22.9243081 C278.174413,28.0734057 273.837957,30.4758448 268.514975,30.4758448 L254.263579,30.4758448 L254.263579,0.514554902 L254.263579,0.514554902 Z M235.672178,0.514554902 L243.656651,0.514554902 L243.656651,30.4793935 L235.672178,30.4793935 L235.672178,0.514554902 Z M200.646958,0.514554902 L208.627882,0.514554902 L208.627882,14.1236449 L208.716598,14.1236449 L218.031817,0.514554902 L228.205809,0.514554902 L216.271684,16.526084 L227.347035,30.4758448 L217.730181,30.4758448 L208.716598,18.2436328 L208.627882,18.2436328 L208.627882,30.4758448 L200.646958,30.4758448 L200.646958,0.514554902 Z M169.52171,1.28461293 C172.186749,0.429387194 175.660882,0 178.450124,0 C185.1074,0 191.629827,2.10080346 191.629827,9.87235682 C191.629827,20.6886557 177.467147,17.4274422 177.467147,22.2820016 C177.467147,24.8938113 180.813528,25.0676954 182.832713,25.0676954 C185.1074,25.0676954 187.424671,24.6383082 189.482891,23.6943661 L190.000995,29.8761222 C187.98181,30.5610126 185.149984,30.9939484 182.272025,30.9939484 C176.260604,30.9939484 169.223623,29.0173478 169.223623,21.8064819 C169.223623,10.9014666 183.386303,14.4181832 183.386303,8.84324701 C183.386303,6.43725926 180.983864,5.92270436 178.450124,5.92270436 C175.146327,5.92270436 172.271917,6.78147875 170.2066,7.89930492 L169.52171,1.28461293 L169.52171,1.28461293 Z M139.386536,0.514554902 L160.980098,0.514554902 L160.980098,6.17820748 L147.371008,6.17820748 L147.371008,12.9596862 L159.777104,12.9596862 L159.777104,18.6304361 L147.371008,18.6304361 L147.371008,24.8121923 L160.508127,24.8121923 L160.508127,30.4758448 L139.386536,30.4758448 L139.386536,0.514554902 L139.386536,0.514554902 Z M110.539523,24.5531405 L113.630401,24.5531405 C119.464389,24.5531405 122.945619,21.4658111 122.945619,15.4934255 C122.945619,9.53168599 119.595689,6.43725926 113.630401,6.43725926 L110.539523,6.43725926 L110.539523,24.5531405 Z M102.55505,0.514554902 L113.456517,0.514554902 C123.676642,0.514554902 131.185595,4.41807485 131.185595,15.6247258 C131.185595,27.2146314 123.889561,30.4758448 113.456517,30.4758448 L102.55505,30.4758448 L102.55505,0.514554902 Z M64.3502361,0.514554902 L71.6888536,0.514554902 L71.4333505,20.9902914 L71.5185182,20.9902914 L81.9941463,0.514554902 L91.909087,0.514554902 L91.909087,30.4758448 L84.6095046,30.4758448 L84.7408049,10.1314086 L84.6520885,10.1314086 L74.5206799,30.4758448 L64.3502361,30.4758448 L64.3502361,0.514554902 L64.3502361,0.514554902 Z M45.4181643,12.5764315 L37.9021141,12.5764315 L41.7665989,24.2940887 L41.8517666,24.2940887 L45.4181643,12.5764315 Z M25.5811857,0.514554902 L33.6969585,0.514554902 L36.0568138,6.91277897 L47.3060485,6.91277897 L49.5346036,0.514554902 L58.2962315,0.514554902 L46.7489098,30.4758448 L36.958172,30.4758448 L25.5811857,0.514554902 L25.5811857,0.514554902 Z M0.211854674,0.514554902 L20.5598396,0.514554902 L20.5598396,6.43725926 L8.1963273,6.43725926 L8.1963273,30.4758448 L0.211854674,30.4758448 L0.211854674,0.514554902 Z" id="path84" fill="#000000"></path>
                </g>
                <g id="g5383" transform="translate(737.360369, 0.000000)">
                    <polygon id="path18" fill="#777777" points="30.7171534 64.3147496 47.7861815 64.3147496 47.7861815 81.3766804 40.9585702 81.3766804 40.9585702 95.0319029 17.0619308 95.0319029 17.0619308 71.1388122 30.7171534 71.1388122 30.7171534 64.3147496"></polygon>
                    <polygon id="path22" fill="#777777" points="30.7171534 48.3348035 30.7171534 64.3143947 17.0619308 64.3143947 17.0619308 71.1384573 0 71.1384573 0 41.5107409 17.0619308 41.5107409 17.0619308 48.3348035"></polygon>
                    <polygon id="path26" fill="#777777" points="95.5741373 64.3147496 81.9260121 64.3147496 81.9260121 48.3351583 95.5741373 48.3351583 95.5741373 41.5110957 112.639617 41.5110957 112.639617 71.1388122 95.5741373 71.1388122"></polygon>
                    <polygon id="path30" fill="#777777" points="64.8552096 81.3780999 64.8552096 64.316169 81.9242378 64.316169 81.9242378 71.136683 95.572363 71.136683 95.572363 95.0333224 71.6828209 95.0333224 71.6828209 81.3780999 64.8552096 81.3780999"></polygon>
                    <polygon id="path34" fill="#777777" points="47.7861815 30.720702 47.7861815 48.3326743 30.7171534 48.3326743 30.7171534 41.5086117 17.0654795 41.5086117 17.0654795 17.0690281 40.9585702 17.0690281 40.9585702 30.720702"></polygon>
                    <polygon id="path38" fill="#777777" points="81.9242378 48.3348035 64.8552096 48.3348035 64.8552096 30.7228312 71.6828209 30.7228312 71.6828209 17.0676087 95.572363 17.0676087 95.572363 41.5107409 81.9242378 41.5107409 81.9242378 48.3348035"></polygon>
                    <polygon id="path42" fill="#777777" points="47.7861815 81.3780999 64.8552096 81.3780999 64.8552096 95.0333224 71.6828209 95.0333224 71.6828209 112.098802 40.9585702 112.098802 40.9585702 95.0333224 47.7861815 95.0333224 47.7861815 81.3780999"></polygon>
                    <polygon id="path46" fill="#777777" points="64.8552096 30.720702 47.7861815 30.720702 47.7861815 17.0690281 40.9585702 17.0690281 40.9585702 0 71.6828209 0 71.6828209 17.0690281 64.8552096 17.0690281 64.8552096 30.720702"></polygon>
                    <polygon id="path48" fill="#000000" points="30.7189277 71.1388122 17.0637052 71.1388122 17.0637052 64.3147496 30.7189277 64.3147496"></polygon>
                    <polygon id="path50" fill="#000000" points="81.9260121 64.3147496 95.5741373 64.3147496 95.5741373 71.1388122 81.9260121 71.1388122"></polygon>
                    <polygon id="path52" fill="#000000" points="30.7189277 48.3351583 17.0637052 48.3351583 17.0637052 41.5110957 30.7189277 41.5110957"></polygon>
                    <polygon id="path54" fill="#000000" points="81.9260121 41.5110957 95.5741373 41.5110957 95.5741373 48.3351583 81.9260121 48.3351583"></polygon>
                    <polygon id="path56" fill="#000000" points="47.7879558 95.0319029 40.9603446 95.0319029 40.9603446 81.3766804 47.7879558 81.3766804"></polygon>
                    <polygon id="path58" fill="#000000" points="64.856984 81.3766804 71.6845952 81.3766804 71.6845952 95.0319029 64.856984 95.0319029"></polygon>
                    <polygon id="path60" fill="#000000" points="47.7879558 30.7196374 40.9603446 30.7196374 40.9603446 17.0644149 47.7879558 17.0644149"></polygon>
                    <polygon id="path62" fill="#000000" points="64.856984 17.0679635 71.6845952 17.0679635 71.6845952 30.7231861 64.856984 30.7231861"></polygon>
                    <polygon id="path88" fill="#FFFFFF" points="81.9206891 64.3147496 64.8552096 64.3147496 64.8552096 81.3766804 47.7861815 81.3766804 47.7861815 64.3147496 30.7171534 64.3147496 30.7171534 48.3351583 47.7861815 48.3351583 47.7861815 30.7231861 64.8552096 30.7231861 64.8552096 48.3351583 81.9206891 48.3351583"></polygon>
                </g>
            </g>
        </g>
    </g>
</svg>