<?xml version="1.0" encoding="UTF-8"?>
<svg width="1007px" height="288px" viewBox="0 0 1007 288" version="1.1" xmlns="http://www.w3.org/2000/svg" xmlns:xlink="http://www.w3.org/1999/xlink">
    <title>KD-Bank_logo</title>
    <g id="Page-1" stroke="none" stroke-width="1" fill="none" fill-rule="evenodd">
        <g id="KD-Bank_logo" fill="#000000" fill-rule="nonzero">
            <path d="M253.253631,0 L245.62047,0.731946909 L226.485287,95.1530982 L222.302733,95.1530982 L239.660331,1.25476613 L225.439648,9.20161829 L203.272113,120.248421 L453.597956,119.830165 L446.801306,110.105728 L230.876968,110.105728 L232.02717,104.9821 L415.013898,105.191227 L409.053758,95.3622259 L233.909319,95.1530982 L253.253631,0 Z M187.796664,37.3292924 L180.89545,42.0346654 L167.093023,94.5257151 L164.374363,94.5257151 L175.039875,43.9168146 L166.883895,48.0993683 L156.113819,94.0028959 L122.13057,95.8850451 L119.621038,104.563844 L154.127106,104.563844 L153.395159,108.328143 L100.590418,110.314856 L96.9306836,119.725602 L171.171013,120.248421 L187.796664,37.3292924 Z M166.674768,144.298105 L145.761999,144.71636 L7.73772447,146.180254 L0,160.191809 L143.566158,157.995969 L142.938775,162.073958 L30.7417702,164.792618 L23.6314288,172.844034 L141.474881,170.54363 L117.425197,287.655135 L128.508965,281.067613 L150.467372,170.752758 L155.068181,170.648194 L132.273263,280.858485 L139.80186,278.767209 L166.674768,144.298105 Z" id="path2491"></path>
            <path d="M198.775868,146.389382 L172.216651,277.826134 L196.161772,277.826134 L207.559231,221.570786 L218.642998,221.570786 L253.253631,277.826134 L283.577145,277.826134 L241.333352,210.591582 L304.90817,146.389382 L275.421166,146.389382 L223.03468,200.030634 L211.846348,200.030634 L222.720988,146.389382 L198.775868,146.389382 Z M322.05664,146.389382 L295.497424,277.826134 L359.072241,277.826134 C396.853216,277.826134 409.074671,253.609148 414.595642,226.276159 L420.869473,195.325261 C428.084378,159.585272 416.113909,146.389382 381.658031,146.389382 L322.05664,146.389382 Z M502.11558,146.389382 L475.556363,277.826134 L539.863128,277.826134 C566.163059,277.826134 578.953275,270.310085 584.825581,241.228789 C588.184272,224.582158 587.343478,212.482097 570.291206,210.382455 L570.39577,209.650508 C586.318652,205.79426 590.9823,195.647318 594.027199,180.581759 C599.861928,151.671947 588.69026,146.389382 564.226503,146.389382 L502.11558,146.389382 Z M656.556378,146.389382 L588.589879,277.826134 L613.37151,277.826134 L626.232863,252.939939 L680.187806,252.939939 L683.324722,277.826134 L707.583534,277.826134 L691.794393,146.389382 L656.556378,146.389382 Z M749.618199,146.389382 L723.058983,277.826134 L747.004103,277.826134 L767.184925,167.929534 L768.021436,167.929534 L798.972333,277.826134 L838.706594,277.826134 L865.265811,146.389382 L841.32069,146.389382 L821.139868,256.285982 L820.407922,256.285982 L789.247896,146.389382 L749.618199,146.389382 Z M892.243282,146.389382 L865.684066,277.826134 L889.629186,277.826134 L901.026645,221.570786 L912.110413,221.570786 L946.721045,277.826134 L977.04456,277.826134 L934.905331,210.591582 L998.375584,146.389382 L968.993144,146.389382 L916.502094,200.030634 L905.313763,200.030634 L916.188403,146.389382 L892.243282,146.389382 Z M670.672497,165.733693 L670.986188,165.733693 L678.619349,233.804756 L635.539045,233.804756 L670.672497,165.733693 Z M341.714643,167.929534 L377.26635,167.929534 C395.573354,167.929534 401.349494,173.425409 396.924353,195.325261 L390.650522,226.276159 C387.680909,240.994632 379.60858,256.285982 363.463922,256.285982 L323.834225,256.285982 L341.714643,167.929534 Z M521.773583,167.929534 L555.547704,167.929534 C567.363352,167.929534 572.390848,169.075554 569.559259,183.091291 C566.73182,197.107062 562.862991,201.389964 549.378437,201.389964 L514.976933,201.389964 L521.773583,167.929534 Z M431.95324,201.808219 L428.607197,218.642998 L472.837703,218.642998 L476.28831,201.808219 L431.95324,201.808219 Z M511.10807,220.525147 L547.914544,220.525147 C562.059873,220.525147 564.201408,224.770439 561.298716,239.137512 C558.044588,255.257107 551.043094,256.285982 536.726212,256.285982 L503.893165,256.285982 L511.10807,220.525147 Z" id="path2495"></path>
            <path d="M493.855036,95.7804813 L493.855036,99.4402158 L496.782824,99.4402158 L496.782824,95.7804813 L493.855036,95.7804813 Z M597.05955,95.7804813 L597.05955,120.666676 L599.987338,120.666676 L599.987338,111.883313 L609.084392,120.666676 L612.953255,120.666676 L603.019689,111.151366 L612.534999,102.681695 L608.770701,102.681695 L599.987338,110.419419 L599.987338,95.7804813 L597.05955,95.7804813 Z M631.251927,95.7804813 C629.942822,95.9526352 628.916088,96.4512291 628.219576,97.1398113 C627.290815,98.0472581 626.860279,99.4306461 626.860246,101.426929 L626.860246,102.681695 L624.037022,102.681695 L624.037022,104.9821 L626.860246,104.9821 L626.860246,120.666676 L629.788034,120.666676 L629.788034,104.9821 L634.702534,104.9821 L634.702534,102.681695 L629.788034,102.681695 L629.788034,101.113237 C629.788034,100.00302 630.009809,99.2397878 630.415417,98.8128328 C630.831765,98.3858442 631.554343,98.1855166 632.611257,98.1854497 L635.434481,98.1854497 L635.434481,95.7804813 L632.715821,95.7804813 C632.211405,95.7804813 631.688285,95.7230966 631.251927,95.7804813 Z M639.617035,95.7804813 L639.617035,99.0219604 L642.858514,99.0219604 L642.858514,95.7804813 L639.617035,95.7804813 Z M645.890866,95.7804813 L645.890866,99.0219604 L649.132345,99.0219604 L649.132345,95.7804813 L645.890866,95.7804813 Z M707.897225,95.7804813 L707.897225,99.4402158 L710.929577,99.4402158 L710.929577,95.7804813 L707.897225,95.7804813 Z M750.245582,95.7804813 L750.245582,120.666676 L753.17337,120.666676 L753.17337,110.523983 C753.17337,108.773233 753.614679,107.355649 754.5327,106.34143 C755.450787,105.327277 756.706457,104.877636 758.296998,104.877536 C759.620726,104.877536 760.667368,105.288898 761.32935,106.132302 C761.991197,106.975672 762.270391,108.19922 762.270424,109.8966 L762.270424,120.666676 L765.302776,120.666676 L765.302776,109.792036 C765.302776,107.315329 764.686535,105.520545 763.629754,104.250153 C762.572873,102.96912 761.089338,102.26344 759.028945,102.26344 C757.779901,102.263473 756.643584,102.56629 755.682902,103.09995 C754.732793,103.633745 753.877979,104.426757 753.17337,105.504919 L753.17337,95.7804813 L750.245582,95.7804813 Z M853.659224,95.7804813 L853.659224,105.400355 C853.040039,104.332833 852.204264,103.612397 851.254256,103.09995 C850.314821,102.576863 849.231907,102.26344 847.908213,102.26344 C845.741081,102.263473 843.94198,103.148167 842.575456,104.877536 C841.219673,106.606972 840.588743,108.855981 840.588743,111.674186 C840.588743,114.492524 841.219774,116.84593 842.575456,118.575399 C843.941914,120.304835 845.741047,121.084932 847.908213,121.084932 C849.231974,121.084932 850.31472,120.865465 851.254256,120.352985 C852.204364,119.829898 853.039972,119.015638 853.659224,117.948016 L853.659224,120.666676 L856.587012,120.666676 L856.587012,95.7804813 L853.659224,95.7804813 Z M899.039932,95.7804813 L899.039932,99.4402158 L901.96772,99.4402158 L901.96772,95.7804813 L899.039932,95.7804813 Z M926.644787,95.7804813 L926.644787,120.666676 L929.572575,120.666676 L929.572575,111.883313 L938.669629,120.666676 L942.538492,120.666676 L932.604926,111.151366 L942.120236,102.681695 L938.355938,102.681695 L929.572575,110.419419 L929.572575,95.7804813 L926.644787,95.7804813 Z M983.318391,95.7804813 L983.318391,99.4402158 L986.350742,99.4402158 L986.350742,95.7804813 L983.318391,95.7804813 Z M468.968841,96.7215559 L468.968841,120.666676 L475.556363,120.666676 C480.168148,120.666676 483.625848,119.671161 485.80362,117.738889 C487.981392,115.806649 489.045099,112.762586 489.045099,108.641834 C489.045099,104.542463 487.970651,101.571043 485.80362,99.6493435 C483.636488,97.7171041 480.189529,96.7215559 475.556363,96.7215559 L468.968841,96.7215559 Z M533.798425,96.7215559 L533.798425,120.666676 L542.37266,120.666676 C545.052171,120.666676 547.194609,120.05261 548.64649,118.889091 C550.098339,117.725471 550.737767,116.1097 550.737767,113.97459 C550.737767,112.351927 550.368966,110.974762 549.483001,109.8966 C548.607609,108.807731 547.309345,108.146921 545.718703,107.805323 C547.042431,107.591812 548.067826,106.996919 548.751054,106.132302 C549.434249,105.267617 549.796726,104.144317 549.796693,102.681695 C549.796659,100.792151 549.144415,99.3148061 547.80998,98.2900135 C546.475544,97.2651875 544.525069,96.7215559 542.058968,96.7215559 L533.798425,96.7215559 Z M684.893179,96.7215559 L684.893179,120.666676 L688.134659,120.666676 L688.134659,109.164653 L699.532118,120.666676 L703.819235,120.666676 L691.062446,107.909887 L702.982725,96.7215559 L698.800171,96.7215559 L688.134659,106.864249 L688.134659,96.7215559 L684.893179,96.7215559 Z M874.049174,96.7215559 L874.049174,120.666676 L880.74126,120.666676 C885.353044,120.666676 888.70608,119.671161 890.883953,117.738889 C893.061725,115.806649 894.125432,112.762586 894.125432,108.641834 C894.125432,104.542463 893.051084,101.571043 890.883953,99.6493435 C888.716821,97.7171041 885.374291,96.7215559 880.74126,96.7215559 L874.049174,96.7215559 Z M472.21032,99.4402158 L476.079183,99.4402158 C479.377879,99.4402158 481.767523,100.141446 483.294088,101.636057 C484.831327,103.11996 485.594492,105.439236 485.594492,108.641834 C485.594492,111.865813 484.83136,114.257598 483.294088,115.752176 C481.767489,117.246753 479.377846,118.05258 476.079183,118.05258 L472.21032,118.05258 L472.21032,99.4402158 Z M537.039904,99.4402158 L541.849841,99.4402158 C543.429809,99.4402158 544.636425,99.6789895 545.405011,100.276727 C546.184305,100.874564 546.555214,101.789171 546.555214,102.995387 C546.555214,104.212409 546.184372,105.116209 545.405011,105.714046 C544.636358,106.30121 543.429876,106.655221 541.849841,106.655121 L537.039904,106.655121 L537.039904,99.4402158 Z M877.290653,99.4402158 L881.264079,99.4402158 C884.562775,99.4402158 886.952419,100.141446 888.478984,101.636057 C890.016223,103.11996 890.779389,105.439236 890.779389,108.641834 C890.779389,111.865813 890.016257,114.257598 888.478984,115.752176 C886.952385,117.246753 884.562842,118.05258 881.264079,118.05258 L877.290653,118.05258 L877.290653,99.4402158 Z M509.435049,102.26344 C506.74483,102.26344 504.542699,103.148167 502.952091,104.877536 C501.372123,106.596298 500.651686,108.947495 500.651686,111.883313 C500.651686,114.723 501.495859,116.910074 503.161218,118.575399 C504.837251,120.240758 507.096801,121.084932 509.957868,121.084932 C511.10014,121.084932 512.193694,121.006099 513.303911,120.77124 C514.414128,120.536381 515.488543,120.173938 516.54539,119.725602 L516.54539,117.006942 C515.499183,117.562084 514.476063,117.879489 513.408475,118.157144 C512.351594,118.434698 511.194097,118.575433 510.062432,118.575399 C508.108811,118.575399 506.561266,118.063756 505.461623,117.006942 C504.37272,115.939387 503.812091,114.43447 503.684037,112.406133 L517.277337,112.406133 L517.277337,110.942239 C517.277337,108.273401 516.490616,106.216288 515.081496,104.668408 C513.682984,103.109821 511.847646,102.26344 509.435049,102.26344 Z M563.703684,102.26344 C562.742901,102.26344 561.790115,102.363654 560.775896,102.577131 C559.761711,102.779968 558.717243,103.101858 557.638981,103.518206 L557.638981,106.236866 C558.535721,105.7458 559.490681,105.436827 560.462205,105.191227 C561.433662,104.945695 562.3652,104.772938 563.389993,104.772972 C565.001982,104.772972 566.268192,105.176003 567.154291,105.923174 C568.05103,106.659806 568.513654,107.704239 568.513621,109.060089 L568.513621,109.373781 L564.435631,109.373781 C561.756086,109.373781 559.726745,109.812882 558.370928,110.837675 C557.025819,111.862534 556.279651,113.420787 556.279651,115.438484 C556.279651,117.16792 556.874444,118.585471 557.952673,119.621038 C559.041575,120.645897 560.508179,121.084932 562.344354,121.084932 C563.796202,121.084932 565.00061,120.865465 566.004089,120.352985 C567.007567,119.829898 567.8411,119.036819 568.513621,117.948016 L568.513621,120.666676 L571.441409,120.666676 L571.441409,110.419419 C571.441409,107.686505 570.840392,105.699926 569.559259,104.354717 C568.278193,103.009641 566.297804,102.26344 563.703684,102.26344 Z M585.766655,102.26344 C584.517611,102.26344 583.381495,102.56629 582.420612,103.09995 C581.470503,103.633745 580.72022,104.426757 580.015644,105.504919 L580.015644,102.681695 L576.983292,102.681695 L576.983292,120.666676 L580.015644,120.666676 L580.015644,110.523983 C580.015644,108.773233 580.45692,107.355649 581.374974,106.34143 C582.293061,105.327277 583.548697,104.877636 585.139272,104.877536 C586.463,104.877536 587.405246,105.288898 588.06706,106.132302 C588.728907,106.975672 589.112631,108.19922 589.112698,109.8966 L589.112698,120.666676 L592.040486,120.666676 L592.040486,109.792036 C592.040486,107.315329 591.528775,105.520545 590.472028,104.250153 C589.415147,102.96912 587.827015,102.26344 585.766655,102.26344 Z M665.86256,102.26344 C664.4427,102.26344 663.19573,102.56629 662.202825,103.09995 C661.209987,103.623071 660.416975,104.416083 659.797857,105.504919 L659.797857,102.681695 L656.870069,102.681695 L656.870069,120.666676 L659.797857,120.666676 L659.797857,111.25593 C659.797857,109.227592 660.271054,107.628753 661.157187,106.550557 C662.053926,105.461688 663.256059,104.877569 664.921485,104.877536 C665.391203,104.877536 665.896388,104.990532 666.280815,105.086663 C666.675782,105.172088 666.995563,105.312856 667.326454,105.504919 L667.326454,102.472567 C667.027518,102.419198 666.735476,102.389418 666.489943,102.368003 C666.24441,102.335982 666.065363,102.26344 665.86256,102.26344 Z M724.836568,102.26344 C723.416708,102.26344 722.274302,102.56629 721.281397,103.09995 C720.288559,103.623071 719.495514,104.416083 718.876429,105.504919 L718.876429,102.681695 L715.844077,102.681695 L715.844077,120.666676 L718.876429,120.666676 L718.876429,111.25593 C718.876429,109.227592 719.245062,107.628753 720.131195,106.550557 C721.027934,105.461688 722.334631,104.877569 724.000057,104.877536 C724.469775,104.877536 724.870597,104.990532 725.254823,105.086663 C725.64979,105.172088 726.074135,105.312856 726.405026,105.504919 L726.405026,102.472567 C726.10609,102.419198 725.814047,102.389418 725.568515,102.368003 C725.322982,102.335982 725.039372,102.26344 724.836568,102.26344 Z M739.161815,102.26344 C736.364824,102.26344 734.186282,103.096972 732.574292,104.772972 C730.972977,106.449038 730.169324,108.749209 730.169324,111.674186 C730.169324,114.556567 730.983584,116.877985 732.574292,118.575399 C734.164934,120.27278 736.251794,121.084932 738.952687,121.084932 C739.945491,121.084932 740.900419,121.067867 741.775911,120.875804 C742.661943,120.683641 743.567984,120.318955 744.390007,119.934729 L744.390007,117.216069 C743.557311,117.675113 742.723778,118.026749 741.880475,118.261708 C741.047778,118.485893 740.22502,118.575433 739.370942,118.575399 C737.460017,118.575399 735.931444,118.004129 734.874697,116.797814 C733.817816,115.580825 733.306239,113.862765 733.306239,111.674186 C733.306239,109.48574 733.817715,107.861537 734.874697,106.655121 C735.931545,105.438132 737.460084,104.772938 739.370942,104.772972 C740.224953,104.772972 741.047745,104.956335 741.880475,105.191227 C742.723811,105.415412 743.557311,105.673258 744.390007,106.132302 L744.390007,103.413642 C743.578658,103.040023 742.745126,102.758687 741.880475,102.577131 C741.015757,102.385001 740.069195,102.26344 739.161815,102.26344 Z M777.850437,102.26344 C775.160218,102.26344 773.062684,103.148167 771.472042,104.877536 C769.892074,106.596298 769.067074,108.947495 769.067074,111.883313 C769.067074,114.723 769.911314,116.910074 771.576606,118.575399 C773.252639,120.240758 775.512256,121.084932 778.373256,121.084932 C779.515528,121.084932 780.609116,121.006099 781.719299,120.77124 C782.829516,120.536381 783.903998,120.173938 784.960778,119.725602 L784.960778,117.006942 C783.914571,117.562084 782.891485,117.879489 781.823863,118.157144 C780.766982,118.434698 779.713882,118.575433 778.582384,118.575399 C776.628763,118.575399 775.081084,118.063756 773.981575,117.006942 C772.892672,115.939387 772.227545,114.43447 772.099426,112.406133 L785.692725,112.406133 L785.692725,110.942239 C785.692725,108.273401 785.010601,106.216288 783.601448,104.668408 C782.202936,103.109821 780.263101,102.26344 777.850437,102.26344 Z M830.446051,102.26344 C829.197006,102.26344 828.165254,102.56629 827.204571,103.09995 C826.254462,103.633745 825.399649,104.426757 824.695039,105.504919 L824.695039,102.681695 L821.767252,102.681695 L821.767252,120.666676 L824.695039,120.666676 L824.695039,110.523983 C824.695039,108.773233 825.136349,107.355649 826.054369,106.34143 C826.972456,105.327277 828.228092,104.877636 829.818668,104.877536 C831.142396,104.877536 832.189038,105.288898 832.851019,106.132302 C833.512866,106.975672 833.79206,108.19922 833.792094,109.8966 L833.792094,120.666676 L836.719881,120.666676 L836.719881,109.792036 C836.719881,107.315329 836.208204,105.520545 835.151424,104.250153 C834.094542,102.96912 832.506443,102.26344 830.446051,102.26344 Z M913.365179,102.26344 C912.404396,102.26344 911.346879,102.363654 910.332828,102.577131 C909.318642,102.779968 908.274208,103.101858 907.195912,103.518206 L907.195912,106.236866 C908.092652,105.7458 909.047646,105.436827 910.019136,105.191227 C910.990593,104.945695 912.026728,104.772938 913.051487,104.772972 C914.663477,104.772972 915.929754,105.176003 916.815786,105.923174 C917.712525,106.659806 918.070652,107.704239 918.070552,109.060089 L918.070552,109.373781 L913.992562,109.373781 C911.313017,109.373781 909.283709,109.812882 907.927859,110.837675 C906.58275,111.862534 905.941146,113.420787 905.941146,115.438484 C905.941146,117.16792 906.431408,118.585471 907.509604,119.621038 C908.598507,120.645897 910.065144,121.084932 911.901285,121.084932 C913.353133,121.084932 914.557575,120.865465 915.56102,120.352985 C916.564498,119.829898 917.398098,119.036819 918.070552,117.948016 L918.070552,120.666676 L921.102903,120.666676 L921.102903,110.419419 C921.102903,107.686505 920.397156,105.699926 919.11619,104.354717 C917.835124,103.009641 915.959333,102.26344 913.365179,102.26344 Z M950.589908,102.26344 C948.017102,102.26344 945.98776,103.107579 944.525205,104.772972 C943.073357,106.438364 942.433928,108.727861 942.433928,111.674186 C942.433928,114.609937 943.073357,116.8994 944.525205,118.575399 C945.987727,120.240758 948.017035,121.084932 950.589908,121.084932 C953.152006,121.084932 955.192022,120.240792 956.654611,118.575399 C958.117132,116.899366 958.850451,114.610037 958.850451,111.674186 C958.850451,108.72776 958.117099,106.438297 956.654611,104.772972 C955.192055,103.107613 953.151939,102.26344 950.589908,102.26344 Z M972.025496,102.26344 C970.776451,102.26344 969.640269,102.56629 968.679453,103.09995 C967.729344,103.633745 966.874463,104.426757 966.16992,105.504919 L966.16992,102.681695 L963.242133,102.681695 L963.242133,120.666676 L966.16992,120.666676 L966.16992,110.523983 C966.16992,108.773233 966.611163,107.355649 967.52925,106.34143 C968.447338,105.327277 969.70294,104.877636 971.293549,104.877536 C972.617277,104.877536 973.664053,105.288898 974.3259,106.132302 C974.987747,106.975672 975.266874,108.19922 975.266975,109.8966 L975.266975,120.666676 L978.299326,120.666676 L978.299326,109.792036 C978.299326,107.315329 977.683219,105.520545 976.626305,104.250153 C975.569424,102.96912 974.085822,102.26344 972.025496,102.26344 Z M998.898404,102.26344 C996.208185,102.26344 994.110684,103.148167 992.520009,104.877536 C990.940041,106.596298 990.115041,108.947495 990.115041,111.883313 C990.115041,114.723 990.959314,116.910074 992.624573,118.575399 C994.300606,120.240758 996.560256,121.084932 999.421223,121.084932 C1000.56349,121.084932 1001.65691,121.006099 1002.76727,120.77124 C1003.87748,120.536381 1004.9518,120.173938 1006.00874,119.725602 L1006.00874,117.006942 C1004.96254,117.562084 1003.93928,117.879489 1002.87183,118.157144 C1001.81495,118.434698 1000.76188,118.575433 999.63035,118.575399 C997.67673,118.575399 996.129085,118.063756 995.029541,117.006942 C993.940639,115.939387 993.275546,114.43447 993.147392,112.406133 L1006.74069,112.406133 L1006.74069,110.942239 C1006.74069,108.273401 1006.0586,106.216288 1004.64941,104.668408 C1003.2509,103.109821 1001.3111,102.26344 998.898404,102.26344 Z M493.855036,102.681695 L493.855036,120.666676 L496.782824,120.666676 L496.782824,102.681695 L493.855036,102.681695 Z M637.002939,102.681695 L637.002939,113.556335 C637.002939,116.022368 637.503875,117.921716 638.571396,119.202782 C639.638952,120.483848 641.216377,121.084932 643.276769,121.084932 C644.52578,121.084932 645.578747,120.876072 646.518249,120.352985 C647.468358,119.819224 648.31243,119.036852 649.027781,117.948016 L649.027781,120.666676 L651.955569,120.666676 L651.955569,102.681695 L649.027781,102.681695 L649.027781,112.928952 C649.027781,114.679735 648.597179,115.992723 647.668451,117.006942 C646.750364,118.021127 645.494761,118.575299 643.904153,118.575399 C642.580391,118.575399 641.533615,118.164037 640.871801,117.320633 C640.20992,116.466589 639.930793,115.149252 639.930726,113.451771 L639.930726,102.681695 L637.002939,102.681695 Z M707.897225,102.681695 L707.897225,120.666676 L710.929577,120.666676 L710.929577,102.681695 L707.897225,102.681695 Z M801.900121,102.681695 L801.900121,113.556335 C801.900121,116.022368 802.400957,117.921716 803.468579,119.202782 C804.536134,120.483848 806.113659,121.084932 808.173952,121.084932 C809.422963,121.084932 810.476029,120.876072 811.415431,120.352985 C812.36554,119.819224 813.209713,119.036852 813.924963,117.948016 L813.924963,120.666676 L816.852751,120.666676 L816.852751,102.681695 L813.924963,102.681695 L813.924963,112.928952 C813.924963,114.679735 813.494495,115.992723 812.565633,117.006942 C811.647546,118.021127 810.392044,118.575299 808.801335,118.575399 C807.477573,118.575399 806.430931,118.164037 805.768983,117.320633 C805.107103,116.466589 804.827875,115.149252 804.827909,113.451771 L804.827909,102.681695 L801.900121,102.681695 Z M899.039932,102.681695 L899.039932,120.666676 L901.96772,120.666676 L901.96772,102.681695 L899.039932,102.681695 Z M983.318391,102.681695 L983.318391,120.666676 L986.350742,120.666676 L986.350742,102.681695 L983.318391,102.681695 Z M509.435049,104.772972 C510.886897,104.772972 512.010197,105.276016 512.885656,106.236866 C513.771688,107.197682 514.223538,108.493772 514.244986,110.105728 L503.788601,110.105728 C503.938069,108.419021 504.479392,107.061163 505.461623,106.132302 C506.454427,105.203541 507.790937,104.772972 509.435049,104.772972 Z M777.850437,104.772972 C779.302285,104.772972 780.530216,105.276016 781.405608,106.236866 C782.29164,107.197682 782.743523,108.493772 782.764938,110.105728 L772.203989,110.105728 C772.353457,108.419021 772.999411,107.061163 773.981575,106.132302 C774.974379,105.203541 776.206392,104.772972 777.850437,104.772972 Z M848.640159,104.772972 C850.19878,104.772972 851.403188,105.416851 852.299894,106.655121 C853.196634,107.882818 853.659224,109.507188 853.659224,111.674186 C853.659224,113.841317 853.196667,115.559443 852.299894,116.797814 C851.403154,118.025477 850.198813,118.679963 848.640159,118.679963 C847.081539,118.679963 845.877198,118.025477 844.980425,116.797814 C844.094359,115.559477 843.621095,113.841418 843.621095,111.674186 C843.621095,109.507087 844.094393,107.882885 844.980425,106.655121 C845.877164,105.416784 847.081573,104.772972 848.640159,104.772972 Z M950.589908,104.772972 C952.159202,104.772972 953.436085,105.406043 954.354206,106.655121 C955.272293,107.893492 955.713536,109.549883 955.713536,111.674186 C955.713536,113.809296 955.27226,115.55941 954.354206,116.797814 C953.436119,118.036184 952.159101,118.575399 950.589908,118.575399 C948.999266,118.575399 947.743596,118.025511 946.825609,116.797814 C945.918196,115.559477 945.466279,113.820036 945.466279,111.674186 C945.466279,109.528435 945.907488,107.882851 946.825609,106.655121 C947.743696,105.416784 949.009873,104.772972 950.589908,104.772972 Z M998.898404,104.772972 C1000.35025,104.772972 1001.57822,105.276016 1002.45357,106.236866 C1003.33961,107.197682 1003.79152,108.493772 1003.8129,110.105728 L993.251956,110.105728 C993.401424,108.419021 993.942847,107.061163 994.924977,106.132302 C995.917782,105.203541 997.254392,104.772972 998.898404,104.772972 Z M537.039904,109.269217 L542.268096,109.269217 C544.008172,109.269217 545.304295,109.599572 546.136958,110.314856 C546.980295,111.019432 547.391724,112.166355 547.391724,113.660899 C547.391724,115.144802 546.980328,116.17642 546.136958,116.902378 C545.304262,117.617628 544.008105,118.05258 542.268096,118.05258 L537.039904,118.05258 L537.039904,109.269217 Z M565.585833,111.674186 L568.513621,111.674186 L568.513621,112.301569 C568.513621,114.223168 568.042598,115.738724 567.049727,116.902378 C566.067563,118.055324 564.709638,118.679963 563.076301,118.679963 C561.891333,118.679963 560.94698,118.347333 560.253077,117.738889 C559.569849,117.119703 559.312003,116.27553 559.312003,115.229356 C559.312003,113.916269 559.753245,113.055098 560.671333,112.510696 C561.58942,111.966262 563.205291,111.674186 565.585833,111.674186 Z M915.142764,111.674186 L918.070552,111.674186 L918.070552,112.301569 C918.070552,114.223168 917.599563,115.738724 916.606658,116.902378 C915.624494,118.055324 914.371167,118.679963 912.737796,118.679963 C911.552828,118.679963 910.608508,118.347333 909.914572,117.738889 C909.231344,117.119703 908.868934,116.27553 908.868934,115.229356 C908.868934,113.916269 909.31021,113.055098 910.228264,112.510696 C911.146351,111.966262 912.762055,111.674186 915.142764,111.674186 Z" id="text2509"></path>
        </g>
    </g>
</svg>