<?xml version="1.0" encoding="UTF-8"?>
<svg width="480px" height="113px" viewBox="0 0 480 113" version="1.1" xmlns="http://www.w3.org/2000/svg" xmlns:xlink="http://www.w3.org/1999/xlink">
    <title>Logo_VGH_Versicherungen</title>
    <g id="Page-1" stroke="none" stroke-width="1" fill="none" fill-rule="evenodd">
        <g id="Logo_VGH_Versicherungen" transform="translate(0.000002, 0.001730)" fill-rule="nonzero">
            <path d="M391.387872,3.3582182 L480.000007,3.3582182 L480.000007,56.4472737 C480.000007,66.9130503 476.438867,85.236045 451.633904,98.6920435 C441.086117,104.413839 435.689208,109.350229 435.689208,109.350229 C435.689208,109.350229 430.33015,104.3476 419.804443,98.6920435 C394.759757,85.236045 391.387872,66.9130503 391.387872,56.4472737 L391.387872,3.3582182" id="path2490" fill="#000000"></path>
            <path d="M418.820319,46.0729701 C418.820319,46.0729701 409.956898,42.2689537 408.351388,42.4235116 C407.414578,42.5212931 407.209553,42.9408073 406.745879,43.5968898 C406.275897,44.2529722 403.828205,47.9402817 401.667548,50.9588918 C401.323736,51.4477994 401.677011,54.4569467 402.162765,54.5326485 C403.209973,54.6998234 402.979713,54.6146588 404.172017,52.9176764 C404.828099,51.9840206 403.503318,51.6812133 404.635691,50.0914751 C405.572501,48.7856187 405.348549,48.9685648 408.474404,45.278101 C408.979083,44.6724865 412.786253,46.8741477 414.893287,49.0158784 C416.341085,50.4920639 412.729477,50.6308506 410.713916,50.7948712 C410.130381,50.8390306 407.622758,52.9460645 402.815693,56.5166671 C401.806335,57.2642225 401.576075,59.2198529 401.645469,61.8725708 C401.667548,62.733679 402.121759,63.4149954 403.260441,62.5696584 C404.061618,61.9798151 404.988966,61.0777017 404.897493,60.6014111 C404.799711,60.1440459 404.742935,60.2859868 404.354963,60.118812 C404.149937,60.0241847 404.080544,59.0179814 404.427511,58.6426265 C405.291773,57.7278962 410.341715,53.8450237 411.767433,53.5737588 C414.685107,53.0091494 416.90254,54.135214 422.23321,57.2894565 C422.750505,57.5922637 423.674698,57.1254359 424.100521,56.8226286 C425.223431,56.0277595 426.207555,54.8859237 426.724851,56.4472737 C427.144365,57.7310504 433.102729,60.0935781 442.373048,59.5131974 C448.804548,59.1031459 444.950064,57.8509116 448.034913,61.3079614 C451.116608,64.7681654 459.226166,66.1875746 455.69026,77.3851354 C455.557782,77.795187 455.302288,77.8109582 454.775529,78.2210097 C454.33709,78.5522052 454.690365,79.9747685 454.756604,80.4005913 C454.870157,81.1828434 455.371681,81.5992034 457.658507,80.2775758 C458.264122,79.9337634 457.869841,76.924616 458.191574,76.729053 C458.942284,76.2843048 458.983289,72.1301674 458.822423,70.7675347 C458.759338,70.1839998 458.264122,67.6164464 458.314589,67.4745055 C458.557466,66.72695 459.364952,67.3167934 460.412161,68.6194955 C460.992541,69.3418171 464.102624,72.6159208 463.825051,75.792243 C463.544324,78.9748737 464.045848,78.7887733 462.698987,79.6278019 C462.519195,79.7445088 462.355174,81.9177819 462.771534,82.0344889 C463.692573,82.2868283 465.222381,82.0565686 465.692363,81.7789952 C466.162345,81.4951134 465.875309,80.2554961 465.818532,79.4164676 C465.739676,78.5080458 465.76491,77.4324491 465.969936,77.4324491 C466.644944,77.4324491 466.670178,74.7702684 465.969936,73.6442038 C465.345396,72.6159208 463.970146,69.8654213 463.355069,67.1716982 C462.910321,65.2318391 463.052262,64.5095176 460.273374,63.5033142 C458.948592,63.0270236 454.911162,58.1884156 456.797399,53.3845043 C458.191574,49.8107475 457.14752,49.5079402 457.024504,49.2745263 C456.838404,48.9275596 457.024504,48.2462432 457.882458,47.5460014 C458.97698,46.6628135 462.853544,46.6470423 462.607514,48.5995184 C462.585434,48.7856187 463.758812,51.8925476 464.011151,53.2709515 C464.149938,54.0248155 463.471776,56.3778804 465.272848,56.4472737 C467.739466,56.541901 467.282101,57.6616571 468.685739,58.6899401 C468.922307,58.8634235 469.521613,59.052678 469.341821,57.8509116 C469.152567,56.6081401 467.796242,54.1478309 466.906746,50.0000021 C466.301132,47.1706465 465.969936,46.7258983 465.506262,43.5464219 C465.301237,42.0986246 462.370945,41.1870485 461.02093,42.6127661 C459.371261,44.3507537 457.983394,47.9907496 455.835355,46.2117568 C453.681007,44.4359183 451.299554,42.9912752 443.726218,43.6473577 C439.30397,44.0227125 435.594581,42.2941876 435.225534,40.7454546 C435.111982,40.2533927 435.717596,40.3953336 435.689208,39.9978991 C435.667128,39.6635494 435.969936,34.7176971 436.15919,32.0523622 C436.30744,29.9705622 435.039434,22.8545911 431.207029,19.7161198 C430.942073,19.5047856 431.159716,19.1325849 431.207029,18.4102634 C431.232263,18.0349086 429.803392,18.1926207 429.617291,19.6940401 C429.595212,19.8769862 427.838298,19.2461377 426.576601,21.6338992 C426.576601,21.6338992 425.835354,21.5203465 425.409532,22.800969 C425.336984,23.009149 424.611508,22.4287684 424.220382,23.125856 C423.79456,23.8797199 421.220698,25.116183 419.993697,26.3558003 C419.826523,26.5166666 419.009574,26.3589545 418.918101,27.1254354 C418.795085,28.0811709 418.400805,27.9171503 418.492278,28.9706673 C418.517512,29.2230067 418.820319,29.109454 418.842399,29.4122613 C418.918101,30.5130919 419.416471,31.1187064 420.640317,31.1187064 C420.864268,31.1187064 421.151304,30.6739583 421.498271,30.3333001 C421.886243,29.9484825 422.18905,30.6014107 422.255289,30.579331 L423.024924,29.8822434 C423.024924,29.8822434 426.141316,30.2828322 426.724851,30.0683437 C426.901488,29.9957961 426.775319,31.4751358 426.065614,32.986018 C423.681007,38.0580399 418.517512,41.5403237 418.820319,46.0729701" id="path2492" fill="#FFFFFF"></path>
            <polyline id="path2494" fill="#000000" points="84.2750511 3.21312305 116.927769 3.21312305 78.5816434 108.485966 37.1790563 108.485966 7.10542736e-15 3.21312305 35.1382614 3.21312305 58.9086329 79.4700897 59.195669 79.4700897 84.2750511 3.21312305"></polyline>
            <path d="M204.334983,67.9476419 L184.885923,67.9476419 L184.885923,51.4257197 L234.366526,51.4257197 L234.366526,107.145413 C210.041008,110.747558 205.382192,112.996533 179.255601,112.996533 C145.457893,111.949325 124.885923,90.4752418 124.885923,56.5355925 C124.885923,22.5959432 145.47051,1.26380118 179.255601,0.0683432772 C213.223639,-1.13657736 227.487123,13.8839254 233.618971,21.9934829 L203.212073,38.5154051 C197.824627,26.27379 191.068239,21.3910226 183.911263,21.0913695 C163.654718,20.2460325 156.428348,38.9664618 156.428348,56.5355925 C156.428348,77.8582718 167.089688,91.9766612 188.718329,91.9766612 C194.276104,91.9766612 199.824417,91.0777021 204.334983,90.1724345 L204.334983,67.9476419" id="path2496" fill="#000000"></path>
            <polyline id="path2498" fill="#000000" points="261.559251 108.485966 261.559251 3.21312305 293.779838 3.21312305 293.779838 44.9185174 323.675748 44.9185174 323.675748 3.21312305 355.748086 3.21312305 355.748086 108.485966 323.675748 108.485966 323.675748 66.7837264 293.637897 66.7837264 293.637897 108.485966 261.559251 108.485966"></polyline>
        </g>
    </g>
</svg>