<?xml version="1.0" encoding="UTF-8"?>
<svg width="1016px" height="143px" viewBox="0 0 1016 143" version="1.1" xmlns="http://www.w3.org/2000/svg" xmlns:xlink="http://www.w3.org/1999/xlink">
    <title>VHV_Gruppe_logo</title>
    <g id="Page-1" stroke="none" stroke-width="1" fill="none" fill-rule="evenodd">
        <g id="VHV_Gruppe_logo" fill="#000000" fill-rule="nonzero">
            <path d="M388.454036,0.339346659 C346.492516,0.339346659 337.715184,25.5619919 337.715184,71.1455932 C337.715184,116.187336 340.965081,141.78817 377.033715,141.78817 C389.047892,141.78817 401.623296,138.753367 406.400253,127.104901 L406.889696,127.104901 L407.542285,139.177811 L431.688105,139.177811 L431.688105,65.1088772 L385.843677,65.1088772 L385.843677,89.2546971 L398.406029,89.2546971 C398.223304,113.106591 393.922738,117.805759 386.496267,117.805237 C375.630648,117.805237 374.423357,107.964706 374.423357,71.1455932 C374.423357,34.306642 375.513181,24.3221758 387.148856,24.3220192 C391.345008,24.3220192 394.001048,26.3906764 395.306228,30.1953267 C396.657089,33.8106738 397.263997,39.1619096 397.263997,46.0203666 L431.688105,46.0203666 C431.688105,13.0322169 413.637473,0.339346659 388.454036,0.339346659 Z M0,2.94970557 L29.5296852,139.177811 L75.2109662,139.177811 L104.577504,2.94970557 L66.8904471,2.94970557 L52.5334731,105.56944 L52.2071783,105.56944 L37.8502042,2.94970557 L0,2.94970557 Z M107.514158,2.94970557 L107.514158,139.177811 L142.91715,139.177811 L142.91715,83.0550947 L164.778906,83.0550947 L164.778906,139.177811 L200.181899,139.177811 L200.181899,2.94970557 L164.778906,2.94970557 L164.778906,52.8730808 L142.91715,52.8730808 L142.91715,2.94970557 L107.514158,2.94970557 Z M203.118553,2.94970557 L232.485091,139.177811 L278.329519,139.177811 L307.696057,2.94970557 L269.845853,2.94970557 L255.488879,105.56944 L255.162584,105.56944 L240.80561,2.94970557 L203.118553,2.94970557 Z M443.271573,2.94970557 L443.271573,139.177811 L478.837713,139.177811 L478.837713,84.686569 L488.137117,84.686569 C496.692568,84.686569 499.720584,88.628211 499.720584,104.100852 L499.720584,113.237109 C499.720584,118.973633 499.714111,131.921014 503.14668,139.177811 L540.996885,139.177811 L540.996885,137.220042 C538.699769,136.091323 537.864506,134.681729 536.918199,133.141617 C535.201888,130.465477 535.286777,121.283801 535.286725,114.216515 L535.286725,102.632787 C535.286725,84.5038439 530.111688,73.5011811 512.935526,71.9610693 L512.935526,71.6347745 C529.145855,69.122043 536.265609,57.3169558 536.265609,39.1686965 C536.265609,18.1942016 525.824174,2.94970557 498.7417,2.94970557 L443.271573,2.94970557 Z M548.501667,2.94970557 L548.501667,92.1913509 C548.501667,130.334959 564.894721,141.78817 594.67239,141.78817 C624.430481,141.78817 640.679966,130.334959 640.679966,92.1913509 L640.679966,2.94970557 L605.276973,2.94970557 L605.276973,101.164721 C605.276973,114.340246 601.328805,117.805759 594.67239,117.805237 C587.989871,117.805237 583.904659,114.340246 583.904659,101.164721 L583.904659,2.94970557 L548.501667,2.94970557 Z M651.773991,2.94970557 L651.773991,139.177811 L687.340131,139.177811 L687.340131,87.2969279 L699.739336,87.2969279 C728.551173,87.2969279 744.441732,72.7572288 744.441732,44.8785956 C744.441732,21.0655964 732.218727,2.94970557 705.123201,2.94970557 L651.773991,2.94970557 Z M751.457072,2.94970557 L751.457072,139.177811 L786.860065,139.177811 L786.860065,87.2969279 L799.25927,87.2969279 C828.071106,87.2969279 843.961666,72.7572288 843.961666,44.8785956 C843.961666,21.0655964 831.745186,2.94970557 804.643135,2.94970557 L751.457072,2.94970557 Z M852.282185,2.94970557 L852.282185,139.177811 L934.834786,139.177811 L934.834786,110.137568 L887.848325,110.137568 L887.848325,83.0550947 L930.266658,83.0550947 L930.266658,55.3200313 L887.848325,55.3200313 L887.848325,31.9899485 L933.040164,31.9899485 L933.040164,2.94970557 L852.282185,2.94970557 Z M478.837713,28.5638524 L485.689905,28.5638524 C496.366273,28.5638524 500.699469,33.3406526 500.699469,44.3894143 C500.699469,54.1062144 495.974719,60.5407491 485.853053,60.5407491 L478.837713,60.5407491 L478.837713,28.5638524 Z M687.340131,28.5638524 L694.029176,28.5638524 C703.002285,28.5638524 707.73356,33.8042523 707.73356,45.0420041 C707.73356,56.5077446 703.002337,61.6825201 694.029176,61.6825201 L687.340131,61.6825201 L687.340131,28.5638524 Z M786.860065,28.5638524 L793.54911,28.5638524 C802.502641,28.5638524 807.253494,33.8042523 807.253494,45.0420041 C807.253494,56.5077446 802.502693,61.6825201 793.54911,61.6825201 L786.860065,61.6825201 L786.860065,28.5638524 Z" id="path2454"></path>
            <polyline id="path2472" points="953.564111 142.18625 984.13794 142.18625 1015.46877 0 984.90147 0 953.564111 142.18625"></polyline>
        </g>
    </g>
</svg>