<?xml version="1.0" encoding="UTF-8"?>
<svg width="159px" height="101px" viewBox="0 0 159 101" version="1.1" xmlns="http://www.w3.org/2000/svg" xmlns:xlink="http://www.w3.org/1999/xlink">
    <title>Group 13805</title>
    <defs>
        <polygon id="path-1" points="0 100.949 158.315 100.949 158.315 0 0 0"></polygon>
    </defs>
    <g id="Page-1" stroke="none" stroke-width="1" fill="none" fill-rule="evenodd">
        <g id="Group-13805" transform="translate(0.000000, 0.000000)">
            <path d="M62.3969,76.0352 L64.9289,76.0352 L64.9289,68.7732 C65.8429,67.9112 66.3529,67.4552 67.1629,67.4552 C67.9889,67.4552 68.4809,67.9652 68.4809,68.9482 L68.4809,76.0352 L71.0129,76.0352 L71.0129,68.4032 C71.0129,66.8572 70.5029,65.3082 68.4469,65.3082 C66.9169,65.3082 65.7729,66.2762 64.9289,67.0862 L64.9289,62.3722 L62.3969,62.3722 L62.3969,76.0352" id="Fill-13787" fill="#000000"></path>
            <mask id="mask-2" fill="white">
                <use xlink:href="#path-1"></use>
            </mask>
            <g id="Clip-13790"></g>
            <path d="M73.773,64.254 L76.307,64.254 L76.307,62.371 L73.773,62.371 L73.773,64.254 Z M73.773,76.036 L76.307,76.036 L76.307,65.521 L73.773,65.521 L73.773,76.036 Z" id="Fill-13789" fill="#000000" mask="url(#mask-2)"></path>
            <polygon id="Fill-13791" fill="#000000" mask="url(#mask-2)" points="79.187 76.036 81.719 76.036 81.719 62.373 79.187 62.373"></polygon>
            <path d="M85.1637,76.0352 L87.6967,76.0352 L87.6967,68.1752 L89.7697,68.1752 L89.7697,66.3812 L87.6967,66.3812 L87.6967,65.5202 C87.6967,64.4662 88.0297,63.7622 89.0137,63.7622 C89.5417,63.7622 89.9817,63.8502 90.2457,63.9562 L90.2457,62.1622 C89.6997,62.0212 89.3137,61.9672 88.7337,61.9672 C86.0607,61.9672 85.1637,63.4092 85.1637,65.4322 L85.1637,66.3812 L83.6517,66.3812 L83.6517,68.1752 L85.1637,68.1752 L85.1637,76.0352" id="Fill-13792" fill="#000000" mask="url(#mask-2)"></path>
            <path d="M93.549,69.723 C93.637,68.369 94.217,67.066 95.764,67.102 C97.013,67.066 97.769,68.034 97.769,69.723 L93.549,69.723 Z M97.769,72.887 C97.593,73.538 96.925,74.453 95.783,74.453 C93.971,74.453 93.549,72.66 93.549,71.409 L100.302,71.409 L100.302,70.462 C100.302,67.683 98.824,65.308 95.853,65.308 C92.758,65.308 91.018,67.525 91.018,70.742 C91.018,74.172 92.88,76.246 95.834,76.246 C98.226,76.246 99.351,74.98 99.914,73.591 L97.769,72.887 L97.769,72.887 Z" id="Fill-13793" fill="#000000" mask="url(#mask-2)"></path>
            <path d="M62.3969,55.9981 L64.9289,55.9981 L64.9289,48.7351 C65.8429,47.8731 66.3529,47.4171 67.1629,47.4171 C67.9889,47.4171 68.4809,47.9271 68.4809,48.9111 L68.4809,55.9981 L71.0129,55.9981 L71.0129,48.3661 C71.0129,46.8181 70.5029,45.2711 68.4469,45.2711 C66.9169,45.2711 65.7729,46.2391 64.9289,47.0471 L64.9289,42.3341 L62.3969,42.3341 L62.3969,55.9981" id="Fill-13794" fill="#000000" mask="url(#mask-2)"></path>
            <path d="M82.2138,45.4821 L79.6808,45.4821 L79.6808,52.7091 C78.7678,53.5711 78.2578,54.0631 77.4498,54.0631 C76.7448,54.0631 76.2528,53.5531 76.2528,52.5691 L76.2528,45.4821 L73.7208,45.4821 L73.7208,53.1131 C73.7208,54.6611 74.2308,56.2071 76.1638,56.2071 C77.6948,56.2071 78.8378,55.2411 79.6808,54.3981 L79.6808,55.9981 L82.2138,55.9981 L82.2138,45.4821" id="Fill-13795" fill="#000000" mask="url(#mask-2)"></path>
            <path d="M91.1811,55.9981 L93.7121,55.9981 L93.7121,48.3661 C93.7121,46.8181 93.2021,45.2711 91.1451,45.2711 C89.6151,45.2711 88.4741,46.2391 87.6281,47.0471 L87.6281,45.4821 L85.0951,45.4821 L85.0951,55.9981 L87.6281,55.9981 L87.6281,48.7351 C88.5431,47.8731 89.0541,47.4171 89.8621,47.4171 C90.6891,47.4171 91.1811,47.9271 91.1811,48.9111 L91.1811,55.9981" id="Fill-13796" fill="#000000" mask="url(#mask-2)"></path>
            <path d="M101.609,55.5576 C102.311,55.7346 102.803,55.9986 102.803,56.6306 C102.803,57.4046 102.17,57.9306 100.465,57.9306 C99.112,57.9306 97.898,57.5446 97.898,56.5426 C97.898,55.7696 98.407,55.2936 99.006,54.8896 L101.609,55.5576 Z M100.131,50.2826 C99.041,50.2826 98.251,49.6326 98.251,48.6126 C98.251,47.6266 98.865,46.9596 100.166,46.9596 C100.993,46.9596 101.978,47.4166 101.978,48.6126 C101.978,49.6136 101.239,50.2826 100.131,50.2826 L100.131,50.2826 Z M105.511,45.4826 L101.714,45.4826 C101.151,45.3946 100.484,45.2716 99.814,45.2716 C97.528,45.2716 95.964,46.7486 95.964,48.6126 C95.964,50.0186 96.456,50.8276 98.073,51.6006 C97.494,51.8646 97.054,52.5516 97.054,53.1136 C97.054,53.4656 97.212,53.9766 97.67,54.2206 C96.93,54.5906 95.682,55.2246 95.682,56.8416 C95.682,58.4586 97.422,59.5496 100.377,59.5496 C102.768,59.5496 105.23,58.7926 105.23,56.4026 C105.23,54.8896 104.175,54.1526 102.927,53.8166 L99.762,52.9546 C99.305,52.8306 99.164,52.7456 99.164,52.5006 C99.164,52.1996 99.287,52.0406 99.428,51.9006 C99.587,51.9356 99.832,51.9706 100.095,51.9706 C103.295,51.9706 104.264,50.1956 104.264,48.8406 C104.264,47.6976 103.735,47.1706 103.454,46.8886 L105.511,46.8886 L105.511,45.4826 L105.511,45.4826 Z" id="Fill-13797" fill="#000000" mask="url(#mask-2)"></path>
            <path d="M109.1674,49.6846 C109.2554,48.3316 109.8344,47.0296 111.3824,47.0646 C112.6304,47.0296 113.3874,47.9966 113.3874,49.6846 L109.1674,49.6846 Z M113.3874,52.8496 C113.2124,53.5006 112.5424,54.4156 111.4004,54.4156 C109.5894,54.4156 109.1674,52.6206 109.1674,51.3746 L115.9194,51.3746 L115.9194,50.4226 C115.9194,47.6456 114.4414,45.2716 111.4704,45.2716 C108.3754,45.2716 106.6364,47.4876 106.6364,50.7046 C106.6364,54.1336 108.4984,56.2076 111.4524,56.2076 C113.8444,56.2076 114.9694,54.9426 115.5324,53.5526 L113.3874,52.8496 L113.3874,52.8496 Z" id="Fill-13798" fill="#000000" mask="url(#mask-2)"></path>
            <path d="M118.238,55.9981 L120.77,55.9981 L120.77,48.9981 C121.351,48.3661 122.107,47.5571 123.355,47.5571 C123.637,47.5571 123.918,47.5911 124.252,47.6271 L124.252,45.3071 C124.094,45.2891 123.936,45.2711 123.777,45.2711 C122.511,45.2711 121.456,46.2741 120.806,47.1351 L120.77,47.1351 L120.77,45.4821 L118.238,45.4821 L118.238,55.9981" id="Fill-13799" fill="#000000" mask="url(#mask-2)"></path>
            <path d="M70.157,36.8863 L73.34,36.8863 L76.1,26.3703 L73.569,26.3703 L72.39,31.4693 C72.075,32.8053 71.898,33.5443 71.829,34.4233 L71.705,34.4233 C71.565,33.5443 71.406,32.8053 71.126,31.5933 L69.894,26.3703 L66.73,26.3703 L65.569,31.4693 C65.375,32.2963 65.112,33.4573 65.006,34.4233 L64.902,34.4233 C64.706,33.4733 64.532,32.4183 64.285,31.4693 L62.985,26.3703 L60.328,26.3703 L63.318,36.8863 L66.501,36.8863 L67.837,30.9773 C67.978,30.3443 68.17,29.4813 68.189,28.9023 L68.295,28.9023 C68.399,29.5003 68.539,30.3263 68.733,31.1183 L70.157,36.8863" id="Fill-13800" fill="#000000" mask="url(#mask-2)"></path>
            <path d="M79.636,30.5724 C79.725,29.2184 80.305,27.9174 81.852,27.9534 C83.101,27.9174 83.856,28.8854 83.856,30.5724 L79.636,30.5724 Z M83.856,33.7374 C83.681,34.3874 83.012,35.3024 81.871,35.3024 C80.058,35.3024 79.636,33.5084 79.636,32.2594 L86.389,32.2594 L86.389,31.3114 C86.389,28.5334 84.911,26.1584 81.941,26.1584 C78.844,26.1584 77.105,28.3744 77.105,31.5924 C77.105,35.0214 78.969,37.0964 81.922,37.0964 C84.314,37.0964 85.44,35.8294 86.002,34.4404 L83.856,33.7374 L83.856,33.7374 Z" id="Fill-13801" fill="#000000" mask="url(#mask-2)"></path>
            <polygon id="Fill-13802" fill="#000000" mask="url(#mask-2)" points="88.48 36.886 91.012 36.886 91.012 23.223 88.48 23.223"></polygon>
            <path d="M99.4503,27.232 L96.9873,27.232 L96.9873,23.786 L94.4553,24.841 L94.4553,27.232 L92.9433,27.232 L92.9433,29.025 L94.4553,29.025 L94.4553,33.738 C94.4553,35.514 95.1413,37.096 97.5153,37.096 C98.3593,37.096 99.1853,36.903 99.4853,36.78 L99.4853,34.952 C99.1163,35.11 98.5883,35.163 98.2533,35.163 C97.0413,35.163 96.9873,34.441 96.9873,33.351 L96.9873,29.025 L99.4503,29.025 L99.4503,27.232" id="Fill-13803" fill="#000000" mask="url(#mask-2)"></path>
            <path d="M38.0539,69.6553 C40.9069,69.8483 43.5249,70.8983 45.6499,72.5523 C47.5969,70.5883 48.8739,67.9563 49.1009,65.0283 L38.0539,65.0283 L38.0539,69.6553 Z M44.1819,73.8133 C42.4359,72.5413 40.3349,71.7293 38.0539,71.5513 L38.0539,76.0753 C40.3339,75.8973 42.4359,75.0843 44.1819,73.8133 L44.1819,73.8133 Z M49.1369,36.8003 C42.9349,37.2833 38.0539,42.4683 38.0539,48.7923 L38.0539,50.5873 C40.3189,46.7113 44.4039,44.0263 49.1369,43.7083 L49.1369,36.8003 Z M38.0539,41.7843 C40.3189,37.9073 44.4029,35.2233 49.1369,34.9053 L49.1369,28.3053 C42.9349,28.7883 38.0539,33.9723 38.0539,40.2983 L38.0539,41.7843 Z M38.0539,63.1373 L49.1009,63.1373 C48.8739,60.2113 47.5989,57.5793 45.6499,55.6133 C43.5249,57.2673 40.9069,58.3193 38.0539,58.5093 L38.0539,63.1373 Z M49.0969,45.6073 C43.2399,46.0823 38.5689,50.7533 38.0939,56.6113 C43.9519,56.1373 48.6229,51.4663 49.0969,45.6073 L49.0969,45.6073 Z M51.0289,44.6223 C51.0289,48.4093 49.5149,51.8443 47.0629,54.3523 C49.5149,56.8613 51.0289,60.2963 51.0289,64.0823 C51.0289,71.7703 44.7969,78.0023 37.1089,78.0023 C29.4219,78.0023 23.1899,71.7703 23.1899,64.0823 C23.1899,60.2963 24.7039,56.8613 27.1569,54.3523 C24.7019,51.8443 23.1899,48.4093 23.1899,44.6223 L23.1909,26.3783 L24.1349,26.3783 C30.0409,26.3783 35.0859,30.0563 37.1089,35.2463 C39.1309,30.0563 44.1769,26.3783 50.0819,26.3783 L51.0289,26.3783 L51.0289,44.6223 Z M36.1649,76.0753 L36.1649,71.5513 C33.8839,71.7293 31.7819,72.5413 30.0369,73.8133 C31.7819,75.0843 33.8839,75.8973 36.1649,76.0753 L36.1649,76.0753 Z M36.1649,69.6553 L36.1649,65.0283 L25.1169,65.0283 C25.3439,67.9563 26.6199,70.5883 28.5669,72.5523 C30.6929,70.8983 33.3109,69.8483 36.1649,69.6553 L36.1649,69.6553 Z M36.1649,63.1373 L36.1649,58.5093 C33.3099,58.3193 30.6929,57.2673 28.5669,55.6133 C26.6189,57.5793 25.3439,60.2113 25.1169,63.1373 L36.1649,63.1373 Z M36.1649,50.5873 L36.1649,48.7923 C36.1649,42.4683 31.2819,37.2833 25.0809,36.8003 L25.0809,43.7083 C29.8149,44.0263 33.8999,46.7113 36.1649,50.5873 L36.1649,50.5873 Z M36.1649,41.7843 L36.1649,40.2983 C36.1649,33.9723 31.2819,28.7883 25.0809,28.3053 L25.0809,34.9053 C29.8149,35.2233 33.8999,37.9073 36.1649,41.7843 L36.1649,41.7843 Z M25.1209,45.6073 C25.5949,51.4663 30.3059,56.1373 36.1649,56.6113 C35.6889,50.7533 30.9789,46.0823 25.1209,45.6073 L25.1209,45.6073 Z M23.1899,24.4913 L23.1899,19.6023 L25.0809,19.6023 L25.0809,24.5193 C24.7679,24.5013 24.4529,24.4913 24.1349,24.4913 L23.1899,24.4913 Z M42.6499,26.3443 L42.6519,19.6023 L44.5409,19.6023 L44.5409,25.4903 C43.8899,25.7343 43.2579,26.0203 42.6499,26.3443 L42.6499,26.3443 Z M49.1369,24.5193 L49.1369,19.6023 L51.0289,19.6023 L51.0289,24.4913 L50.0819,24.4913 C49.7649,24.4913 49.4499,24.5013 49.1369,24.5193 L49.1369,24.5193 Z M36.1649,30.0423 L36.1649,19.6023 L38.0539,19.6023 L38.0539,30.0423 C37.7209,30.4353 37.4049,30.8433 37.1089,31.2663 C36.8129,30.8433 36.4989,30.4343 36.1649,30.0423 L36.1649,30.0423 Z M29.6769,25.4903 L29.6769,19.6023 L31.5669,19.6023 L31.5669,26.3443 C30.9609,26.0203 30.3299,25.7343 29.6769,25.4903 L29.6769,25.4903 Z" id="Fill-13804" fill="#000000" mask="url(#mask-2)"></path>
        </g>
    </g>
</svg>